<svg width="44" height="40" viewBox="0 0 44 40" fill="none" xmlns="http://www.w3.org/2000/svg">
<path fill-rule="evenodd" clip-rule="evenodd" d="M9.51351 38.5407C10.8271 38.5407 11.8919 37.4759 11.8919 36.1623C11.8919 34.8488 10.8271 33.7839 9.51351 33.7839C8.19997 33.7839 7.13513 34.8488 7.13513 36.1623C7.13513 37.4759 8.19997 38.5407 9.51351 38.5407Z" stroke="#10A200" stroke-width="2.37838" stroke-linecap="round" stroke-linejoin="round"/>
<path fill-rule="evenodd" clip-rule="evenodd" d="M23.7838 38.5407C25.0973 38.5407 26.1622 37.4759 26.1622 36.1623C26.1622 34.8488 25.0973 33.7839 23.7838 33.7839C22.4702 33.7839 21.4054 34.8488 21.4054 36.1623C21.4054 37.4759 22.4702 38.5407 23.7838 38.5407Z" stroke="#10A200" stroke-width="2.37838" stroke-linecap="round" stroke-linejoin="round"/>
<path d="M6.74272 18.3244H27.3514L25.3535 28.3017C25.1291 29.4317 24.127 30.2383 22.9752 30.2163H10.4054C9.20373 30.2264 8.18323 29.3386 8.02705 28.1471L6.21948 14.4476C6.06444 13.2651 5.05754 12.3802 3.86488 12.3784H1.18921" stroke="#10A200" stroke-width="2.37838" stroke-linecap="round" stroke-linejoin="round"/>
</svg>
