<svg width="101" height="98" viewBox="0 0 101 98" fill="none" xmlns="http://www.w3.org/2000/svg">
<g clip-path="url(#clip0)">
<path d="M51.892 18.9407C51.892 18.9191 52.1509 18.876 52.5824 18.6174C52.9924 18.3589 53.5965 17.8417 53.8123 16.9152C53.8555 16.6781 53.877 16.4411 53.877 16.1825C53.8555 15.924 53.7907 15.6654 53.726 15.3853C53.575 14.825 53.4239 14.2217 53.2297 13.5752C52.8845 12.2608 52.4961 10.7955 52.043 9.15791C51.6115 7.52026 51.1368 5.71024 50.619 3.79247C50.4895 3.31842 50.36 2.82282 50.2306 2.32721C50.1227 1.83161 49.8853 1.3791 49.5185 0.991241C49.1517 0.624926 48.6771 0.366351 48.1592 0.258611C47.6414 0.129324 47.102 0.237063 46.5625 0.409447C42.2256 1.55149 37.4356 2.80127 32.4298 4.11569C31.8256 4.26653 31.2862 4.65439 30.941 5.17154C30.5958 5.66714 30.4232 6.31358 30.4879 6.91692C30.5095 7.21859 30.6173 7.52026 30.6821 7.82193C30.7684 8.12361 30.8331 8.42528 30.9194 8.72695C31.0705 9.33029 31.2431 9.93363 31.3941 10.5154C32.0198 12.8857 32.6024 15.1482 33.185 17.3246C33.4655 18.402 33.746 19.4578 34.0049 20.4921C34.1344 21.0093 34.307 21.4833 34.6306 21.8712C34.9543 22.259 35.3858 22.5392 35.8389 22.6685C36.7883 22.9917 37.7161 22.5607 38.6223 22.3668C39.5285 22.1298 40.3916 21.9143 41.2115 21.6988C44.4912 20.8584 47.1451 20.1689 49.0007 19.6948C49.9069 19.4578 50.619 19.2854 51.1152 19.1561C51.3526 19.0915 51.5252 19.0484 51.6762 19.0269C51.8273 18.9407 51.892 18.9407 51.892 18.9407C51.892 18.9407 51.8273 18.9622 51.6978 19.0053C51.5683 19.0484 51.3741 19.0915 51.1584 19.1561C50.6621 19.2854 49.9501 19.4794 49.0439 19.7379C47.1883 20.2335 44.5343 20.9446 41.2762 21.8065C40.4563 22.022 39.5933 22.259 38.7086 22.4961C38.2555 22.6038 37.8024 22.7331 37.3277 22.8624C36.853 22.9701 36.3136 22.9701 35.8389 22.8193C35.3426 22.6685 34.8895 22.3883 34.5443 21.9789C34.1775 21.5911 33.9833 21.0524 33.8754 20.5352C33.5949 19.5009 33.3144 18.4451 33.0339 17.3677C32.4514 15.1913 31.8688 12.9288 31.2431 10.5585C31.092 9.97673 30.941 9.37339 30.7684 8.77004C30.6821 8.46837 30.6173 8.1667 30.531 7.86503C30.4663 7.56336 30.3584 7.26169 30.3153 6.93847C30.2505 6.29203 30.4016 5.6025 30.79 5.0638C31.1568 4.5251 31.7393 4.11569 32.3866 3.94331C37.3924 2.62888 42.1825 1.3791 46.5194 0.237063C47.0372 0.0862279 47.6414 -0.0430597 48.2024 0.0862279C48.7634 0.193968 49.2596 0.474091 49.648 0.861953C50.0364 1.24982 50.2953 1.76697 50.4032 2.26257C50.5326 2.75817 50.6621 3.25377 50.7916 3.72783C51.2878 5.66714 51.7625 7.45562 52.1941 9.09326C52.6256 10.7309 53.014 12.2177 53.3376 13.5321C53.5102 14.1786 53.6613 14.7819 53.8123 15.3422C53.877 15.6223 53.9418 15.9024 53.9633 16.161C53.9633 16.4196 53.9418 16.6781 53.8986 16.9152C53.6613 17.8633 53.0355 18.402 52.6256 18.639C52.4098 18.7683 52.2156 18.8329 52.1077 18.876C51.9567 18.9191 51.892 18.9407 51.892 18.9407Z" fill="#E0E0E0"/>
<path d="M46.1957 13.4242C46.1957 13.4242 46.1526 13.4457 46.0663 13.4673C45.9799 13.4888 45.8505 13.5319 45.6779 13.575C45.3326 13.6612 44.858 13.7905 44.2538 13.9629C43.0455 14.2861 41.3841 14.7386 39.5069 15.2342H39.4638L39.4422 15.1911C39.3343 14.9541 39.2264 14.6955 39.1186 14.4369C38.1908 12.2175 37.3708 10.2351 36.8314 8.9422L36.8746 8.96375C36.3352 9.09304 35.9036 9.20078 35.6015 9.28697C35.4505 9.33006 35.3426 9.35161 35.2563 9.37316C35.17 9.39471 35.1484 9.39471 35.1484 9.39471C35.1484 9.39471 35.1916 9.37316 35.2563 9.35161C35.3426 9.33007 35.4505 9.28697 35.6015 9.26542C35.9036 9.17923 36.3352 9.07149 36.8746 8.92065H36.8962V8.9422C37.4356 10.2351 38.2771 12.2175 39.2264 14.4369C39.3343 14.6955 39.4422 14.9541 39.5501 15.1911L39.4854 15.1696C41.3625 14.674 43.0455 14.243 44.2538 13.9198C44.858 13.7689 45.3326 13.6397 45.6779 13.5535C45.8289 13.5104 45.9584 13.4888 46.0663 13.4673C46.1526 13.4242 46.1957 13.4242 46.1957 13.4242Z" fill="#E0E0E0"/>
<path d="M38.9459 13.8551C38.9459 13.8551 38.9459 13.8551 38.9891 13.8336C39.0107 13.8336 39.0538 13.8121 39.097 13.8121C39.1833 13.7905 39.3127 13.7474 39.4853 13.7043C39.8306 13.6181 40.3053 13.4888 40.9094 13.3165C42.1393 12.9932 43.8654 12.5192 45.8505 12.002L45.8073 12.0451C45.7426 11.1832 45.6563 10.2351 45.57 9.26544C45.5268 8.76984 45.4837 8.27424 45.4405 7.80018L45.5052 7.84328C43.1965 8.44662 41.1467 8.98532 39.6795 9.37318C38.9459 9.56711 38.3634 9.71795 37.9534 9.82569C37.7592 9.86878 37.6082 9.91188 37.4787 9.93343C37.4356 9.95497 37.3924 9.95497 37.3492 9.95497C37.3277 9.95497 37.3061 9.95497 37.3061 9.95497C37.3061 9.95497 37.3277 9.95497 37.3492 9.93343C37.3708 9.93343 37.414 9.91188 37.4787 9.89033C37.5866 9.86878 37.7376 9.82569 37.9318 9.76104C38.3418 9.6533 38.9243 9.48092 39.658 9.28699C41.1252 8.89913 43.175 8.33888 45.4837 7.73554L45.5268 7.71399V7.77863C45.57 8.25269 45.6131 8.74829 45.6563 9.24389C45.7426 10.2135 45.8073 11.1617 45.8936 12.0236V12.0667H45.8505C43.8654 12.5838 42.1393 13.0363 40.9094 13.3595C40.3053 13.5104 39.809 13.6397 39.4638 13.7259C39.2911 13.769 39.1833 13.7905 39.0754 13.8121C39.0322 13.8121 39.0107 13.8336 38.9675 13.8336C38.9459 13.8551 38.9459 13.8551 38.9459 13.8551Z" fill="#E0E0E0"/>
<path d="M41.6645 16.5703C41.6645 16.5703 41.643 16.5057 41.5782 16.4195C41.5135 16.3333 41.4272 16.204 41.233 16.1394C41.0604 16.0747 40.823 16.0747 40.6073 16.2256C40.4131 16.3548 40.2836 16.6565 40.3484 16.9151C40.4131 17.1952 40.672 17.3676 40.9094 17.3891C41.1467 17.4107 41.3625 17.3029 41.4919 17.1521C41.6214 17.0013 41.643 16.8504 41.643 16.7427C41.6645 16.635 41.643 16.5703 41.6645 16.5703C41.6645 16.5703 41.6861 16.635 41.7077 16.7427C41.7077 16.8504 41.6861 17.0228 41.5782 17.1952C41.4703 17.3676 41.2114 17.4969 40.9309 17.4753C40.6504 17.4538 40.3699 17.2599 40.2836 16.9366C40.1973 16.6134 40.3484 16.2902 40.5857 16.1394C40.823 15.9885 41.1035 15.9885 41.2762 16.0747C41.4703 16.1609 41.5782 16.2902 41.6214 16.3979C41.6645 16.5057 41.6645 16.5703 41.6645 16.5703Z" fill="#E0E0E0"/>
<path d="M45.9584 15.4282C45.9584 15.4282 45.9368 15.3636 45.8721 15.2774C45.8073 15.1912 45.721 15.0619 45.5268 14.9973C45.3542 14.9326 45.1169 14.9326 44.9011 15.0835C44.7069 15.2127 44.5775 15.5144 44.6422 15.773C44.7069 16.0531 44.9658 16.2255 45.2032 16.2471C45.4405 16.2686 45.6563 16.1609 45.7857 16.01C45.9152 15.8592 45.9368 15.7084 45.9368 15.6006C45.9799 15.4929 45.9584 15.4282 45.9584 15.4282C45.9584 15.4282 45.9799 15.4929 46.0015 15.6006C46.0015 15.7084 45.9799 15.8807 45.8721 16.0531C45.7642 16.2255 45.5053 16.3548 45.2248 16.3332C44.9443 16.3117 44.6638 16.1178 44.5775 15.7945C44.4911 15.4713 44.6422 15.1481 44.8795 14.9973C45.1169 14.8464 45.3974 14.8464 45.57 14.9326C45.7642 15.0188 45.8721 15.1481 45.9152 15.2558C45.9584 15.3636 45.9799 15.4282 45.9584 15.4282Z" fill="#E0E0E0"/>
<path d="M85.1633 96.2546C80.3301 93.8843 78.453 88.368 77.8488 83.2396C77.7409 82.3777 77.5252 81.4942 77.8057 80.697C78.0862 79.8997 78.9708 79.2317 79.7691 79.4687C80.438 79.6627 80.8264 80.3522 81.2795 80.9124C81.8837 81.6451 82.682 82.2053 83.5666 82.507C84.1492 82.7009 84.8397 82.7656 85.3359 82.3992C86.0048 81.8821 85.9401 80.8478 85.8106 80.0074C85.5517 78.4344 85.3144 76.8614 85.0554 75.2884C84.926 74.4481 84.7749 73.5861 84.926 72.7458C85.0554 71.9054 85.5301 71.065 86.3069 70.7203C87.0836 70.3755 88.1409 70.6772 88.443 71.4744C88.5724 71.7977 88.5509 72.1855 88.6372 72.5303C88.7235 72.8751 88.9392 73.2414 89.2845 73.2845C89.6297 73.3276 89.9318 73.0474 90.1475 72.7458C90.8811 71.7546 91.3127 70.5694 91.7011 69.3843C92.0894 68.1991 92.4562 67.014 93.1035 65.9582C93.7508 64.9023 94.7434 63.9973 95.9301 63.7387C97.1384 63.4801 98.5409 64.0404 99.0371 65.1824C99.5334 66.3245 99.0156 67.6389 98.4114 68.7163C97.5052 70.3108 96.3832 71.7977 95.0454 73.069C94.8081 73.306 94.5492 73.543 94.506 73.8663C94.3981 74.448 95.0239 74.9437 95.6064 75.0298C96.2753 75.1376 96.9442 74.9652 97.6131 74.9437C98.2819 74.9221 99.0371 75.0945 99.3824 75.6763C99.857 76.4951 99.2745 77.5079 98.6488 78.1974C97.3973 79.598 95.9301 80.7831 94.2903 81.6882C93.7077 82.0114 93.082 82.313 92.6504 82.8302C92.2189 83.3474 92.0247 84.1446 92.4347 84.7049C92.823 85.2436 93.643 85.3298 94.2687 85.1143C94.8944 84.8988 95.4338 84.4463 96.0164 84.1231C97.1168 83.4982 98.6272 83.3474 99.5334 84.2524C100.116 84.8342 100.31 85.7392 100.181 86.5795C100.051 87.3984 99.6629 88.1525 99.2097 88.8636C97.6778 91.3416 95.5633 93.4533 93.0172 94.8109C90.4496 96.1899 87.9899 96.8148 85.1633 96.2546Z" fill="#F5F5F5"/>
<path d="M85.9832 92.8715C86.3284 90.178 86.9757 87.269 87.7309 84.2523C87.9251 83.4981 88.1193 82.7439 88.3135 82.0113C88.5077 81.2787 88.7019 80.546 88.9176 79.8565C89.3708 78.4559 89.9102 77.1415 90.4712 75.9132C91.0322 74.685 91.5932 73.543 92.1326 72.4656C92.672 71.3882 93.1898 70.4185 93.7077 69.535C94.7434 67.7681 95.7359 66.4537 96.4479 65.5702C96.8147 65.1393 97.0952 64.7945 97.2894 64.579C97.3757 64.4713 97.462 64.3851 97.5268 64.3204C97.5699 64.2558 97.6131 64.2343 97.6131 64.2343C97.6131 64.2343 97.5915 64.2773 97.5483 64.3204C97.5052 64.3851 97.4189 64.4713 97.3326 64.579C97.1384 64.816 96.8579 65.1393 96.5126 65.5918C95.8006 66.4752 94.8297 67.8112 93.8156 69.5781C93.2977 70.4616 92.7799 71.4528 92.262 72.5087C91.7226 73.5861 91.1616 74.7281 90.6222 75.9563C90.0828 77.1846 89.5434 78.499 89.0903 79.8996C88.8529 80.5891 88.6803 81.3218 88.4861 82.0544C88.2919 82.787 88.0977 83.5412 87.9035 84.2954C87.1268 87.3121 86.5011 90.2211 86.1343 92.893" fill="#E0E0E0"/>
<path d="M88.9824 79.8351C88.9824 79.8351 88.9176 79.7058 88.8529 79.4903C88.7666 79.2533 88.6587 78.9301 88.5508 78.5207C88.2919 77.7019 87.9898 76.5383 87.6662 75.2885C87.3425 74.0172 87.0189 72.8751 86.76 72.0563C86.6305 71.6469 86.5226 71.3237 86.4363 71.0866C86.35 70.8496 86.3284 70.7203 86.3284 70.7203C86.3284 70.7203 86.3932 70.8281 86.4795 71.0651C86.5658 71.2806 86.6952 71.6038 86.8463 72.0132C87.1268 72.832 87.472 73.9741 87.8172 75.2239C88.1409 76.4736 88.4429 77.6157 88.6587 78.4776C88.7666 78.8655 88.8529 79.1887 88.9176 79.4688C88.9608 79.7058 88.9824 79.8351 88.9824 79.8351Z" fill="#E0E0E0"/>
<path d="M99.5334 76.1288C99.5334 76.1288 99.3824 76.1719 99.1019 76.2581C98.8214 76.3227 98.433 76.4305 97.9367 76.5597C96.9658 76.8183 95.6064 77.2277 94.1608 77.7449C92.6936 78.262 91.399 78.7792 90.4712 79.1886C89.9965 79.3825 89.6297 79.5549 89.3708 79.6842C89.1119 79.7919 88.9608 79.8566 88.9608 79.8566C88.9608 79.8566 89.0903 79.7704 89.3492 79.6411C89.6081 79.5118 89.9749 79.3179 90.428 79.1024C91.3558 78.6714 92.6504 78.1327 94.1177 77.6156C95.5849 77.0984 96.9442 76.7106 97.9152 76.4736C98.4114 76.3443 98.8214 76.2796 99.1019 76.215C99.3824 76.1503 99.5334 76.1288 99.5334 76.1288Z" fill="#E0E0E0"/>
<path d="M86.0911 92.6345C86.0911 92.6345 86.0479 92.5914 86.0048 92.5052C85.9401 92.3974 85.8538 92.2897 85.7675 92.1389C85.5517 91.8156 85.2496 91.3631 84.9044 90.7813C84.1923 89.6178 83.243 87.9801 82.2289 86.1485C81.2148 84.317 80.287 82.6793 79.5965 81.4942C79.2513 80.9124 78.9708 80.4599 78.7766 80.0936C78.6903 79.9427 78.604 79.8134 78.5608 79.7057C78.5177 79.6195 78.4961 79.5764 78.4961 79.5764C78.4961 79.5764 78.5393 79.6195 78.5824 79.7057C78.6471 79.8134 78.7334 79.9212 78.8197 80.072C79.0355 80.3952 79.3376 80.8477 79.6828 81.4295C80.3948 82.5931 81.3442 84.2308 82.3583 86.0623C83.3724 87.8939 84.3002 89.5316 84.9907 90.7167C85.3359 91.2985 85.6164 91.751 85.8106 92.1173C85.8969 92.2682 85.9832 92.3974 86.0264 92.5052C86.0695 92.5914 86.0911 92.6345 86.0911 92.6345Z" fill="#E0E0E0"/>
<path d="M99.8355 85.7609C99.8355 85.7609 99.7923 85.804 99.706 85.8471C99.5981 85.9117 99.4686 85.9763 99.3176 86.0625C98.9508 86.2565 98.4545 86.4935 97.8504 86.7952C96.5989 87.4201 94.8944 88.3035 93.0172 89.2732C91.14 90.2428 89.4139 91.1263 88.1625 91.7081C87.5367 92.0098 87.0189 92.2468 86.6737 92.3976C86.5011 92.4623 86.3716 92.5269 86.2637 92.57C86.1774 92.6131 86.1127 92.6346 86.1127 92.6131C86.1127 92.6131 86.1558 92.57 86.2421 92.5269C86.35 92.4623 86.4795 92.3976 86.6305 92.3114C86.9973 92.1175 87.4936 91.8805 88.0977 91.5788C89.3492 90.9539 91.0537 90.0704 92.9309 89.1008C94.8081 88.1311 96.5342 87.2477 97.7857 86.6659C98.4114 86.3642 98.9292 86.1272 99.2745 85.9763C99.4471 85.9117 99.5765 85.8471 99.6844 85.804C99.7923 85.7824 99.8355 85.7609 99.8355 85.7609Z" fill="#E0E0E0"/>
<path d="M2.26558 18.2512C2.26558 18.2512 -0.15101 18.833 1.76932 24.0476C3.66807 29.2407 5.11371 31.8911 5.11371 31.8911C5.11371 31.8911 5.41578 33.0762 4.44483 33.1408C3.47388 33.2055 1.40251 32.6021 0.819942 33.7226C0.237371 34.8862 0.970979 36.136 2.65396 37.3642C4.31537 38.5925 7.87553 41.3937 8.19918 41.6523C8.52283 41.9109 8.78175 42.4711 8.13445 42.6219C7.46557 42.7728 2.67554 42.6866 2.76185 44.9707C2.86973 47.2547 8.06972 49.8836 8.63071 50.1853C9.19171 50.4869 9.29959 50.7455 9.21328 51.0687C9.12698 51.3919 7.50872 51.198 6.14939 51.2411C4.79006 51.2842 3.19338 51.5428 3.36599 52.8572C3.53861 54.1716 6.42989 57.2314 14.1975 58.9553L17.844 59.5155L20.2174 56.6712C24.8996 50.2714 25.0722 46.0481 24.317 44.9707C23.5834 43.8717 22.2025 44.7121 21.1452 45.5955C20.0879 46.479 19.0091 47.6641 18.7286 47.4918C18.4481 47.3194 18.3618 47.0393 18.5776 46.4359C18.7933 45.8326 20.9726 40.424 19.5485 38.6356C18.1245 36.8471 14.5643 40.0793 13.9602 40.4025C13.356 40.7257 13.205 40.1224 13.2697 39.713C13.3344 39.3036 14.1543 34.8431 14.6075 32.8392C15.0606 30.8137 14.7801 29.3915 13.5718 28.8959C12.4066 28.4218 11.2415 30.2319 10.4647 30.8352C9.68797 31.4386 9.12698 30.3396 9.12698 30.3396C9.12698 30.3396 8.4581 27.4091 6.47304 22.2376C4.46641 17.0661 2.22243 18.2512 2.22243 18.2512" fill="#EBEBEB"/>
<path d="M17.9303 60.399C16.463 56.6065 14.0033 49.7974 11.8456 43.9795C9.68795 38.1615 7.74605 32.8823 6.30041 29.0898C5.58838 27.1936 5.0058 25.6422 4.59585 24.5863C4.40166 24.0476 4.25062 23.6382 4.14274 23.3581C4.09958 23.2288 4.05643 23.1211 4.03485 23.0349C4.01328 22.9702 3.9917 22.9271 3.9917 22.9271C3.9917 22.9271 4.01328 22.9702 4.03485 23.0349C4.05643 23.0995 4.09958 23.2072 4.16431 23.3581C4.2722 23.6382 4.44481 24.0476 4.639 24.5863C5.04896 25.6422 5.65311 27.1721 6.38671 29.0898C7.85393 32.8823 9.81741 38.1615 11.9751 43.9795C14.1328 49.7974 16.5925 56.6065 18.0381 60.4205" fill="#E0E0E0"/>
<path d="M3.68964 34.6708C3.68964 34.6708 3.77594 34.6923 3.92698 34.7785C4.07802 34.8432 4.31536 34.9509 4.57428 35.1017C5.1137 35.3819 5.86888 35.7913 6.66722 36.2438C7.46556 36.6963 8.19917 37.1057 8.73859 37.4289C8.99751 37.5798 9.1917 37.6875 9.36431 37.7737C9.51535 37.8599 9.60166 37.903 9.60166 37.903C9.60166 37.903 9.51535 37.8814 9.36431 37.7952C9.21327 37.7306 8.97593 37.6228 8.71701 37.472C8.17759 37.1919 7.44398 36.7825 6.62407 36.3084C5.82573 35.8559 5.09212 35.4465 4.53113 35.1448C4.27221 35.0155 4.07802 34.8863 3.9054 34.8001C3.75437 34.7139 3.68964 34.6708 3.68964 34.6708Z" fill="#E0E0E0"/>
<path d="M9.90377 37.7089C9.88219 37.6874 10.6374 36.1359 11.6083 34.2182C12.5793 32.3004 13.3992 30.7489 13.4208 30.7705C13.4424 30.792 12.6872 32.3435 11.7162 34.2828C10.7453 36.179 9.92535 37.7305 9.90377 37.7089Z" fill="#E0E0E0"/>
<path d="M12.795 46.8022C12.795 46.8022 12.8598 46.716 12.9677 46.5867C13.0971 46.4359 13.2697 46.2635 13.4639 46.048C13.8955 45.5955 14.478 44.9491 15.1038 44.238C15.7295 43.5269 16.2689 42.8374 16.6573 42.3633C16.8299 42.1263 17.0025 41.9324 17.1104 41.7815C17.2183 41.6522 17.283 41.566 17.283 41.566C17.283 41.566 17.2398 41.6522 17.132 41.8031C17.0241 41.9539 16.8946 42.1478 16.7004 42.4064C16.3336 42.902 15.7942 43.5915 15.1685 44.3026C14.5428 45.0353 13.9602 45.6601 13.5071 46.0911C13.2913 46.3066 13.0971 46.479 12.9677 46.6083C12.8814 46.7375 12.8166 46.8022 12.795 46.8022Z" fill="#E0E0E0"/>
<path d="M6.58087 45.2939C6.58087 45.2939 6.66718 45.2939 6.83979 45.337C7.01241 45.3801 7.24975 45.4232 7.50867 45.4663C8.06966 45.5956 8.84643 45.768 9.70949 45.9619C10.5726 46.1559 11.3493 46.3498 11.9103 46.4791C12.1692 46.5437 12.385 46.6084 12.5792 46.6515C12.7302 46.6946 12.8165 46.7161 12.8165 46.7377C12.8165 46.7377 12.7302 46.7377 12.5576 46.6946C12.385 46.6515 12.1477 46.6084 11.8887 46.5653C11.3277 46.436 10.551 46.2636 9.68792 46.0697C8.82485 45.8757 8.04809 45.6818 7.48709 45.5525C7.22817 45.4879 7.01241 45.4232 6.81822 45.3801C6.66718 45.3155 6.58087 45.2939 6.58087 45.2939Z" fill="#E0E0E0"/>
<path d="M8.13449 53.6328C8.13449 53.6328 8.24237 53.6328 8.45814 53.6759C8.6739 53.719 8.97598 53.7836 9.3212 53.8483C10.0548 53.9991 11.0473 54.2146 12.1478 54.4516C13.2482 54.6887 14.2407 54.9257 14.9743 55.0981C15.3195 55.1843 15.6 55.2489 15.8158 55.3136C16.01 55.3567 16.1179 55.3997 16.1179 55.3997C16.1179 55.3997 16.01 55.3997 15.7942 55.3566C15.5784 55.3136 15.2764 55.2489 14.9311 55.1843C14.1975 55.0334 13.205 54.818 12.1046 54.5809C11.0042 54.3439 10.0117 54.1069 9.27805 53.9345C8.93282 53.8483 8.65233 53.7837 8.43656 53.719C8.24237 53.6759 8.11291 53.6544 8.13449 53.6328Z" fill="#E0E0E0"/>
<path d="M15.9236 55.2922C15.9236 55.2922 15.9884 55.1844 16.1394 55.0336C16.2904 54.8612 16.5062 54.6026 16.7651 54.3225C17.283 53.7192 17.995 52.9003 18.7502 51.9522C19.5054 51.0257 20.1743 50.1422 20.6705 49.5173C20.9079 49.2156 21.1021 48.9571 21.2315 48.7631C21.361 48.5908 21.4473 48.483 21.4473 48.5046C21.4473 48.5046 21.3826 48.6123 21.2747 48.8062C21.1452 49.0002 20.9726 49.2587 20.7353 49.582C20.2821 50.2284 19.6133 51.0903 18.8365 52.0384C18.0813 52.9865 17.3477 53.8054 16.8083 54.3871C16.5494 54.6888 16.312 54.9043 16.161 55.0767C16.0315 55.2275 15.9452 55.3137 15.9236 55.2922Z" fill="#E0E0E0"/>
<path d="M95.628 96.6425C95.628 96.6641 74.8496 96.7072 49.2165 96.7072C23.5834 96.7072 2.80499 96.6856 2.80499 96.6425C2.80499 96.5994 23.5834 96.5779 49.2165 96.5779C74.8281 96.5994 95.628 96.621 95.628 96.6425Z" fill="#263238"/>
<path d="M85.5736 7.88672H79.3163C78.4748 7.88672 77.806 8.5978 77.806 9.48127V10.6233C77.806 11.5068 77.1155 12.2179 76.2956 12.2179H64.0832C63.2417 12.2179 62.5728 11.5068 62.5728 10.6233V9.48127C62.5728 8.5978 61.8824 7.88672 61.0624 7.88672H58.8616H53.3811C50.6625 7.88672 48.4616 10.0846 48.4616 12.7996L48.4401 91.7082C48.4401 94.4232 50.6409 96.6211 53.3596 96.6211L85.5736 96.6427C88.2923 96.6427 90.4931 94.4448 90.4931 91.7297L90.5147 12.8212C90.4931 10.1062 88.2923 7.88672 85.5736 7.88672Z" fill="white"/>
<path d="M85.5733 7.88654C85.5733 7.88654 85.638 7.88654 85.7459 7.88654C85.8538 7.88654 86.0264 7.88654 86.2421 7.92964C86.6737 7.97273 87.3425 8.12357 88.0977 8.57608C88.4645 8.79156 88.8529 9.09323 89.2197 9.48109C89.5865 9.86895 89.9102 10.3646 90.1475 10.9463C90.3849 11.5281 90.5143 12.2177 90.5143 12.9503C90.5143 13.6829 90.5143 14.4587 90.5143 15.2775C90.5143 21.8281 90.5143 31.3091 90.5359 43.0312C90.5359 54.7533 90.5359 68.6948 90.5359 84.1878C90.5359 86.1271 90.5359 88.088 90.5359 90.0704C90.5359 90.566 90.5359 91.0616 90.5359 91.5572C90.5359 92.0528 90.4927 92.5699 90.3417 93.0655C90.1907 93.5611 89.9965 94.0352 89.716 94.4446C89.4355 94.8756 89.0903 95.2634 88.6803 95.5866C87.882 96.2331 86.8679 96.6425 85.8322 96.6856C84.7965 96.7071 83.7824 96.6856 82.7467 96.7071C80.6753 96.7071 78.5824 96.7071 76.4679 96.7071C72.2388 96.7071 67.9451 96.7071 63.5866 96.7071C61.4073 96.7071 59.2065 96.7071 57.0057 96.7071C55.9053 96.7071 54.7833 96.7071 53.6829 96.7071C52.5609 96.7718 51.4173 96.4701 50.4679 95.8237C49.5401 95.1772 48.8281 94.2076 48.5045 93.1302C48.3318 92.5915 48.2887 92.0097 48.2887 91.471C48.2887 90.9107 48.2887 90.372 48.2887 89.8118C48.2887 87.6139 48.2887 85.416 48.2887 83.2397C48.2887 78.887 48.2887 74.599 48.2887 70.3756C48.2887 61.9503 48.2887 53.8052 48.2887 46.0695C48.2887 38.3122 48.2887 30.9644 48.2887 24.069C48.2887 20.6214 48.2887 17.303 48.2887 14.0923C48.2887 13.6829 48.2887 13.2951 48.2887 12.9072C48.2887 12.7133 48.3103 12.5193 48.3103 12.3039C48.3534 12.1099 48.3534 11.916 48.4182 11.7221C48.5908 10.9464 48.9576 10.2353 49.4538 9.63193C49.9501 9.05013 50.5974 8.57608 51.2879 8.27441C51.9783 7.95119 52.7335 7.84345 53.4671 7.865C54.9343 7.865 56.3584 7.865 57.7609 7.865C58.4513 7.865 59.1418 7.865 59.8322 7.865C60.1775 7.865 60.5011 7.865 60.8463 7.865C61.1916 7.84345 61.5368 7.95119 61.8173 8.14512C62.0978 8.33905 62.3136 8.61917 62.4214 8.94239C62.5509 9.26561 62.5077 9.58883 62.5293 9.91205C62.5293 10.0629 62.5293 10.2353 62.5293 10.3861C62.5293 10.5369 62.5293 10.7093 62.5509 10.8602C62.5941 11.1618 62.7235 11.4635 62.9177 11.679C63.1119 11.916 63.3924 12.0668 63.6729 12.153C63.8239 12.1961 63.9534 12.1961 64.126 12.1961C64.277 12.1961 64.4281 12.1961 64.5791 12.1961C65.1833 12.1961 65.7658 12.1961 66.3484 12.1961C68.6787 12.1961 70.8579 12.1961 72.843 12.1961C73.8355 12.1961 74.8065 12.1961 75.7127 12.1961C75.9285 12.1961 76.1658 12.1961 76.3816 12.1961C76.5973 12.1746 76.8131 12.0884 76.9857 11.9807C77.3525 11.7652 77.5899 11.3773 77.6762 10.9894C77.7193 10.7955 77.7193 10.6016 77.7193 10.3861C77.7193 10.1922 77.7193 9.99824 77.7193 9.80431C77.7193 9.61038 77.7193 9.41645 77.7409 9.22252C77.7625 9.02858 77.8272 8.8562 77.9351 8.70537C78.1077 8.38215 78.4098 8.14512 78.7119 8.01583C79.0355 7.865 79.3807 7.90809 79.6828 7.90809C80.9558 7.90809 82.0131 7.90809 82.8762 7.90809C83.7392 7.90809 84.3865 7.90809 84.8396 7.90809C85.3575 7.88654 85.5733 7.88654 85.5733 7.88654C85.5733 7.88654 85.3359 7.88654 84.9044 7.88654C84.4513 7.88654 83.804 7.88654 82.9409 7.88654C82.0778 7.88654 80.999 7.88654 79.7475 7.88654C79.4239 7.88654 79.1002 7.84345 78.7766 7.99428C78.4745 8.12357 78.194 8.3606 78.0214 8.66227C77.9351 8.8131 77.8704 8.98549 77.8488 9.17942C77.8056 9.3518 77.8272 9.54573 77.8272 9.73967C77.8272 9.9336 77.8272 10.1275 77.8272 10.3215C77.8272 10.5154 77.8272 10.7309 77.7841 10.9248C77.6978 11.3342 77.4388 11.7221 77.072 11.9591C76.8778 12.0668 76.6621 12.153 76.4463 12.1746C76.209 12.1961 75.9932 12.1746 75.7774 12.1746C74.8712 12.1746 73.9218 12.1746 72.9077 12.1746C70.9011 12.1746 68.7434 12.1746 66.4131 12.1746C65.8306 12.1746 65.248 12.1746 64.6438 12.1746C64.4928 12.1746 64.3418 12.1746 64.1907 12.1746C64.0397 12.1746 63.8887 12.1746 63.7376 12.1315C63.4355 12.0668 63.1551 11.8729 62.9393 11.6359C62.7235 11.3989 62.5941 11.0972 62.5509 10.774C62.5293 10.6016 62.5293 10.4507 62.5293 10.2999C62.5293 10.1491 62.5293 9.97669 62.5293 9.82586C62.5293 9.50264 62.5509 9.17942 62.443 8.87775C62.3351 8.57608 62.1409 8.3175 61.882 8.12357C61.6231 7.92964 61.2995 7.84345 60.9542 7.865C60.609 7.865 60.2853 7.865 59.9401 7.865C59.2712 7.865 58.5808 7.865 57.8688 7.865C56.4663 7.865 55.0422 7.865 53.575 7.865C52.8414 7.865 52.1078 7.97274 51.4173 8.27441C50.7484 8.57608 50.1227 9.02858 49.6265 9.61038C49.1302 10.1922 48.785 10.9033 48.6123 11.6574C48.5692 11.8514 48.5476 12.0453 48.5045 12.2392C48.5045 12.4332 48.4829 12.6271 48.4829 12.821C48.4829 13.2089 48.4829 13.6183 48.4829 14.0062C48.4829 17.1953 48.4829 20.5352 48.4829 23.9829C48.4829 30.8782 48.4829 38.226 48.4829 45.9833C48.4829 53.7405 48.4829 61.8641 48.4829 70.2894C48.4829 74.5128 48.4829 78.8008 48.4829 83.1535C48.4829 85.3298 48.4829 87.5277 48.4829 89.7256C48.4829 90.2858 48.4829 90.8245 48.4829 91.3848C48.4829 91.945 48.5045 92.4837 48.6771 93.0009C49.0007 94.0567 49.6696 95.0048 50.5758 95.6297C51.482 96.2546 52.604 96.5347 53.7044 96.4916C54.8264 96.4916 55.9268 96.4916 57.0273 96.4916C59.2281 96.4916 61.4289 96.4916 63.6082 96.4916C67.9667 96.4916 72.2604 96.4916 76.4895 96.4916C78.604 96.4916 80.6969 96.4916 82.7683 96.4916C83.804 96.4916 84.8396 96.5132 85.8538 96.4701C86.8679 96.427 87.8388 96.0176 88.6156 95.3927C89.004 95.0695 89.3276 94.7032 89.6081 94.2938C89.8886 93.8844 90.0828 93.4103 90.2122 92.9362C90.3633 92.4622 90.3849 91.9666 90.4064 91.471C90.4064 90.9754 90.4064 90.4798 90.4064 89.9842C90.4064 88.0018 90.4064 86.0409 90.4064 84.1016C90.4064 68.6086 90.428 54.6671 90.428 42.945C90.4496 31.223 90.4496 21.7419 90.4496 15.1913C90.4496 14.3725 90.4496 13.5967 90.4496 12.8641C90.4496 12.1315 90.3201 11.4635 90.0828 10.8817C89.8454 10.2999 89.5218 9.80431 89.155 9.41645C88.7882 9.02858 88.4214 8.72691 88.033 8.51143C87.2994 8.05893 86.6305 7.92964 86.199 7.865C85.9832 7.8219 85.8106 7.8219 85.7027 7.8219C85.638 7.90809 85.5733 7.88654 85.5733 7.88654Z" fill="#263238"/>
<path d="M56.4016 15.8593C56.4016 15.8809 55.5817 15.9024 54.5892 15.9024C53.5751 15.9024 52.7767 15.9024 52.7767 15.8809C52.7767 15.8593 53.5966 15.8378 54.5892 15.8378C55.5817 15.8378 56.4016 15.8378 56.4016 15.8593Z" fill="#263238"/>
<path d="M56.4232 16.786C56.4232 16.8075 55.6033 16.829 54.6107 16.829C53.5966 16.829 52.7983 16.829 52.7983 16.8075C52.7983 16.786 53.6182 16.7644 54.6107 16.7644C55.6033 16.7644 56.4232 16.7644 56.4232 16.786Z" fill="#263238"/>
<path d="M56.4232 17.7125C56.4232 17.734 55.6033 17.7556 54.6107 17.7556C53.5966 17.7556 52.7983 17.7556 52.7983 17.734C52.7983 17.7125 53.6182 17.6909 54.6107 17.6909C55.6033 17.6909 56.4232 17.6909 56.4232 17.7125Z" fill="#263238"/>
<path d="M68.3335 76.7107H52.1509V92.8716H68.3335V76.7107Z" fill="#F5F5F5"/>
<path d="M66.4347 85.9548C65.1186 84.1232 62.3136 82.8519 60.048 83.1967C58.214 83.4768 56.5742 84.3171 55.6895 86.1487C55.4306 86.6659 55.7543 87.2692 56.3368 87.3554C59.4007 87.7217 62.5078 87.7002 65.5717 87.3339C66.0464 87.2692 66.6073 87.1399 66.6289 86.5581C66.6505 86.3211 66.5642 86.1272 66.4347 85.9548Z" fill="#E8505B"/>
<g opacity="0.5">
<g opacity="0.5">
<path opacity="0.5" d="M66.4355 85.9548C65.1193 84.1232 62.3144 82.8519 60.0488 83.1967C58.2148 83.4768 56.575 84.3171 55.6903 86.1487" fill="white"/>
</g>
</g>
<path d="M59.1634 85.8685C59.1418 85.8685 59.0555 85.7824 58.9261 85.61C58.7966 85.4376 58.6456 85.179 58.5808 84.8558C58.5161 84.5326 58.5161 84.2309 58.5161 84.0154C58.5161 83.7999 58.5377 83.6707 58.5377 83.6707C58.5593 83.6707 58.5808 83.7999 58.5808 84.0154C58.6024 84.2309 58.6024 84.511 58.6887 84.8342C58.7535 85.1359 58.8829 85.3945 58.9908 85.5884C59.0987 85.7393 59.1634 85.847 59.1634 85.8685Z" fill="#F5F5F5"/>
<path d="M61.1053 85.7608C61.0621 85.7608 61.1269 85.2436 61.0621 84.5972C60.9974 83.9723 60.8464 83.4551 60.8679 83.4551C60.8895 83.4336 61.1053 83.9292 61.17 84.5756C61.2347 85.2436 61.1484 85.7823 61.1053 85.7608Z" fill="#F5F5F5"/>
<path d="M63.1335 85.4806C63.1119 85.4591 63.263 85.1143 63.2845 84.6618C63.3277 84.2093 63.2414 83.843 63.263 83.8214C63.2846 83.7999 63.4356 84.1877 63.3924 84.6618C63.3493 85.1358 63.1551 85.4806 63.1335 85.4806Z" fill="#F5F5F5"/>
<g opacity="0.3">
<g opacity="0.3">
<path opacity="0.3" d="M60.7601 83.2827C60.7601 83.2827 60.7819 83.3045 60.7819 83.3263L60.7601 83.2827Z" fill="black"/>
</g>
</g>
<path d="M68.5277 24.4139H52.1509V48.9355H68.5277V24.4139Z" fill="#F5F5F5"/>
<path d="M68.5277 50.7885H52.1509V75.31H68.5277V50.7885Z" fill="#F5F5F5"/>
<path d="M86.4794 46.1558H70.1027V69.0612H86.4794V46.1558Z" fill="#F5F5F5"/>
<path d="M86.3501 70.6771H69.9733V92.8715H86.3501V70.6771Z" fill="#F5F5F5"/>
<path d="M86.4794 24.4139H70.1027V44.669H86.4794V24.4139Z" fill="#F5F5F5"/>
<path d="M62.9191 31.7628V38.5504C62.9191 38.8521 62.6817 39.1538 62.2286 39.3908C61.7971 39.6278 61.1498 39.7786 60.3514 39.7786C58.7332 39.7786 57.7838 39.1538 57.7838 38.5504V31.7628C57.7838 31.7628 57.7838 31.7628 57.7838 31.7413C57.7838 31.0733 58.2801 30.3837 58.7763 29.6942C59.1 29.2417 59.1863 28.5737 59.2079 28.1859C59.2079 28.1428 59.2079 28.0997 59.2079 28.0566H59.1647C58.949 28.0566 58.7763 27.9057 58.7763 27.7333V27.4532C58.7763 27.2808 58.949 27.13 59.1647 27.13H61.5813C61.7324 27.13 61.8834 27.2162 61.9265 27.3239C61.9481 27.367 61.9481 27.4101 61.9481 27.4532V27.7333C61.9481 27.9057 61.7755 28.0566 61.5597 28.0566H61.5166C61.5166 28.0997 61.5166 28.1428 61.5166 28.1859C61.5382 28.5737 61.6029 29.2202 61.9481 29.6942C62.4228 30.3837 62.9191 31.0733 62.9191 31.7628C62.9191 31.7413 62.9191 31.7628 62.9191 31.7628Z" fill="#FAFAFA"/>
<path d="M62.9177 31.7617C62.9177 31.7617 62.9177 31.7402 62.9177 31.6971C62.9177 31.654 62.8961 31.5893 62.8961 31.5032C62.853 31.3308 62.7882 31.0722 62.6156 30.7705C62.443 30.4689 62.2057 30.1241 61.9252 29.7147C61.6231 29.3053 61.5152 28.7235 61.4936 28.0986V28.0555H61.5368C61.7094 28.077 61.9036 27.9693 61.9252 27.7969C61.9252 27.7107 61.9252 27.603 61.9252 27.5168C61.9252 27.4306 61.9036 27.3444 61.8173 27.2798C61.7526 27.2151 61.6447 27.1936 61.5584 27.1936C61.4505 27.1936 61.3426 27.1936 61.2347 27.1936C61.0189 27.1936 60.8032 27.1936 60.5874 27.1936C60.1343 27.1936 59.6812 27.1936 59.2065 27.1936C59.0986 27.1936 58.9907 27.2151 58.9044 27.3013C58.8613 27.3444 58.8397 27.3875 58.8397 27.4306C58.8397 27.4737 58.8397 27.5383 58.8397 27.603C58.8397 27.6676 58.8397 27.7323 58.8397 27.7754C58.8397 27.8185 58.8613 27.8831 58.9044 27.9047C58.9907 27.9908 59.0986 28.0124 59.2065 28.0124H59.2497V28.0555C59.2497 28.3356 59.2281 28.6157 59.1634 28.8743C59.0986 29.1544 59.0123 29.4346 58.8397 29.6716C58.5161 30.1456 58.1492 30.6197 57.9551 31.1799C57.9119 31.3092 57.8688 31.4601 57.8688 31.6109C57.8688 31.7617 57.8688 31.9126 57.8688 32.0634C57.8688 32.3651 57.8688 32.6883 57.8688 32.99C57.8688 33.6149 57.8688 34.2613 57.8688 34.9077C57.8688 36.0498 57.8688 37.1703 57.8688 38.2477C57.8688 38.377 57.8687 38.5278 57.8903 38.6355C57.9119 38.7648 57.9982 38.8726 58.0629 38.9587C58.2356 39.1527 58.4513 39.282 58.6887 39.3897C59.1634 39.5836 59.6596 39.6698 60.1559 39.6914C60.6521 39.7129 61.1268 39.6698 61.5799 39.5621C62.0331 39.4543 62.4646 39.2604 62.7451 38.9372C62.8098 38.851 62.8745 38.7648 62.8961 38.6786C62.9177 38.5924 62.9177 38.4847 62.9177 38.377C62.9177 38.1615 62.9177 37.946 62.9177 37.7521C62.9177 37.3426 62.9177 36.9548 62.9177 36.5669C62.9177 35.0801 62.9393 33.8734 62.9393 33.0115C62.9393 32.6021 62.9393 32.2789 62.9393 32.0419C62.9177 31.8695 62.9177 31.7617 62.9177 31.7617C62.9177 31.7617 62.9177 31.8695 62.9393 32.1065C62.9393 32.3435 62.9393 32.6667 62.9393 33.0762C62.9393 33.9165 62.9393 35.1232 62.9608 36.6316C62.9608 36.9979 62.9608 37.4073 62.9608 37.8167C62.9608 38.0106 62.9608 38.2261 62.9608 38.4416C62.9608 38.5493 62.9609 38.6571 62.9393 38.7648C62.8961 38.8726 62.853 38.9803 62.7667 39.0665C62.4646 39.4113 62.0115 39.6052 61.5584 39.7129C61.1053 39.8207 60.609 39.8638 60.1127 39.8422C59.6165 39.8207 59.0986 39.7345 58.6024 39.5405C58.365 39.4328 58.1277 39.3035 57.9335 39.088C57.8472 38.9803 57.7609 38.8726 57.7393 38.7217C57.7177 38.5709 57.7177 38.4416 57.7177 38.3123C57.7177 37.2349 57.7177 36.1144 57.7177 34.9724C57.7177 34.3259 57.7177 33.6795 57.7177 33.0546C57.7177 32.7314 57.7177 32.4297 57.7177 32.1281C57.7177 31.9772 57.7177 31.8264 57.7177 31.654C57.7393 31.5032 57.7609 31.3523 57.8256 31.2015C58.0414 30.6197 58.4082 30.1456 58.7318 29.6716C59.0339 29.1975 59.1202 28.6373 59.1418 28.0986L59.1849 28.1417C59.0555 28.1417 58.9044 28.0986 58.7965 27.9908C58.7534 27.9477 58.7102 27.8616 58.7102 27.7969C58.7102 27.7323 58.7102 27.6676 58.7102 27.603C58.7102 27.5383 58.7102 27.4952 58.7102 27.4091C58.7318 27.3444 58.7534 27.2798 58.7965 27.2151C58.8829 27.1074 59.0339 27.0643 59.1634 27.0858C59.638 27.0858 60.1127 27.0858 60.5443 27.0858C60.76 27.0858 60.9758 27.0858 61.1916 27.0858C61.2994 27.0858 61.4073 27.0858 61.5152 27.0858C61.6231 27.0858 61.7526 27.1074 61.8389 27.1936C61.9252 27.2582 61.9683 27.3875 61.9683 27.4952C61.9683 27.603 61.9683 27.6892 61.9683 27.7969C61.9252 28.0339 61.6878 28.1417 61.5152 28.1201L61.5584 28.077C61.5584 28.7019 61.6878 29.2622 61.9683 29.6716C62.2488 30.081 62.4862 30.4258 62.6588 30.7274C62.8314 31.0291 62.8961 31.2877 62.9177 31.4816C62.9393 31.5678 62.9393 31.6324 62.9393 31.6971C62.9177 31.7402 62.9177 31.7617 62.9177 31.7617Z" fill="#263238"/>
<path d="M61.3642 28.0555C61.3642 28.077 60.8895 28.1201 60.2853 28.1201C59.6812 28.1201 59.2065 28.0986 59.2065 28.0555C59.2065 28.0124 59.6812 27.9908 60.2853 27.9908C60.8895 28.0124 61.3642 28.0339 61.3642 28.0555Z" fill="#263238"/>
<path d="M62.702 32.6668C62.4862 32.516 62.2057 32.5806 61.9684 32.6883C61.731 32.7961 61.5152 32.9469 61.2563 32.99C60.9542 33.0331 60.6522 32.9254 60.3932 32.7745C60.1343 32.6237 59.8754 32.4298 59.5949 32.3436C59.0555 32.1496 58.4082 32.3005 57.9982 32.7314V38.5494C57.9982 38.5494 58.3219 39.5406 60.5659 39.3897C62.8314 39.2389 62.6372 38.2477 62.6372 38.2477L62.702 32.6668Z" fill="#E8505B"/>
<path d="M80.1368 78.9313C80.1368 78.9313 80.1584 78.9313 80.1368 78.9313V85.6758C80.1368 85.9774 79.8994 86.2791 79.4679 86.5161C79.0364 86.7532 78.3891 86.904 77.5907 86.904C75.9941 86.904 75.0447 86.2791 75.0447 85.6758V78.9313C75.0447 78.9313 75.0447 78.9313 75.0447 78.9097C75.0447 78.2417 75.5409 77.5522 76.0156 76.8842C76.3393 76.4317 76.4256 75.7853 76.4472 75.3974C76.4472 75.3543 76.4472 75.3112 76.4472 75.2681H76.3824C76.1667 75.2681 75.9941 75.1173 75.9941 74.9449V74.6648C75.9941 74.4924 76.1667 74.3416 76.3824 74.3416H78.7774C78.9285 74.3416 79.0795 74.4277 79.1227 74.5355C79.1443 74.5786 79.1442 74.6217 79.1442 74.6648V74.9449C79.1442 75.1173 78.9716 75.2681 78.7559 75.2681C78.7559 75.3112 78.7559 75.3543 78.7559 75.3974C78.7774 75.7853 78.8422 76.4317 79.1874 76.8842C79.6621 77.5737 80.1368 78.2633 80.1368 78.9313C80.1584 78.9313 80.1368 78.9313 80.1368 78.9313Z" fill="#FAFAFA"/>
<path d="M80.1359 78.9301C80.1359 78.9301 80.1359 78.9086 80.1359 78.8655C80.1359 78.8224 80.1143 78.7577 80.1143 78.6715C80.0711 78.4992 80.0064 78.2406 79.8338 77.9389C79.6612 77.6372 79.4238 77.2925 79.1433 76.9046C78.8628 76.4952 78.7334 75.9134 78.7118 75.2885V75.2454H78.755C78.9276 75.267 79.1218 75.1592 79.1433 74.9868C79.1433 74.9007 79.1433 74.7929 79.1433 74.7067C79.1433 74.6205 79.1218 74.5343 79.0355 74.4697C78.9707 74.4051 78.8628 74.3835 78.7765 74.3835C78.6687 74.3835 78.5608 74.3835 78.4529 74.3835C78.2371 74.3835 78.0214 74.3835 77.8056 74.3835C77.3525 74.3835 76.8994 74.3835 76.4247 74.3835C76.3168 74.3835 76.2089 74.4051 76.1226 74.4912C76.0794 74.5343 76.0579 74.5774 76.0579 74.6205C76.0579 74.6636 76.0579 74.7283 76.0579 74.7929C76.0579 74.8576 76.0579 74.9222 76.0579 74.9653C76.0579 75.0084 76.0794 75.073 76.1226 75.0946C76.1873 75.1808 76.3168 75.2023 76.4247 75.2023H76.4678V75.2454C76.4678 75.5255 76.4463 75.7841 76.3815 76.0642C76.3168 76.3444 76.2305 76.6245 76.0579 76.8615C75.7342 77.3356 75.3674 77.8096 75.1732 78.3483C75.1301 78.4776 75.0869 78.6284 75.0869 78.7793C75.0869 78.9301 75.0869 79.0809 75.0869 79.2318C75.0869 79.5335 75.0869 79.8567 75.0869 80.1583C75.0869 80.7832 75.0869 81.4297 75.0869 82.0761C75.0869 83.2181 75.0869 84.3171 75.0869 85.3945C75.0869 85.5238 75.0869 85.6746 75.1085 85.7823C75.1301 85.9116 75.1948 85.9978 75.2811 86.1056C75.4537 86.2995 75.6695 86.4288 75.9068 86.5365C76.3815 86.7305 76.8778 86.8166 77.3525 86.8382C77.8487 86.8597 78.3234 86.8166 78.7765 86.7089C79.2081 86.6012 79.6612 86.4072 79.9201 86.084C79.9848 85.9978 80.0496 85.9116 80.0711 85.8254C80.0927 85.7392 80.0927 85.6315 80.0927 85.5238C80.0927 85.3083 80.0927 85.1144 80.0927 84.8989C80.0927 84.4895 80.0927 84.1016 80.0927 83.7353C80.0927 82.2485 80.1143 81.0418 80.1143 80.2014C80.1143 79.792 80.1143 79.4688 80.1143 79.2533C80.1359 79.0378 80.1359 78.9301 80.1359 78.9301C80.1359 78.9301 80.1359 79.0378 80.1574 79.2533C80.1574 79.4688 80.1574 79.792 80.1574 80.2014C80.1574 81.0418 80.1574 82.2485 80.179 83.7353C80.179 84.1016 80.179 84.4895 80.179 84.8989C80.179 85.0928 80.179 85.3083 80.179 85.5238C80.179 85.6315 80.179 85.7393 80.1574 85.847C80.1143 85.9547 80.0711 86.0625 79.9848 86.1487C79.6828 86.4934 79.2296 86.6874 78.7765 86.7951C78.3234 86.9028 77.8272 86.9459 77.3309 86.9244C76.8346 86.9028 76.3168 86.8166 75.8421 86.6227C75.6048 86.515 75.3674 86.3857 75.1732 86.1702C75.0869 86.0625 75.0006 85.9547 74.979 85.8039C74.9575 85.6531 74.9575 85.5238 74.9575 85.3945C74.9575 84.3171 74.9575 83.2181 74.9575 82.0761C74.9575 81.4297 74.9575 80.7832 74.9575 80.1583C74.9575 79.8351 74.9575 79.5335 74.9575 79.2318C74.9575 79.0809 74.9575 78.9301 74.9575 78.7793C74.979 78.6284 75.0006 78.4776 75.0653 78.3268C75.2811 77.745 75.6479 77.2709 75.9716 76.7969C76.2736 76.3228 76.3599 75.7626 76.3815 75.2454L76.4247 75.2885C76.2952 75.2885 76.1442 75.2454 76.0363 75.1377C75.9931 75.0946 75.95 75.0084 75.95 74.9437C75.95 74.8791 75.95 74.8145 75.95 74.7498C75.95 74.6852 75.95 74.6421 75.95 74.5559C75.9716 74.4912 75.9931 74.4266 76.0363 74.362C76.1226 74.2542 76.2736 74.2327 76.4031 74.2327C76.8778 74.2327 77.3525 74.2327 77.784 74.2327C77.9998 74.2327 78.2155 74.2327 78.4313 74.2327C78.5392 74.2327 78.6471 74.2327 78.755 74.2327C78.8628 74.2327 78.9707 74.2542 79.057 74.3404C79.1433 74.405 79.1865 74.5343 79.1865 74.6421C79.1865 74.7498 79.1865 74.836 79.1865 74.9437C79.1433 75.1808 78.906 75.2885 78.7334 75.267L78.7765 75.2239C78.7765 75.8272 78.906 76.409 79.1865 76.7969C79.467 77.2063 79.7043 77.551 79.8769 77.8527C80.028 78.1544 80.1143 78.413 80.1359 78.5853C80.1574 78.6715 80.1574 78.7362 80.1574 78.7793C80.1574 78.9086 80.1574 78.9301 80.1359 78.9301Z" fill="#263238"/>
<path d="M78.6039 75.2669C78.6039 75.2885 78.1292 75.3316 77.5467 75.3316C76.9641 75.3316 76.4678 75.31 76.4678 75.2669C76.4678 75.2454 76.9425 75.2023 77.5467 75.2023C78.1292 75.2023 78.6039 75.2238 78.6039 75.2669Z" fill="#263238"/>
<path d="M79.9418 79.835C79.726 79.7058 79.4455 79.7488 79.2082 79.8566C78.9708 79.9643 78.755 80.1152 78.4961 80.1583C78.194 80.2014 77.892 80.0936 77.633 79.9428C77.3741 79.7919 77.1152 79.6196 76.8347 79.5118C76.2953 79.3179 75.648 79.4687 75.238 79.8781V85.6745C75.238 85.6745 75.5617 86.6657 77.8057 86.5149C80.0496 86.3641 79.877 85.3729 79.877 85.3729L79.9418 79.835Z" fill="#E8505B"/>
<g opacity="0.5">
<g opacity="0.5">
<path opacity="0.5" d="M79.9418 79.835C79.726 79.7058 79.4455 79.7488 79.2082 79.8566C78.9708 79.9643 78.755 80.1152 78.4961 80.1583C78.194 80.2014 77.892 80.0936 77.633 79.9428C77.3741 79.7919 77.1152 79.6196 76.8347 79.5118C76.2953 79.3179 75.648 79.4687 75.238 79.8781V85.6745C75.238 85.6745 75.5617 86.6657 77.8057 86.5149C80.0496 86.3641 79.877 85.3729 79.877 85.3729L79.9418 79.835Z" fill="white"/>
</g>
</g>
<path d="M83.6529 54.4302C83.5235 54.3655 83.3509 54.3871 83.1998 54.4733C83.1567 54.4948 83.1351 54.5164 83.0919 54.5379C82.121 55.2921 80.7832 55.7446 79.2944 55.7446C76.6405 55.7446 74.4397 54.2578 74.0513 52.3185V51.9522C74.0513 51.8013 73.9434 51.6936 73.7924 51.6936C73.6413 51.6936 73.5335 51.8013 73.5335 51.9522V52.9865C73.5335 53.008 73.5335 53.0296 73.555 53.0511C73.3824 53.4605 73.2745 53.8915 73.2745 54.3225C73.2745 56.5634 75.648 58.3735 78.5824 58.3735C81.0422 58.3735 83.1135 57.1021 83.7177 55.3568L83.7392 55.3352C83.804 55.1844 83.8471 55.012 83.8471 54.8827C83.8687 54.6888 83.804 54.5164 83.6529 54.4302Z" fill="#E8505B"/>
<g opacity="0.3">
<path opacity="0.3" d="M73.8787 53.3527C73.8787 53.3527 76.3816 59.106 83.1567 55.0765C83.1567 55.0765 81.409 56.8865 79.1434 57.3175C77.0721 57.7053 74.0082 56.5418 73.8787 53.3527Z" fill="black"/>
</g>
<path d="M83.8472 54.7102C83.804 54.818 83.653 54.8395 83.4804 54.7749C83.3293 54.7102 83.2214 54.5809 83.2646 54.4732C83.3077 54.3655 83.4588 54.3439 83.6314 54.4086C83.7824 54.4732 83.8903 54.624 83.8472 54.7102Z" fill="#263238"/>
<path d="M86.3716 17.6694C86.3716 17.6694 86.35 17.6694 86.3284 17.6694C86.2853 17.6694 86.2421 17.6694 86.1774 17.6694C86.0479 17.6694 85.8538 17.6694 85.6164 17.6694C85.1417 17.6694 84.4728 17.6694 83.7177 17.691H83.6961V17.6694C83.6745 17.5617 83.6745 17.454 83.6529 17.3462C83.5235 16.4197 83.394 15.6008 83.3293 15.0621H83.3509C83.1351 15.0621 82.9625 15.0621 82.833 15.0621C82.7683 15.0621 82.7251 15.0621 82.7035 15.0621C82.682 15.0621 82.6604 15.0621 82.6604 15.0621C82.6604 15.0621 82.682 15.0621 82.7035 15.0621C82.7467 15.0621 82.7899 15.0621 82.833 15.0621C82.9625 15.0621 83.1351 15.0621 83.3509 15.0621C83.4372 15.6008 83.545 16.4197 83.6961 17.3462C83.7177 17.454 83.7177 17.5617 83.7392 17.6694L83.7177 17.6479C84.4728 17.6479 85.1417 17.6479 85.6164 17.6479C85.8538 17.6479 86.0479 17.6479 86.1774 17.6479C86.2421 17.6479 86.2853 17.6479 86.3284 17.6479C86.35 17.6694 86.3716 17.6694 86.3716 17.6694Z" fill="#263238"/>
<path d="M83.6098 17.1306C83.6313 17.1306 83.6529 17.1306 83.6529 17.1306C83.6961 17.1306 83.7392 17.1306 83.8039 17.1306C83.9334 17.1306 84.1276 17.1306 84.3865 17.1306C84.8828 17.1306 85.5732 17.1306 86.3716 17.1091L86.35 17.1306C86.4147 16.8074 86.4579 16.4411 86.5226 16.0748C86.5658 15.8808 86.5873 15.6869 86.6089 15.5145L86.6305 15.5361C85.7027 15.5361 84.8828 15.5361 84.3002 15.5361C84.0197 15.5361 83.7824 15.5361 83.6098 15.5361C83.5234 15.5361 83.4587 15.5361 83.4156 15.5361C83.394 15.5361 83.3724 15.5361 83.3724 15.5361C83.3508 15.5361 83.3508 15.5361 83.3508 15.5361C83.3508 15.5361 83.3508 15.5361 83.3724 15.5361C83.394 15.5361 83.394 15.5361 83.4156 15.5361C83.4587 15.5361 83.5234 15.5361 83.6098 15.5361C83.7824 15.5361 83.9981 15.5361 84.3002 15.5361C84.8828 15.5361 85.7027 15.5145 86.6305 15.5145H86.6521V15.5361C86.6305 15.7085 86.5873 15.9024 86.5658 16.0963C86.501 16.4626 86.4363 16.8289 86.3931 17.1522V17.1737H86.3716C85.5732 17.1737 84.8828 17.1737 84.3865 17.1737C84.1492 17.1737 83.955 17.1737 83.8039 17.1737C83.7392 17.1737 83.6961 17.1737 83.6529 17.1737C83.6529 17.1522 83.6313 17.1522 83.6098 17.1306C83.6098 17.1522 83.6098 17.1306 83.6098 17.1306Z" fill="#263238"/>
<path d="M84.365 18.4235C84.365 18.4235 84.365 18.402 84.3434 18.3589C84.3218 18.3158 84.3002 18.2727 84.2355 18.2296C84.1708 18.1865 84.0845 18.1649 83.9982 18.208C83.9119 18.2296 83.8256 18.3373 83.8256 18.4451C83.8256 18.5528 83.9119 18.639 83.9982 18.6821C84.0845 18.7252 84.1708 18.6821 84.2355 18.639C84.3002 18.5959 84.3218 18.5313 84.3434 18.5097C84.365 18.4451 84.365 18.4235 84.365 18.4235C84.365 18.4235 84.365 18.4451 84.365 18.4882C84.365 18.5313 84.3218 18.5959 84.2787 18.639C84.2139 18.6821 84.1061 18.7252 84.0198 18.6821C83.9119 18.639 83.8256 18.5528 83.8256 18.4235C83.8256 18.2942 83.9119 18.1865 84.0198 18.1649C84.1276 18.1218 84.2355 18.1649 84.2787 18.208C84.3434 18.2511 84.365 18.3158 84.3866 18.3589C84.365 18.402 84.365 18.4235 84.365 18.4235Z" fill="#263238"/>
<path d="M86.0912 18.4019C86.0912 18.4019 86.0912 18.3804 86.0696 18.3373C86.048 18.2942 86.0264 18.2511 85.9617 18.208C85.897 18.1649 85.8107 18.1433 85.7244 18.1864C85.6381 18.208 85.5518 18.3157 85.5518 18.4235C85.5518 18.5312 85.6381 18.6174 85.7244 18.6605C85.8107 18.7036 85.897 18.6605 85.9617 18.6174C86.0264 18.5743 86.048 18.5097 86.0696 18.4881C86.0912 18.4235 86.0912 18.4019 86.0912 18.4019C86.0912 18.4019 86.0912 18.4235 86.0912 18.4666C86.0912 18.5097 86.048 18.5743 86.0049 18.6174C85.9401 18.6605 85.8323 18.7036 85.7459 18.6605C85.6381 18.6174 85.5518 18.5312 85.5518 18.4019C85.5518 18.2726 85.6381 18.1649 85.7459 18.1433C85.8538 18.1002 85.9617 18.1433 86.0049 18.1864C86.0696 18.2295 86.0912 18.2942 86.1128 18.3373C86.0912 18.3804 86.0912 18.4019 86.0912 18.4019Z" fill="#263238"/>
<path d="M86.6622 15.9678C87.0699 15.8799 87.329 15.4786 87.241 15.0714C87.153 14.6643 86.7512 14.4054 86.3435 14.4933C85.9358 14.5812 85.6766 14.9825 85.7646 15.3897C85.8526 15.7968 86.2545 16.0556 86.6622 15.9678Z" fill="#E8505B"/>
<path d="M86.5874 14.9327V15.5145H86.4579V15.0405H86.35V14.9327H86.5874Z" fill="white"/>
<path d="M80.589 92.8931H58.3003C56.6388 92.8931 55.3011 91.5572 55.3011 89.898V88.4543C55.3011 86.7951 56.6388 85.4591 58.3003 85.4591H80.6106C82.272 85.4591 83.6097 86.7951 83.6097 88.4543V89.898C83.5882 91.5356 82.2504 92.8931 80.589 92.8931Z" fill="#828C9F"/>
<g opacity="0.3">
<g opacity="0.3">
<path opacity="0.3" d="M80.589 92.8931H58.3003C56.6388 92.8931 55.3011 91.5572 55.3011 89.898V88.4543C55.3011 86.7951 56.6388 85.4591 58.3003 85.4591H80.6106C82.272 85.4591 83.6097 86.7951 83.6097 88.4543V89.898C83.5882 91.5356 82.2504 92.8931 80.589 92.8931Z" fill="black"/>
</g>
</g>
<path d="M79.5102 92.8931H57.1999C55.5385 92.8931 54.2007 91.5572 54.2007 89.898V88.4543C54.2007 86.7951 55.5385 85.4591 57.1999 85.4591H79.5102C81.1716 85.4591 82.5094 86.7951 82.5094 88.4543V89.898C82.4878 91.5356 81.1501 92.8931 79.5102 92.8931Z" fill="#BABABA"/>
<path d="M67.492 88.7777C67.492 89.1655 67.2115 89.381 66.7584 89.381H66.3268V89.9197H66.0679V88.1743H66.7584C67.2331 88.1528 67.492 88.3898 67.492 88.7777ZM67.2547 88.7777C67.2547 88.5191 67.082 88.3898 66.7584 88.3898H66.3268V89.1871H66.7584C67.082 89.1655 67.2547 89.0147 67.2547 88.7777Z" fill="black"/>
<path d="M68.8944 89.4671H67.9666L67.7724 89.8981H67.5135L68.3118 88.1527H68.5707L69.3691 89.8981H69.1102L68.8944 89.4671ZM68.8081 89.2732L68.4197 88.4113L68.0313 89.2732H68.8081Z" fill="black"/>
<path d="M70.1891 89.2947V89.8981H69.9301V89.2947L69.2397 88.1527H69.4986L70.0596 89.0793L70.6206 88.1527H70.8795L70.1891 89.2947Z" fill="black"/>
<path d="M60.8895 59.149C61.019 58.3302 60.8032 57.4467 60.307 56.7787C59.8107 56.1107 59.0339 55.6367 58.214 55.5289C58.1277 55.5074 58.0414 55.5074 57.9767 55.5505C57.8904 55.6151 57.8904 55.7444 57.8904 55.8521C57.9551 56.6494 58.3003 57.4251 58.8398 58.0285C59.3792 58.6318 60.0912 59.0628 60.8895 59.2352" fill="#455A64"/>
<path d="M56.4447 64.9885C57.243 66.6262 58.3866 67.7467 59.8322 67.7898C60.1127 67.7898 60.3285 67.6174 60.609 67.5958C60.7384 67.5958 60.9111 67.7036 61.0621 67.7682C61.1484 67.7898 61.2347 67.8329 61.2994 67.8113C62.7667 67.7251 64.0181 66.6908 64.8812 64.967C66.0679 62.5536 65.7011 59.9463 64.0613 59.1491C63.8239 59.0413 63.6081 58.9551 63.3924 58.8905C63.1335 58.8258 62.8745 58.7827 62.594 58.8043C62.0978 58.8043 61.5152 58.9551 60.7384 59.2137C60.7169 59.2137 60.6953 59.2352 60.6521 59.2352C59.336 58.6534 58.2787 58.6534 57.243 59.1491C55.6248 59.9679 55.258 62.5752 56.4447 64.9885Z" fill="#E8505B"/>
<path d="M56.4663 62.5321C56.4663 62.5321 56.38 62.3597 56.3368 62.0365C56.2937 61.7348 56.3152 61.2823 56.4879 60.8298C56.6605 60.3773 56.941 60.0325 57.1567 59.817C57.3941 59.6015 57.5667 59.5154 57.5667 59.5369C57.5883 59.5585 57.4157 59.6662 57.1999 59.8817C56.9841 60.0971 56.7252 60.4419 56.5742 60.8729C56.4231 61.3038 56.38 61.7348 56.4015 62.0365C56.4447 62.3381 56.4879 62.5321 56.4663 62.5321Z" fill="#FAFAFA"/>
<path d="M56.7683 63.6957C56.7467 63.6957 56.682 63.5879 56.6604 63.4371C56.6173 63.2863 56.6173 63.157 56.6604 63.157C56.682 63.157 56.7467 63.2647 56.7683 63.4156C56.7899 63.5448 56.8115 63.6741 56.7683 63.6957Z" fill="#FAFAFA"/>
<path d="M64.2555 55.1842C64.2555 55.2058 63.9534 55.3135 63.5003 55.5936C63.2629 55.7229 63.004 55.9169 62.7451 56.1323C62.4862 56.3694 62.2057 56.6279 61.9468 56.9512C61.6878 57.2744 61.4721 57.5976 61.2995 57.8993C61.1268 58.2009 60.9974 58.5026 60.9111 58.7612C60.7385 59.2568 60.6737 59.6016 60.6522 59.58C60.6522 59.58 60.6522 59.4938 60.6737 59.343C60.6737 59.2783 60.6953 59.1706 60.7385 59.0844C60.76 58.9767 60.7816 58.8689 60.8463 58.7396C60.9327 58.4811 61.0405 58.1794 61.2132 57.8562C61.3858 57.533 61.6015 57.2097 61.8605 56.8865C62.1194 56.5633 62.3999 56.3047 62.6804 56.0677C62.9609 55.8522 63.2198 55.6583 63.4571 55.529C63.565 55.4644 63.6945 55.4213 63.7808 55.3566C63.8671 55.3135 63.9534 55.2704 64.0397 55.2489C64.1692 55.1842 64.2555 55.1627 64.2555 55.1842Z" fill="#263238"/>
<path d="M84.2355 32.6236C82.9193 30.792 80.1143 29.5207 77.8488 29.8655C76.0147 30.1456 74.3749 30.986 73.4903 32.8175C73.2313 33.3347 73.555 33.938 74.1376 34.0242C77.2015 34.3905 80.3085 34.369 83.3724 34.0027C83.8471 33.938 84.4081 33.8087 84.4297 33.227C84.4512 33.0115 84.3649 32.796 84.2355 32.6236Z" fill="#E8505B"/>
<path d="M76.9642 32.5372C76.9426 32.5372 76.8563 32.4511 76.7269 32.2787C76.5974 32.1063 76.4464 31.8477 76.3816 31.5245C76.3169 31.2013 76.3169 30.8996 76.3169 30.6841C76.3169 30.4686 76.3385 30.3394 76.3385 30.3394C76.36 30.3394 76.3816 30.4686 76.3816 30.6841C76.4032 30.8996 76.4032 31.1797 76.4895 31.5029C76.5542 31.8046 76.6837 32.0632 76.7916 32.2571C76.8995 32.408 76.9642 32.5157 76.9642 32.5372Z" fill="#263238"/>
<path d="M78.906 32.4511C78.8628 32.4511 78.9276 31.9339 78.8628 31.2875C78.7981 30.6626 78.6471 30.1455 78.6687 30.1455C78.6902 30.1239 78.906 30.6195 78.9707 31.2659C79.0355 31.9339 78.9276 32.4511 78.906 32.4511Z" fill="#263238"/>
<path d="M80.9342 32.1494C80.9127 32.1279 81.0637 31.7831 81.0853 31.3306C81.1284 30.8781 81.0421 30.5118 81.0637 30.4902C81.0853 30.4687 81.2363 30.8566 81.1931 31.3306C81.15 31.8262 80.9558 32.171 80.9342 32.1494Z" fill="#263238"/>
<g opacity="0.3">
<g opacity="0.3">
<path opacity="0.3" d="M78.5397 29.9517C78.5397 29.9517 78.5615 29.9734 78.5615 29.9952L78.5397 29.9517Z" fill="black"/>
</g>
</g>
<g opacity="0.3">
<g opacity="0.3">
<path opacity="0.3" d="M78.5608 29.9952C78.1724 30.6632 78.2156 31.6113 78.8844 32.3009C79.0786 31.5467 78.9708 30.6632 78.5608 29.9952Z" fill="black"/>
</g>
</g>
<g opacity="0.3">
<g opacity="0.3">
<path opacity="0.3" d="M76.6837 32.2143C76.4679 31.8479 76.3385 31.417 76.3169 30.986C76.2953 30.7921 76.2953 30.5982 76.2306 30.4258C76.0148 30.7059 75.8853 31.0722 75.9285 31.417C75.9501 31.7833 76.1443 32.1496 76.4248 32.3866C76.4679 32.4297 76.5111 32.4513 76.5758 32.4728C76.6405 32.4944 76.7053 32.4728 76.7268 32.4082C76.77 32.3651 76.7268 32.2789 76.6837 32.2143Z" fill="black"/>
</g>
</g>
<g opacity="0.3">
<g opacity="0.3">
<path opacity="0.3" d="M81.1069 30.6626C81.0853 30.5979 81.0853 30.5117 81.0422 30.4471C80.999 30.3825 80.9343 30.3394 80.848 30.3394C80.7401 30.3609 80.6969 30.4686 80.6754 30.5764C80.5459 31.0073 80.4164 31.4814 80.5243 31.9124C80.5459 32.0201 80.6106 32.1278 80.7185 32.1278C80.8048 32.1278 80.848 32.0416 80.8911 31.977C81.1069 31.546 81.15 31.1582 81.1069 30.6626Z" fill="black"/>
</g>
</g>
<path d="M55.9916 44.4535V44.6474H55.8406V44.4535C55.6679 44.4319 55.4953 44.3888 55.3875 44.3027L55.4738 44.1303C55.5601 44.1949 55.6895 44.2596 55.8406 44.2596V43.8932C55.6464 43.8501 55.4306 43.7855 55.4306 43.5269C55.4306 43.333 55.5601 43.1822 55.8406 43.1606V42.9667H55.9916V43.1606C56.1211 43.1606 56.2505 43.2037 56.3584 43.2683L56.2937 43.4407C56.2074 43.3761 56.0995 43.3545 55.9916 43.333V43.6993C56.1858 43.7424 56.4016 43.807 56.4016 44.0656C56.4231 44.2811 56.2721 44.4319 55.9916 44.4535ZM55.8406 43.6993V43.3761C55.7111 43.3976 55.6679 43.4623 55.6679 43.5485C55.6679 43.6131 55.7327 43.6562 55.8406 43.6993ZM56.1858 44.1087C56.1858 44.0225 56.0995 43.9794 55.9916 43.9579V44.2811C56.1211 44.238 56.1858 44.1734 56.1858 44.1087Z" fill="#263238"/>
<path d="M57.502 43.1821V44.4535H57.2647V43.3761H57.0057V43.1821H57.502Z" fill="#263238"/>
<path d="M58.0414 44.3026C58.0414 44.3457 58.0414 44.3672 57.9982 44.4534L57.9119 44.712H57.7609L57.8256 44.4319C57.7825 44.4103 57.7393 44.3672 57.7393 44.3026C57.7393 44.2164 57.804 44.1517 57.8904 44.1517C57.9767 44.1517 58.0414 44.2164 58.0414 44.3026Z" fill="#263238"/>
<path d="M59.0986 44.0657C59.0986 44.2811 58.9476 44.4751 58.6024 44.4751C58.4298 44.4751 58.2356 44.4104 58.1277 44.3242L58.2356 44.1518C58.3219 44.238 58.4729 44.2811 58.6024 44.2811C58.775 44.2811 58.8613 44.2165 58.8613 44.0872C58.8613 43.9579 58.775 43.8933 58.5161 43.8933H58.214L58.2787 43.2037H59.0123V43.3977H58.4729L58.4513 43.6993H58.5808C58.9476 43.6778 59.0986 43.8286 59.0986 44.0657Z" fill="#263238"/>
<path d="M59.2497 43.807C59.2497 43.3976 59.487 43.1605 59.7675 43.1605C60.0696 43.1605 60.3069 43.3976 60.3069 43.807C60.3069 44.2164 60.0696 44.4534 59.7675 44.4534C59.4655 44.4749 59.2497 44.2379 59.2497 43.807ZM60.0696 43.807C60.0696 43.5053 59.9401 43.3545 59.7675 43.3545C59.5949 43.3545 59.487 43.5053 59.487 43.807C59.487 44.1086 59.6165 44.2595 59.7675 44.2595C59.9401 44.2595 60.0696 44.1302 60.0696 43.807Z" fill="#263238"/>
<path d="M65.5285 46.048C65.5285 46.0696 63.1982 46.1127 60.3501 46.1127C57.4804 46.1127 55.1717 46.0911 55.1717 46.048C55.1717 46.0265 57.502 45.9834 60.3501 45.9834C63.2198 46.0049 65.5285 46.0265 65.5285 46.048Z" fill="#263238"/>
<path d="M60.0049 46.9099C60.0049 46.9314 58.926 46.9745 57.5883 46.9745C56.2505 46.9745 55.1717 46.953 55.1717 46.9099C55.1717 46.8883 56.2505 46.8452 57.5883 46.8452C58.926 46.8452 60.0049 46.8668 60.0049 46.9099Z" fill="#263238"/>
<path d="M74.1591 39.3035V39.4974H74.0081V39.3035C73.8355 39.2819 73.6629 39.2388 73.555 39.1526L73.6413 38.9802C73.7276 39.0449 73.8571 39.1095 74.0081 39.1095V38.7432C73.8139 38.7001 73.5981 38.6355 73.5981 38.3769C73.5981 38.183 73.7276 38.0321 74.0081 38.0106V37.8167H74.1591V38.0106C74.2886 38.0106 74.4181 38.0537 74.5259 38.1183L74.4612 38.2907C74.3749 38.2261 74.267 38.2045 74.1591 38.183V38.5493C74.3533 38.5924 74.5691 38.657 74.5691 38.9156C74.5691 39.1095 74.4396 39.2604 74.1591 39.3035ZM74.0081 38.5277V38.2045C73.8786 38.2261 73.8355 38.2907 73.8355 38.3769C73.8139 38.4631 73.9002 38.4846 74.0081 38.5277ZM74.3533 38.9371C74.3533 38.851 74.267 38.8079 74.1591 38.7863V39.1095C74.2886 39.088 74.3533 39.0233 74.3533 38.9371Z" fill="#263238"/>
<path d="M76.1442 39.0879V39.2818H75.2164V39.131L75.7127 38.6569C75.8421 38.5492 75.8637 38.463 75.8637 38.3984C75.8637 38.2906 75.7774 38.226 75.6264 38.226C75.4969 38.226 75.4106 38.2691 75.3243 38.3553L75.1517 38.226C75.2596 38.0967 75.4322 38.0105 75.6264 38.0105C75.9069 38.0105 76.0795 38.1398 76.0795 38.3768C76.0795 38.5061 76.0363 38.6138 75.8637 38.7862L75.5185 39.1094H76.1442V39.0879Z" fill="#263238"/>
<path d="M76.5757 39.1525C76.5757 39.1956 76.5757 39.2172 76.5325 39.3034L76.4462 39.562H76.2952L76.3599 39.2818C76.3168 39.2603 76.2736 39.2172 76.2736 39.1525C76.2736 39.0664 76.3384 39.0017 76.4247 39.0017C76.511 39.0017 76.5757 39.0448 76.5757 39.1525Z" fill="#263238"/>
<path d="M77.6546 39.0879V39.2818H76.7268V39.131L77.223 38.6569C77.3525 38.5492 77.3741 38.463 77.3741 38.3984C77.3741 38.2906 77.2878 38.226 77.1367 38.226C77.0073 38.226 76.921 38.2691 76.8347 38.3553L76.662 38.226C76.7699 38.0967 76.9425 38.0105 77.1367 38.0105C77.4172 38.0105 77.5898 38.1398 77.5898 38.3768C77.5898 38.5061 77.5467 38.6138 77.3741 38.7862L77.0289 39.1094H77.6546V39.0879Z" fill="#263238"/>
<path d="M78.7118 38.894C78.7118 39.1095 78.5608 39.3034 78.2155 39.3034C78.0429 39.3034 77.8487 39.2388 77.7408 39.1526L77.8487 38.9802C77.935 39.0664 78.0861 39.1095 78.2155 39.1095C78.3882 39.1095 78.4745 39.0449 78.4745 38.9156C78.4745 38.7863 78.3882 38.7216 78.1292 38.7216H77.8272L77.8919 38.0321H78.6255V38.226H78.1077L78.0861 38.5277H78.2155C78.5608 38.5062 78.7118 38.6785 78.7118 38.894Z" fill="#263238"/>
<path d="M83.6961 40.8979C83.6961 40.9194 81.3658 40.9625 78.5176 40.9625C75.6479 40.9625 73.3392 40.941 73.3392 40.8979C73.3392 40.8548 75.6695 40.8333 78.5176 40.8333C81.3658 40.8333 83.6961 40.8548 83.6961 40.8979Z" fill="#263238"/>
<path d="M78.1509 41.7385C78.1509 41.76 77.072 41.8031 75.7343 41.8031C74.3965 41.8031 73.3177 41.7816 73.3177 41.7385C73.3177 41.6954 74.3965 41.6738 75.7343 41.6738C77.072 41.6738 78.1509 41.6954 78.1509 41.7385Z" fill="#263238"/>
<path d="M55.5816 70.6772V70.8712H55.4306V70.6772C55.258 70.6772 55.0854 70.6126 54.9775 70.5264L55.0638 70.354C55.1501 70.4187 55.2795 70.4833 55.4306 70.4833V70.117C55.2364 70.0739 55.0206 70.0092 55.0206 69.7507C55.0206 69.5567 55.1501 69.4059 55.4306 69.3844V69.1904H55.5816V69.3844C55.7111 69.3844 55.8405 69.4275 55.9484 69.4921L55.8837 69.6645C55.7974 69.5998 55.6895 69.5783 55.5816 69.5567V69.9231C55.7758 69.9662 55.9916 70.0308 55.9916 70.2894C55.9916 70.5049 55.8621 70.6557 55.5816 70.6772ZM55.4306 69.9231V69.5998C55.3011 69.6214 55.258 69.686 55.258 69.7722C55.258 69.8369 55.3227 69.88 55.4306 69.9231ZM55.7758 70.3325C55.7758 70.2463 55.6895 70.2032 55.5816 70.1816V70.5049C55.7111 70.4618 55.7758 70.4187 55.7758 70.3325Z" fill="#263238"/>
<path d="M56.6389 70.0308C56.6389 69.6214 56.8762 69.3844 57.1567 69.3844C57.4588 69.3844 57.6961 69.6214 57.6961 70.0308C57.6961 70.4402 57.4588 70.6773 57.1567 70.6773C56.8762 70.6988 56.6389 70.4618 56.6389 70.0308ZM57.4588 70.0308C57.4588 69.7292 57.3293 69.5783 57.1567 69.5783C56.9841 69.5783 56.8762 69.7292 56.8762 70.0308C56.8762 70.3325 57.0057 70.4833 57.1567 70.4833C57.3509 70.4833 57.4588 70.3541 57.4588 70.0308Z" fill="#263238"/>
<path d="M58.1277 70.5264C58.1277 70.5695 58.1277 70.5911 58.0845 70.6773L57.9982 70.9359H57.8472L57.9119 70.6557C57.8688 70.6342 57.8256 70.5911 57.8256 70.5264C57.8256 70.4402 57.8904 70.3756 57.9767 70.3756C58.063 70.3756 58.1277 70.4402 58.1277 70.5264Z" fill="#263238"/>
<path d="M59.2065 70.2895C59.2065 70.505 59.0555 70.6989 58.7102 70.6989C58.5376 70.6989 58.3434 70.6343 58.2355 70.5481L58.3434 70.3757C58.4297 70.4619 58.5808 70.505 58.7102 70.505C58.8828 70.505 58.9691 70.4404 58.9691 70.3111C58.9691 70.1818 58.8828 70.1171 58.6239 70.1171H58.3218L58.3866 69.4276H59.1202V69.6215H58.5808L58.5592 69.9232H58.6886C59.0555 69.9017 59.2065 70.0525 59.2065 70.2895Z" fill="#263238"/>
<path d="M59.336 70.0308C59.336 69.6214 59.5733 69.3844 59.8538 69.3844C60.1559 69.3844 60.3933 69.6214 60.3933 70.0308C60.3933 70.4402 60.1559 70.6773 59.8538 70.6773C59.5733 70.6988 59.336 70.4618 59.336 70.0308ZM60.1559 70.0308C60.1559 69.7292 60.0264 69.5783 59.8538 69.5783C59.6812 69.5783 59.5733 69.7292 59.5733 70.0308C59.5733 70.3325 59.7028 70.4833 59.8538 70.4833C60.0264 70.4833 60.1559 70.3541 60.1559 70.0308Z" fill="#263238"/>
<path d="M65.1185 72.2718C65.1185 72.2933 62.7883 72.3364 59.9401 72.3364C57.0704 72.3364 54.7617 72.3149 54.7617 72.2718C54.7617 72.2287 57.092 72.2072 59.9401 72.2072C62.7883 72.2287 65.1185 72.2502 65.1185 72.2718Z" fill="#263238"/>
<path d="M59.5733 73.1337C59.5733 73.1553 58.4945 73.1984 57.1568 73.1984C55.819 73.1984 54.7402 73.1768 54.7402 73.1337C54.7402 73.0906 55.819 73.0691 57.1568 73.0691C58.4945 73.0691 59.5733 73.0906 59.5733 73.1337Z" fill="#263238"/>
<path d="M73.3176 63.8467V64.0406H73.1666V63.8467C72.994 63.8467 72.8214 63.782 72.7135 63.6958L72.7998 63.5235C72.8861 63.5881 73.0156 63.6527 73.1666 63.6527V63.2864C72.9724 63.2433 72.7567 63.1787 72.7567 62.9201C72.7567 62.7262 72.8861 62.5753 73.1666 62.5538V62.3599H73.3176V62.5538C73.4471 62.5538 73.5766 62.5969 73.6845 62.6615L73.6197 62.8339C73.5334 62.7693 73.4255 62.7477 73.3176 62.7262V63.0925C73.5118 63.1356 73.7276 63.2002 73.7276 63.4588C73.7276 63.6527 73.5981 63.8251 73.3176 63.8467ZM73.1666 63.071V62.7477C73.0372 62.7693 72.994 62.8339 72.994 62.9201C72.994 63.0063 73.0587 63.0494 73.1666 63.071ZM73.5118 63.5019C73.5118 63.4157 73.4255 63.3726 73.3176 63.3511V63.6743C73.4471 63.6312 73.5118 63.5666 73.5118 63.5019Z" fill="#263238"/>
<path d="M74.8064 62.5753V63.8466H74.5691V62.7692H74.3102V62.5753H74.8064Z" fill="#263238"/>
<path d="M75.3459 63.6959C75.3459 63.739 75.3459 63.7605 75.3027 63.8467L75.2164 64.1053H75.0654L75.1301 63.8252C75.087 63.8036 75.0438 63.7605 75.0438 63.6959C75.0438 63.6097 75.1086 63.545 75.1949 63.545C75.3027 63.545 75.3459 63.6097 75.3459 63.6959Z" fill="#263238"/>
<path d="M75.4753 63.2001C75.4753 62.7907 75.7127 62.5537 75.9932 62.5537C76.2953 62.5537 76.5326 62.7907 76.5326 63.2001C76.5326 63.6096 76.2953 63.8466 75.9932 63.8466C75.7127 63.8466 75.4753 63.6096 75.4753 63.2001ZM76.3168 63.2001C76.3168 62.8985 76.1874 62.7476 76.0148 62.7476C75.8421 62.7476 75.7343 62.8985 75.7343 63.2001C75.7343 63.5018 75.8637 63.6527 76.0148 63.6527C76.1874 63.6527 76.3168 63.5018 76.3168 63.2001Z" fill="#263238"/>
<path d="M76.7052 63.2001C76.7052 62.7907 76.9425 62.5537 77.223 62.5537C77.5251 62.5537 77.7625 62.7907 77.7625 63.2001C77.7625 63.6096 77.5251 63.8466 77.223 63.8466C76.921 63.8466 76.7052 63.6096 76.7052 63.2001ZM77.5251 63.2001C77.5251 62.8985 77.3957 62.7476 77.223 62.7476C77.0504 62.7476 76.9425 62.8985 76.9425 63.2001C76.9425 63.5018 77.072 63.6527 77.223 63.6527C77.3957 63.6527 77.5251 63.5018 77.5251 63.2001Z" fill="#263238"/>
<path d="M82.8546 65.4411C82.8546 65.4627 80.5243 65.5058 77.6762 65.5058C74.8065 65.5058 72.4977 65.4842 72.4977 65.4411C72.4977 65.398 74.828 65.3765 77.6762 65.3765C80.5243 65.398 82.8546 65.4196 82.8546 65.4411Z" fill="#263238"/>
<path d="M77.3094 66.2814C77.3094 66.303 76.2305 66.3461 74.8928 66.3461C73.555 66.3461 72.4762 66.3245 72.4762 66.2814C72.4762 66.2599 73.555 66.2168 74.8928 66.2168C76.2305 66.2383 77.3094 66.2599 77.3094 66.2814Z" fill="#263238"/>
<path d="M75.0438 17.1523C75.0438 17.1738 72.5409 17.2169 69.4554 17.2169C66.37 17.2169 63.8671 17.1954 63.8671 17.1523C63.8671 17.1092 66.37 17.0876 69.4554 17.0876C72.5409 17.0876 75.0438 17.1092 75.0438 17.1523Z" fill="#E8505B"/>
<path d="M2.28717 84.0585C2.28717 84.0585 1.16518 84.0585 0.884679 85.2436C0.604182 86.4287 0.561029 86.8597 0.561029 86.8597C0.561029 86.8597 -0.711997 88.0017 0.561029 88.3034C1.83405 88.6051 2.28717 86.9028 2.28717 86.9028L2.48136 84.0585C2.28717 84.0585 2.28717 84.0585 2.28717 84.0585Z" fill="#FFBE9D"/>
<path d="M14.9743 62.2734C14.9743 62.2734 18.9228 48.9998 19.3328 48.4396C20.0017 47.4915 26.41 44.6472 26.41 44.6472L28.1361 41.1564L38.795 39.4541L41.4274 42.8371L48.8497 48.2672L48.3319 67.0355L48.0514 80.1366L49.4539 96.4915L15.7511 96.4699L17.283 93.0223L18.8797 63.2646L14.9743 62.2734Z" fill="#99756D"/>
<path d="M19.5486 60.4849C19.5486 60.4849 19.5486 60.4418 19.527 60.3772C19.527 60.291 19.527 60.1833 19.5054 60.0755C19.4838 59.8169 19.4838 59.4291 19.4838 58.9335C19.4623 57.9854 19.4623 56.6494 19.5054 55.2057C19.5486 53.7404 19.6349 52.426 19.6996 51.4779C19.7428 51.0038 19.7643 50.616 19.8075 50.3574C19.8291 50.2281 19.8291 50.1419 19.8506 50.0557C19.8506 49.9911 19.8722 49.948 19.8722 49.948C19.8722 49.948 19.8722 49.9911 19.8722 50.0557C19.8722 50.1419 19.8722 50.2497 19.8506 50.3574C19.8291 50.6375 19.8075 51.0254 19.7859 51.4779C19.7428 52.426 19.678 53.7404 19.6349 55.2057C19.5917 56.671 19.5917 57.9854 19.5701 58.9335C19.5701 59.4075 19.5701 59.7739 19.5701 60.0755C19.5701 60.2048 19.5701 60.291 19.5701 60.3772C19.5486 60.4634 19.5486 60.4849 19.5486 60.4849Z" fill="#263238"/>
<g opacity="0.3">
<g opacity="0.3">
<path opacity="0.3" d="M27.1651 56.6711C27.1651 56.5203 27.2083 56.3694 27.2946 56.2617C27.5535 55.9169 28.1361 55.7445 28.546 55.96C29.107 56.2402 29.3875 56.865 29.4954 57.4899C29.6249 58.1579 29.6033 58.8474 29.7327 59.537C29.8622 60.205 30.1643 60.8945 30.7684 61.2393C31.502 61.6702 32.4514 61.4763 33.2282 61.8426C34.3717 62.3813 34.6306 63.8681 34.6954 65.1179C34.8033 67.5097 34.6954 69.9015 34.5875 72.2934C34.3717 77.3787 34.156 82.464 33.9186 87.5493L33.3145 95.1988L30.2074 96.5132L26.1078 69.6214L27.1651 56.6711Z" fill="black"/>
</g>
</g>
<path d="M28.0498 54.4948C28.0498 54.4948 28.0282 54.5163 27.9635 54.5379C27.8987 54.5594 27.8124 54.581 27.7045 54.5594C27.4888 54.5379 27.1435 54.3439 26.9925 53.9345C26.9278 53.7406 26.9062 53.5036 26.9278 53.2665C26.9493 53.0295 26.9925 52.7709 27.0572 52.5124C27.1651 51.9952 27.273 51.4134 27.4025 50.8316C27.6398 49.6249 27.8771 48.5475 28.0282 47.7718C28.1145 47.4055 28.1792 47.0823 28.2439 46.8453C28.2871 46.6298 28.3303 46.5005 28.3303 46.5005C28.3303 46.5005 28.3303 46.6298 28.2871 46.8453C28.2439 47.0823 28.1792 47.4055 28.1145 47.7718C27.9635 48.5475 27.7477 49.6465 27.5103 50.8316C27.3809 51.435 27.273 51.9952 27.1651 52.5124C27.0572 53.0295 26.9493 53.5036 27.0788 53.8699C27.1867 54.2362 27.5103 54.4301 27.7045 54.4732C27.9419 54.5594 28.0498 54.4948 28.0498 54.4948Z" fill="#263238"/>
<path d="M29.1502 49.5171C29.1502 49.5171 29.0639 49.5171 28.9129 49.5818C28.7618 49.6249 28.5676 49.7326 28.395 49.9481C28.2224 50.1636 28.1145 50.4868 28.244 50.8316C28.3519 51.1548 28.6755 51.478 29.0855 51.5211C29.4954 51.5426 29.8622 51.2841 30.0348 50.9824C30.2075 50.6592 30.1427 50.3144 30.0133 50.0774C29.8838 49.8404 29.6896 49.7111 29.5602 49.6249C29.4307 49.5602 29.3444 49.5387 29.3444 49.5387C29.3444 49.5387 29.366 49.5387 29.4091 49.5387C29.4523 49.5387 29.517 49.5602 29.5817 49.5818C29.7328 49.6464 29.927 49.7757 30.078 50.0343C30.1427 50.1636 30.2075 50.3144 30.229 50.4868C30.2506 50.6592 30.2075 50.8531 30.1212 51.0255C29.9485 51.3703 29.5386 51.6504 29.0855 51.6288C28.6324 51.5857 28.2656 51.241 28.1577 50.8747C28.0929 50.6807 28.0929 50.4868 28.1361 50.336C28.1792 50.1636 28.2656 50.0343 28.3519 49.905C28.5461 49.6895 28.7618 49.5818 28.9129 49.5387C28.9992 49.5171 29.0639 49.5171 29.0855 49.5171C29.1286 49.4956 29.1502 49.4956 29.1502 49.5171Z" fill="#263238"/>
<path d="M32.7751 63.2215L13.3129 59.7092L4.22913 61.6916L24.5544 65.3548L32.7751 63.2215Z" fill="#E8505B"/>
<g opacity="0.6">
<path opacity="0.6" d="M32.7751 63.2215L13.3129 59.7092L4.22913 61.6916L24.5544 65.3548L32.7751 63.2215Z" fill="black"/>
</g>
<path d="M20.3253 71.69C20.5842 68.1131 21.5768 59.0198 22.3104 55.5075C22.5261 54.4517 22.7851 53.3743 23.3892 52.4908C23.9934 51.6074 25.0506 50.9609 26.1295 51.1117C27.0788 51.2626 27.834 52.0168 28.2224 52.9002C28.6108 53.7837 28.7618 54.7533 28.7187 55.723C28.546 60.0757 28.1577 64.924 28.1577 68.9534" fill="#455A64"/>
<path d="M26.9278 63.1785C26.9278 63.2 26.6473 63.2647 26.2157 63.4155C25.7626 63.5448 25.1585 63.7603 24.5112 64.062C23.8639 64.3636 23.3029 64.6653 22.9145 64.9239C22.5261 65.1609 22.2672 65.3333 22.2672 65.3118C22.2672 65.3118 22.3104 65.2471 22.4182 65.1825C22.5261 65.0963 22.6772 64.9885 22.8714 64.8592C23.2597 64.6007 23.8207 64.2774 24.468 63.9758C25.1153 63.6741 25.7411 63.4802 26.1942 63.3509C26.4315 63.2862 26.6041 63.2431 26.7336 63.2216C26.8415 63.1785 26.9278 63.157 26.9278 63.1785Z" fill="#263238"/>
<path d="M27.2515 59.0413C27.2515 59.0628 26.9494 59.1275 26.4963 59.2783C26.0216 59.4291 25.3959 59.6661 24.7486 60.0109C24.1013 60.3557 23.5403 60.7435 23.1519 61.0452C22.7635 61.3469 22.5478 61.5624 22.5262 61.5408C22.5262 61.5408 22.5693 61.4762 22.6556 61.39C22.742 61.2822 22.893 61.153 23.0872 61.0021C23.454 60.6789 24.015 60.2695 24.6839 59.9247C25.3527 59.58 26 59.3429 26.4747 59.2136C26.7121 59.149 26.9063 59.1059 27.0357 59.0844C27.1652 59.0413 27.2515 59.0413 27.2515 59.0413Z" fill="#263238"/>
<path d="M26.7984 55.7229C26.7984 55.7444 26.5611 55.7444 26.1943 55.809C25.8275 55.8737 25.3312 56.003 24.8349 56.2616C24.3387 56.5201 23.9287 56.8218 23.6482 57.0804C23.3677 57.3389 23.2167 57.5113 23.2167 57.4898C23.2167 57.4898 23.2383 57.4467 23.303 57.3605C23.3677 57.2743 23.454 57.1666 23.6051 57.0157C23.864 56.7356 24.2739 56.4124 24.7918 56.1538C25.3096 55.8952 25.8275 55.766 26.1943 55.7229C26.3885 55.7013 26.5395 55.6798 26.6474 55.7013C26.7553 55.7013 26.7984 55.7013 26.7984 55.7229Z" fill="#263238"/>
<path d="M24.3828 66.0665C24.3828 66.0881 24.4043 66.0881 24.3828 66.0665V78.5212C24.3828 79.0599 23.9512 79.6202 23.1313 80.0512C22.333 80.4821 21.1462 80.7622 19.679 80.7622H19.6575C16.7014 80.7622 14.9537 79.5986 14.9537 78.4997V66.0665C14.9537 66.0665 14.9537 66.0665 14.9537 66.045V66.0234C14.9537 64.8168 15.86 63.5454 16.7446 62.2957C17.3487 61.4553 17.4998 60.2486 17.5214 59.5375C17.5214 59.4513 17.5214 59.3867 17.5214 59.3005H17.4782C17.0898 59.3005 16.7662 59.0204 16.7662 58.6971V58.18C16.7662 57.8352 17.0898 57.5767 17.4782 57.5767H21.9014C22.2035 57.5767 22.4409 57.7275 22.5487 57.943C22.5919 58.0076 22.5919 58.0938 22.5919 58.18V58.6971C22.5919 59.0204 22.2682 59.3005 21.8799 59.3005H21.7936C21.7936 59.3651 21.7936 59.4513 21.7936 59.5375C21.8151 60.2486 21.9662 61.4553 22.5703 62.2957C23.4765 63.5454 24.3612 64.8168 24.3612 66.0234C24.4043 66.0665 24.3828 66.0665 24.3828 66.0665Z" fill="#FAFAFA"/>
<path d="M24.3817 66.0659C24.3817 66.0659 24.3817 66.0228 24.3817 65.9366C24.3817 65.8504 24.3601 65.7211 24.3385 65.5703C24.2738 65.2471 24.1228 64.773 23.8207 64.2128C23.5186 63.6525 23.0871 63.0276 22.5477 62.2734C22.2888 61.9071 22.0946 61.4331 21.9651 60.9375C21.8356 60.4419 21.7709 59.8816 21.7709 59.2998V59.2567H21.8141C21.9867 59.2567 22.1377 59.2352 22.2888 59.149C22.4182 59.0628 22.5261 58.912 22.5692 58.7611C22.5692 58.5888 22.5692 58.4164 22.5692 58.2224C22.5908 58.0501 22.5045 57.8777 22.3751 57.7699C22.2456 57.6622 22.0514 57.5975 21.8788 57.5975C21.6846 57.5975 21.4904 57.5975 21.2962 57.5975C20.9078 57.5975 20.4979 57.5975 20.0879 57.5975C19.268 57.5975 18.4265 57.5975 17.5419 57.5975C17.3261 57.576 17.1103 57.6406 16.9593 57.7915C16.8946 57.8561 16.8298 57.9639 16.8298 58.0716C16.8083 58.1578 16.8298 58.2871 16.8298 58.3948C16.8298 58.5026 16.8298 58.6318 16.8298 58.7396C16.8514 58.8473 16.8946 58.9335 16.9593 59.0197C17.1103 59.1705 17.3261 59.2567 17.5635 59.2352H17.6066V59.2783C17.6066 59.7739 17.5419 60.291 17.434 60.7866C17.3261 61.2822 17.1535 61.7994 16.8514 62.2304C16.5493 62.6613 16.2257 63.0923 15.9452 63.5448C15.6647 63.9973 15.3842 64.4713 15.2116 64.9885C15.1253 65.2471 15.0606 65.5056 15.039 65.7858C15.0174 66.0659 15.039 66.346 15.039 66.6261C15.039 67.1864 15.039 67.7682 15.039 68.35C15.039 69.5136 15.039 70.6771 15.039 71.8623C15.039 73.9524 15.039 75.9995 15.039 77.9819C15.039 78.2189 15.0174 78.4775 15.0821 78.693C15.1253 78.93 15.2763 79.1239 15.4274 79.2963C15.751 79.6411 16.161 79.8997 16.5925 80.0936C17.024 80.2875 17.4771 80.3953 17.9303 80.4815C18.3834 80.5677 18.8365 80.6108 19.2896 80.6323C20.1958 80.6754 21.0805 80.5892 21.9004 80.3953C22.3103 80.2875 22.7203 80.1582 23.0871 79.9643C23.4539 79.7704 23.7991 79.5549 24.058 79.2317C24.1875 79.0808 24.2738 78.9085 24.3385 78.7361C24.4033 78.5637 24.3817 78.3698 24.3817 78.1543C24.3817 77.7664 24.3817 77.3786 24.3817 77.0122C24.3817 76.2581 24.3817 75.547 24.3817 74.8574C24.3817 72.1209 24.4033 69.9014 24.4033 68.35C24.3817 66.9278 24.3817 66.0659 24.3817 66.0659C24.3817 66.0659 24.3817 66.109 24.3817 66.2167C24.3817 66.3245 24.3817 66.4753 24.3817 66.6692C24.3817 67.0786 24.3817 67.682 24.3817 68.4362C24.3817 69.9661 24.3817 72.1855 24.4033 74.9436C24.4033 75.6332 24.4033 76.3443 24.4033 77.0984C24.4033 77.4647 24.4033 77.8526 24.4033 78.2405C24.4033 78.3482 24.4033 78.4344 24.4033 78.5421C24.4033 78.6499 24.3817 78.7361 24.3601 78.8438C24.2954 79.0377 24.1875 79.2317 24.058 79.3825C23.7991 79.7057 23.4323 79.9428 23.0655 80.1367C22.6987 80.3306 22.2888 80.4599 21.8572 80.5676C21.0157 80.7831 20.1095 80.8478 19.2033 80.8047C18.7502 80.7831 18.2755 80.74 17.8224 80.6538C17.3693 80.5676 16.8946 80.4384 16.463 80.2444C16.0315 80.0505 15.6 79.7919 15.2547 79.4256C15.0821 79.2317 14.9527 79.0162 14.8879 78.7792C14.8232 78.5206 14.8664 78.2836 14.8448 78.025C14.8448 76.0426 14.8448 74.0171 14.8448 71.9054C14.8448 70.7202 14.8448 69.5351 14.8448 68.3931C14.8448 67.8113 14.8448 67.251 14.8448 66.6692C14.8448 66.3891 14.8448 66.109 14.8448 65.8289C14.8664 65.5487 14.9311 65.2686 15.0174 65.01C15.19 64.4713 15.4705 63.9973 15.7726 63.5448C16.0531 63.0923 16.3767 62.6613 16.6788 62.2304C16.9809 61.7994 17.1535 61.3038 17.2614 60.8082C17.3693 60.3126 17.4124 59.817 17.434 59.3214L17.4771 59.3645C17.2398 59.386 16.9809 59.2998 16.8083 59.1059C16.722 59.0197 16.6572 58.8904 16.6572 58.7611C16.6572 58.6318 16.6572 58.5241 16.6572 58.4164C16.6572 58.3086 16.6572 58.2009 16.6572 58.0716C16.6788 57.9423 16.7435 57.8346 16.8298 57.7484C17.0025 57.576 17.2398 57.5114 17.4771 57.5114C18.3618 57.5114 19.2033 57.5114 20.0232 57.5114C20.4332 57.5114 20.8215 57.5114 21.2315 57.5114C21.4257 57.5114 21.6199 57.5114 21.8141 57.5114C22.0083 57.5114 22.224 57.576 22.3751 57.7053C22.5261 57.8346 22.6124 58.0501 22.5908 58.2224C22.5908 58.4164 22.5908 58.5888 22.5908 58.7611C22.5692 58.9551 22.4398 59.1059 22.2888 59.2136C22.1377 59.2998 21.9435 59.3429 21.7709 59.3214L21.8141 59.2783C21.8356 60.4203 22.0514 61.4762 22.5692 62.2088C23.0871 62.9414 23.5402 63.5879 23.8207 64.1481C24.1228 64.7084 24.2738 65.1824 24.317 65.5056C24.3385 65.678 24.3601 65.7858 24.3601 65.872C24.4033 66.0228 24.4033 66.0659 24.3817 66.0659Z" fill="#263238"/>
<path d="M21.5551 59.2999C21.5551 59.3214 20.6705 59.3645 19.5917 59.3645C18.5128 59.3645 17.6282 59.343 17.6282 59.2999C17.6282 59.2568 18.5128 59.2352 19.5917 59.2352C20.6705 59.2352 21.5551 59.2783 21.5551 59.2999Z" fill="#263238"/>
<path d="M23.9934 67.725C23.605 67.4664 23.0656 67.5741 22.634 67.7896C22.2025 67.9836 21.8141 68.2852 21.3394 68.3499C20.8 68.4361 20.239 68.2206 19.7643 67.9405C19.2681 67.6603 18.8149 67.3371 18.2971 67.1432C17.3046 66.7769 16.1179 67.057 15.3627 67.8327V78.4989C15.3627 78.4989 15.9452 80.3305 20.088 80.0289C24.2307 79.7272 23.907 77.9172 23.907 77.9172L23.9934 67.725Z" fill="#E8505B"/>
<path d="M13.054 60.4635C13.1834 59.6877 12.9677 58.8474 12.493 58.2009C12.0183 57.5545 11.2847 57.1235 10.4863 56.9943C10.4216 56.9727 10.3353 56.9727 10.2706 57.0158C10.1843 57.0804 10.1843 57.2097 10.1843 57.3175C10.249 58.0717 10.5726 58.8258 11.0905 59.3861C11.6083 59.9679 12.2988 60.3773 13.0324 60.5281" fill="#455A64"/>
<path d="M8.80341 66.0443C9.5586 67.6173 10.659 68.6732 12.0183 68.7378C12.2988 68.7378 12.493 68.5654 12.752 68.5439C12.8814 68.5439 13.0324 68.6516 13.1835 68.7163C13.2698 68.7378 13.3345 68.7809 13.4208 68.7594C14.8233 68.6732 16.0316 67.7035 16.8299 66.0443C17.9519 63.7387 17.6067 61.2391 16.0532 60.485C15.8374 60.3772 15.6217 60.291 15.4275 60.2479C15.1685 60.1833 14.9312 60.1402 14.6507 60.1617C14.176 60.1617 13.6366 60.291 12.8814 60.5496C12.8598 60.5496 12.8383 60.5712 12.7951 60.5712C11.5437 60.0109 10.5295 60.0109 9.5586 60.485C8.02665 61.2607 7.68142 63.7387 8.80341 66.0443Z" fill="#E8505B"/>
<path d="M8.825 63.7171C8.825 63.7171 8.73869 63.5447 8.69554 63.2431C8.65238 62.9414 8.67396 62.5104 8.825 62.0795C8.97603 61.6485 9.25653 61.3038 9.4723 61.1098C9.68807 60.9159 9.86068 60.8297 9.88226 60.8513C9.90383 60.8728 9.73122 60.959 9.53703 61.1745C9.34284 61.39 9.08392 61.7132 8.93288 62.1226C8.78184 62.532 8.73869 62.9414 8.76027 63.2431C8.80342 63.5232 8.84657 63.6956 8.825 63.7171Z" fill="#FAFAFA"/>
<path d="M9.10552 64.816C9.08394 64.816 9.01921 64.7083 8.99764 64.579C8.95448 64.4282 8.95448 64.3204 8.99764 64.3204C9.01921 64.3204 9.08394 64.4282 9.10552 64.5575C9.14867 64.6867 9.14867 64.7945 9.10552 64.816Z" fill="#FAFAFA"/>
<path d="M16.2474 56.6925C16.2474 56.714 15.9669 56.8217 15.5138 57.0803C15.298 57.2096 15.0391 57.382 14.7802 57.5975C14.5212 57.813 14.2623 58.0715 14.0034 58.3732C13.7661 58.6749 13.5503 58.9765 13.3993 59.2782C13.2482 59.5799 13.1188 59.86 13.0324 60.097C12.8598 60.5711 12.8167 60.8943 12.7951 60.8943C12.7951 60.8943 12.7951 60.8081 12.8167 60.6788C12.8167 60.6142 12.8383 60.528 12.8598 60.4202C12.8814 60.3125 12.903 60.2048 12.9461 60.0755C13.0109 59.8385 13.1403 59.5368 13.2914 59.2351C13.4424 58.9334 13.6582 58.6102 13.8955 58.3086C14.1544 58.0069 14.4134 57.7483 14.6939 57.5328C14.9528 57.3174 15.2117 57.145 15.449 57.0372C15.5569 56.9726 15.6648 56.9295 15.7511 56.8864C15.8374 56.8433 15.9237 56.8002 15.9885 56.7787C16.1826 56.6925 16.2474 56.6709 16.2474 56.6925Z" fill="#263238"/>
<path d="M4.22906 61.6917L1.79089 92.5052L24.5759 97.9999C24.5759 97.9999 32.5161 95.3064 32.624 95.134C32.7319 94.9401 32.7535 63.2431 32.7535 63.2431L24.5327 65.3763L4.22906 61.6917Z" fill="#3C8934"/>
<g opacity="0.4">
<path opacity="0.4" d="M4.22906 61.6917L1.79089 92.5052L24.5759 97.9999C24.5759 97.9999 32.5161 95.3064 32.624 95.134C32.7319 94.9401 32.7535 63.2431 32.7535 63.2431L24.5327 65.3763L4.22906 61.6917Z" fill="#68C50E"/>
</g>
<path d="M39.9817 25.836L38.7086 43.807C38.4929 46.7375 36.0547 49.0216 33.1203 49.0216C29.8838 49.0216 27.3161 46.285 27.5103 43.0528C27.6182 41.3505 27.7261 39.9499 27.7261 39.9499C27.7261 39.9499 23.3676 39.2819 23.3244 34.9292C23.3029 32.4081 23.7344 26.7194 24.1012 22.3452C24.3601 19.3931 26.8199 17.1306 29.7975 17.1306H32.4298C36.9394 17.3676 40.37 21.3109 39.9817 25.836Z" fill="#FFBE9D"/>
<path d="M27.7261 39.9283C27.7261 39.9283 30.4664 40.0791 33.4008 38.2476C33.4008 38.2476 31.9983 41.4151 27.6614 41.0272L27.7261 39.9283Z" fill="#EB996E"/>
<path d="M24.8996 26.8057C24.9859 26.8919 25.439 26.5472 26.1079 26.5472C26.7768 26.5472 27.273 26.8919 27.3378 26.8057C27.3809 26.7626 27.2946 26.6334 27.0789 26.461C26.8631 26.3101 26.5179 26.1593 26.0863 26.1593C25.6764 26.1593 25.3096 26.3101 25.1154 26.4825C24.9428 26.6334 24.8565 26.7626 24.8996 26.8057Z" fill="#263238"/>
<path d="M32.1494 27.5814C32.1278 27.9046 32.4083 28.1847 32.7535 28.2063C33.0987 28.2278 33.3792 27.9692 33.4008 27.646C33.4224 27.3228 33.1419 27.0427 32.7967 27.0211C32.4514 26.9996 32.1709 27.2366 32.1494 27.5814Z" fill="#263238"/>
<path d="M25.5037 27.5814C25.4822 27.9046 25.7627 28.1847 26.1079 28.2063C26.4531 28.2278 26.7336 27.9692 26.7552 27.646C26.7768 27.3228 26.4963 27.0427 26.151 27.0211C25.8058 26.9996 25.5253 27.2366 25.5037 27.5814Z" fill="#263238"/>
<path d="M31.4157 26.8057C31.502 26.8919 31.9551 26.5472 32.624 26.5472C33.2929 26.5472 33.7892 26.8919 33.8539 26.8057C33.897 26.7626 33.8107 26.6334 33.595 26.461C33.3792 26.3101 33.034 26.1593 32.6024 26.1593C32.1925 26.1593 31.8257 26.3101 31.6315 26.4825C31.4589 26.6334 31.3726 26.7626 31.4157 26.8057Z" fill="#263238"/>
<path d="M28.9776 31.7616C28.9776 31.7185 28.5676 31.6539 27.8987 31.5677C27.7261 31.5461 27.5751 31.5246 27.5319 31.3953C27.4888 31.266 27.5535 31.0936 27.6398 30.8997C27.7909 30.4903 27.9635 30.0593 28.1361 29.6068C28.8481 27.7537 29.3444 26.2238 29.2797 26.2023C29.2149 26.1807 28.5676 27.646 27.8772 29.4991C27.7046 29.9516 27.5535 30.3826 27.4025 30.8135C27.3378 31.0074 27.2299 31.2229 27.3162 31.4815C27.3593 31.6108 27.4888 31.697 27.5967 31.7401C27.7046 31.7832 27.8124 31.7832 27.8772 31.7832C28.5676 31.8047 28.9776 31.8047 28.9776 31.7616Z" fill="#263238"/>
<path d="M30.9626 32.2358C30.8547 32.2358 30.8548 32.9468 30.229 33.464C29.6033 33.9811 28.8265 33.895 28.8265 34.0027C28.8265 34.0458 28.9991 34.1535 29.3228 34.1535C29.6465 34.1751 30.1211 34.0673 30.4879 33.7441C30.8763 33.4209 31.0274 33.0115 31.0489 32.7098C31.0921 32.4081 31.0058 32.2142 30.9626 32.2358Z" fill="#263238"/>
<path d="M31.2431 24.6292C31.3078 24.8015 31.9767 24.7153 32.7535 24.8231C33.5302 24.9093 34.1775 25.1248 34.2854 24.9739C34.3286 24.8877 34.2207 24.7153 33.9617 24.543C33.7028 24.3706 33.2929 24.1982 32.8398 24.1551C32.3651 24.112 31.9335 24.1766 31.653 24.2844C31.351 24.4137 31.2215 24.543 31.2431 24.6292Z" fill="#263238"/>
<path d="M24.9866 24.8881C25.0945 25.0389 25.5691 24.8881 26.1301 24.8665C26.6911 24.845 27.1443 24.9743 27.2521 24.8019C27.2953 24.7157 27.2306 24.5649 27.0148 24.4356C26.8206 24.2847 26.4754 24.177 26.087 24.177C25.6986 24.1985 25.375 24.3278 25.1808 24.4787C25.0082 24.6726 24.9434 24.8234 24.9866 24.8881Z" fill="#263238"/>
<path d="M38.5145 29.0895C38.5792 29.0679 41.5136 28.206 41.4058 31.1796C41.3194 34.1533 38.3419 33.4422 38.3419 33.356C38.3419 33.2698 38.5145 29.0895 38.5145 29.0895Z" fill="#FFBE9D"/>
<path d="M39.2913 32.257C39.3129 32.257 39.3344 32.3001 39.4208 32.3432C39.5071 32.3863 39.6581 32.4078 39.8091 32.3648C40.1328 32.257 40.4133 31.7614 40.4349 31.2227C40.4564 30.9426 40.4133 30.684 40.3054 30.4685C40.2191 30.2531 40.0896 30.1022 39.9386 30.0591C39.7876 30.016 39.6581 30.1022 39.6365 30.1884C39.5934 30.2746 39.6149 30.3392 39.5934 30.3392C39.5934 30.3392 39.5286 30.2961 39.5502 30.1669C39.5718 30.1022 39.5934 30.0376 39.6797 29.9945C39.7444 29.9298 39.8523 29.9083 39.9602 29.9298C40.1975 29.9514 40.3917 30.1669 40.478 30.4039C40.5859 30.6409 40.6506 30.9426 40.6291 31.2443C40.5859 31.8476 40.2622 32.3863 39.8307 32.494C39.6149 32.5371 39.4423 32.4725 39.356 32.4078C39.2913 32.3432 39.2697 32.2786 39.2913 32.257Z" fill="#EB996E"/>
<path d="M40.1543 29.0035C39.7012 28.8958 38.9244 29.3052 38.7302 29.7362C38.5361 30.1671 38.4929 30.6412 38.2987 31.0721C38.1045 31.5031 37.673 31.891 37.2199 31.7832C36.8962 31.7186 36.6805 31.4169 36.5942 31.1152C36.5078 30.8136 36.551 30.4688 36.5942 30.1456C36.7668 28.7665 37.0688 27.3874 37.112 25.9868C37.1767 24.5862 36.961 23.1425 36.2273 21.9358C35.4937 20.7507 34.1344 19.8672 32.7535 19.9749C31.8257 20.0396 30.9842 20.5352 30.0564 20.6645C28.956 20.8153 27.8124 20.4275 27.0357 19.6517C26.9278 19.544 26.4747 19.2423 26.4747 19.2423C26.4747 19.1777 26.5394 18.5528 26.7983 18.3158C28.6323 16.635 31.912 16.161 34.3286 16.7643C36.7452 17.3676 38.9892 19.0699 40.0248 21.3325C41.039 23.5735 40.7369 26.7195 40.1543 29.0035Z" fill="#263238"/>
<path d="M23.605 21.5264C23.9933 22.4314 24.9859 22.9485 25.9784 23.0563C26.9494 23.164 27.9419 22.9054 28.8913 22.6253C29.8406 22.3667 32.3867 21.9358 33.3576 21.9573C33.5087 21.9573 33.6813 21.9573 33.7676 21.828C33.8755 21.6557 33.7029 21.4617 33.5518 21.3324C32.2572 20.3197 29.107 19.6948 27.4672 19.6301C25.8274 19.5655 24.0797 20.2766 23.195 21.6557" fill="#263238"/>
<path d="M24.0366 21.6556C24.0366 21.6556 35.4722 17.9925 40.4133 27.8614C40.4133 27.8614 41.1469 25.3834 41.1469 24.069C41.1469 23.1855 40.6075 17.9063 35.1917 16.2687C35.1917 16.2471 27.0141 13.1227 24.0366 21.6556Z" fill="#CC4021"/>
<g opacity="0.4">
<g opacity="0.4">
<g opacity="0.4">
<path opacity="0.4" d="M24.0366 21.6556C24.0366 21.6556 25.3312 20.1042 27.6614 20.018C31.0274 19.8672 37.3494 21.7634 40.3917 27.8614C40.3917 27.8614 41.1253 25.3834 41.1253 24.069C41.1253 23.1855 40.5859 17.9063 35.1701 16.2687C35.1917 16.2471 27.0141 13.1227 24.0366 21.6556Z" fill="black"/>
</g>
</g>
</g>
<path d="M39.9385 26.6984C38.234 24.1126 35.9037 21.9578 33.2713 20.3202C30.639 18.6825 26.3021 17.0664 23.3029 16.2692C22.3967 16.0321 21.4689 15.8167 20.5411 15.989C19.6349 16.1399 18.7286 16.7648 18.4913 17.6482C18.2108 18.7687 20.2174 20.5141 21.1452 21.2037C22.0946 21.8932 24.0149 22.8844 24.0149 22.8844C24.0149 22.8844 23.9934 20.7942 27.3377 20.3633C31.912 19.7815 39.9385 26.6984 39.9385 26.6984Z" fill="#CC4021"/>
<path d="M30.5526 18.1648C30.5526 18.1648 28.9128 17.2598 27.2514 17.0443C27.5966 16.7857 27.7692 16.678 28.1576 16.5056C28.9991 16.678 29.8622 16.8935 30.7253 17.3675L30.5526 18.1648Z" fill="#FAFAFA"/>
<path d="M44.9228 47.8149C44.9228 47.8149 41.7942 51.3704 42.1394 56.3479C42.1826 57.0375 42.2257 57.9856 42.312 58.6751C42.8299 62.9416 43.6498 66.8849 43.6498 66.8849H43.9518L54.8481 64.1914C54.8481 64.1914 53.2082 54.7534 52.8199 53.5036C51.6116 49.4957 47.4688 47.2762 47.4688 47.2762L44.9228 47.8149Z" fill="#99756D"/>
<path d="M32.624 95.134C32.624 95.134 32.624 95.0693 32.624 94.9832C32.624 94.8754 32.624 94.7246 32.624 94.5091C32.624 94.0997 32.624 93.4748 32.624 92.6775C32.624 91.083 32.624 88.7989 32.6456 85.933C32.6672 80.2013 32.6888 72.2285 32.7319 63.2431L32.7967 63.3077C31.4805 63.6525 30.078 64.0188 28.6539 64.3851C27.2514 64.7514 25.8921 65.0962 24.5759 65.4409L24.6191 65.3763C24.6838 69.8798 24.6622 74.1463 24.6407 77.9818C24.6191 81.8174 24.5975 85.265 24.5759 88.1309C24.5544 90.9968 24.5544 93.3024 24.5759 94.897C24.5759 95.6942 24.5759 96.2976 24.5759 96.7285C24.5759 96.944 24.5759 97.0949 24.5759 97.2026C24.5759 97.3103 24.5759 97.3534 24.5759 97.3534C24.5759 97.3534 24.5759 97.2888 24.5759 97.2026C24.5759 97.0949 24.5759 96.944 24.5759 96.7285C24.5759 96.3191 24.5544 95.6942 24.5544 94.897C24.5328 93.3024 24.5328 90.9968 24.5328 88.1309C24.5328 85.265 24.5544 81.8174 24.5759 77.9818C24.5975 74.1463 24.5975 69.8798 24.5544 65.3763V65.3332L24.5975 65.3117C25.8921 64.9669 27.273 64.6221 28.6755 64.2558C30.0996 63.8895 31.5021 63.5232 32.8182 63.1784L32.883 63.1569V63.2215C32.8398 72.207 32.7967 80.1797 32.7751 85.9115C32.7535 88.7774 32.7319 91.083 32.7319 92.656C32.7319 93.4533 32.7104 94.0566 32.7104 94.4876C32.7104 94.703 32.7104 94.8539 32.7104 94.9616C32.6456 95.0694 32.624 95.134 32.624 95.134Z" fill="#263238"/>
<path d="M27.5967 41.3936C27.5967 41.3936 27.1652 45.5308 28.5676 46.1772C30.1427 46.9099 31.7178 46.1988 32.6672 45.5739C35.2349 43.9363 39.0539 39.3896 39.0539 39.3896L41.6431 42.7511C41.6431 42.7511 35.127 50.573 33.8108 50.5299C32.9477 50.4868 31.6315 49.668 30.79 49.0862C30.3369 48.763 29.927 48.3967 29.5818 47.9442L28.4598 46.522C27.0573 47.2115 25.9137 48.095 25.1154 49.2371C25.1154 49.2371 24.7486 46.3281 25.4174 45.0137C26.0863 43.6992 27.4457 41.4367 27.4457 41.4367L27.5967 41.3936Z" fill="#99756D"/>
<path d="M25.3311 45.1429C25.3311 45.1429 25.3311 45.1645 25.3095 45.2076C25.288 45.2507 25.2664 45.3153 25.2232 45.4015C25.1585 45.5954 25.0722 45.854 25.029 46.2203C24.9212 46.9529 24.8996 48.0088 25.029 49.3232L24.9427 49.3017C25.2664 48.7414 25.7411 48.2027 26.3452 47.7071C26.9494 47.2115 27.6398 46.7806 28.4166 46.3927L28.4597 46.3711L28.4813 46.3927C28.9344 46.9314 29.4091 47.4701 29.927 48.0303C30.4232 48.5906 30.9842 49.1508 31.6315 49.6033C31.9336 49.8188 32.2572 49.9912 32.6025 50.1205C32.7751 50.1851 32.9477 50.2282 33.1203 50.2498C33.2929 50.2713 33.4655 50.2929 33.6381 50.2713C34.3286 50.2067 34.9327 49.7973 35.429 49.3879C37.2415 47.4701 38.795 45.8109 39.8954 44.6258C40.4348 44.044 40.8879 43.5915 41.19 43.2682C41.341 43.1174 41.4489 42.9881 41.5352 42.9019C41.5784 42.8588 41.6 42.8373 41.6215 42.8157C41.6431 42.7942 41.6431 42.7942 41.6647 42.7942C41.6647 42.7942 41.6647 42.8157 41.6431 42.8373C41.6215 42.8588 41.6 42.9019 41.5568 42.945C41.4705 43.0312 41.3626 43.1605 41.2116 43.3113C40.9095 43.6346 40.478 44.1086 39.9385 44.6904C38.8381 45.8755 37.3062 47.5347 35.5153 49.4741C35.2564 49.6895 34.9975 49.905 34.6738 50.0774C34.3718 50.2498 34.0265 50.3791 33.6597 50.4006C33.4871 50.4222 33.2929 50.4006 33.0987 50.3791C32.9045 50.3575 32.7319 50.2929 32.5593 50.2282C32.2141 50.0989 31.8689 49.9266 31.5668 49.7111C30.8979 49.2586 30.3585 48.6768 29.8406 48.1165C29.3228 47.5563 28.8481 46.996 28.395 46.4789L28.4597 46.5004C27.683 46.8668 26.9925 47.3193 26.4099 47.7933C25.8274 48.2674 25.3311 48.8061 25.029 49.3448L24.9643 49.4525L24.9427 49.3232C24.8133 48.0088 24.8564 46.9314 24.9859 46.1988C25.0506 45.8324 25.1369 45.5523 25.2017 45.3799C25.2448 45.2938 25.2664 45.2291 25.288 45.186C25.3095 45.1645 25.3311 45.1429 25.3311 45.1429Z" fill="#263238"/>
<g opacity="0.3">
<g opacity="0.3">
<path opacity="0.3" d="M25.4821 48.6337C25.3742 48.8061 25.4605 49.1724 25.6331 49.2586C25.8057 49.3448 26.0215 49.2801 26.1725 49.1724C26.3236 49.0431 26.4315 48.8923 26.5394 48.7199C26.7983 48.3536 27.1003 48.0088 27.4671 47.7287C27.8124 47.4485 28.2871 47.2115 28.697 47.4054C28.9559 47.5347 29.107 47.8149 29.2364 48.095C29.7759 49.1939 30.4232 50.336 31.4804 50.9609C32.5377 51.5857 33.897 51.6288 35.0622 51.2194C36.2273 50.81 37.2198 49.9912 38.0182 49.0431C38.8165 48.095 39.4422 47.0176 40.0679 45.9617C40.5642 45.1214 41.0605 44.2595 41.2115 43.2898C41.0821 43.376 40.7584 43.85 40.6289 43.9147C40.6289 43.9147 35.6016 49.4525 35.1269 49.7326C34.6522 50.0127 33.3576 51.9305 29.668 47.7933L28.4381 46.4789C28.4381 46.4789 26.1078 47.5994 25.4821 48.6337Z" fill="black"/>
</g>
</g>
<path d="M38.9618 60.5513L33.4377 59.7058L33.1827 61.3672L38.7068 62.2127L38.9618 60.5513Z" fill="white"/>
<path d="M53.9202 64.4066L45.2896 66.4968L46.2821 74.6203L29.7543 87.0104C29.0854 87.0966 28.4166 87.2043 28.0498 87.3121C27.1435 87.5275 25.5469 89.8116 25.0938 90.0271L21.8788 92.5051C21.8788 92.5051 21.5983 93.6256 23.0655 93.4101C24.5328 93.1946 26.1726 92.0526 26.3452 92.0526C26.5178 92.0526 27.0357 92.3974 26.7767 93.13C26.561 93.7764 25.6763 95.9959 25.6763 95.9959L24.5759 97.9998C24.5759 97.9998 29.3012 98.1507 30.6174 96.4053C31.5236 95.2201 34.2854 91.8371 34.2854 91.8371C34.2854 91.8371 53.7476 82.2698 54.9128 80.2874C56.5094 77.5724 53.9202 64.4066 53.9202 64.4066Z" fill="#FFBE9D"/>
<path d="M49.9502 78.1325C49.9286 78.1325 49.9933 77.7877 49.907 77.249C49.8207 76.7103 49.5402 75.9777 48.9145 75.3959C48.2888 74.8357 47.512 74.6202 46.9726 74.5986C46.4332 74.5771 46.088 74.6633 46.088 74.6417C46.088 74.6417 46.1743 74.5986 46.3253 74.5771C46.4763 74.534 46.7137 74.5125 46.9942 74.5125C47.5552 74.5125 48.3535 74.7279 49.0008 75.3097C49.6481 75.8915 49.9286 76.6672 49.9933 77.2275C50.0365 77.5076 50.0149 77.7446 49.9933 77.8955C49.9718 78.0463 49.9502 78.1325 49.9502 78.1325Z" fill="#EB996E"/>
<path d="M28.4598 94.9617C28.4814 94.9617 28.4382 95.1771 28.3519 95.5004C28.2656 95.8236 28.1361 96.2976 27.8772 96.7501C27.6183 97.2242 27.2731 97.569 26.971 97.7414C26.82 97.8275 26.6905 97.8706 26.5826 97.8922C26.4963 97.9137 26.4316 97.9137 26.4316 97.9137C26.4316 97.8922 26.6473 97.8706 26.9278 97.6767C27.2083 97.5043 27.532 97.1596 27.7909 96.707C28.0283 96.2545 28.1793 95.802 28.2872 95.4788C28.3735 95.1556 28.4382 94.9617 28.4598 94.9617Z" fill="#EB996E"/>
<path d="M30.7468 94.2075C30.7684 94.2075 30.7037 94.423 30.5742 94.7247C30.4448 95.0479 30.2506 95.4789 30.0132 95.9314C29.7543 96.3839 29.4954 96.7717 29.3012 97.0518C29.107 97.332 28.956 97.4828 28.956 97.4828C28.9344 97.4828 29.0639 97.2889 29.2365 97.0088C29.4307 96.7286 29.668 96.3408 29.9269 95.8883C30.1858 95.4358 30.38 95.0263 30.5095 94.7031C30.6605 94.4014 30.7468 94.2075 30.7468 94.2075Z" fill="#EB996E"/>
<path d="M30.6822 80.1583C30.6822 80.1583 30.7037 80.2445 30.7253 80.4384C30.7469 80.6108 30.7685 80.8694 30.7685 81.1926C30.7901 81.8391 30.7685 82.701 30.6174 83.6706C30.4664 84.6403 30.2506 85.4807 30.0564 86.084C29.9486 86.3857 29.8623 86.6227 29.7975 86.7951C29.7328 86.9675 29.6896 87.0537 29.6896 87.0537C29.6896 87.0537 29.7112 86.9459 29.7544 86.7951C29.8191 86.6227 29.8838 86.3857 29.9701 86.084C30.1427 85.4807 30.3585 84.6187 30.488 83.6706C30.6174 82.7225 30.6606 81.8391 30.6606 81.2142C30.6606 80.891 30.6606 80.6324 30.6606 80.46C30.6822 80.2445 30.6822 80.1583 30.6822 80.1583Z" fill="#263238"/>
<path d="M26.0216 82.744C26.0432 82.744 26.1295 83.0026 26.3021 83.412C26.4531 83.843 26.6905 84.4248 26.9494 85.0496C27.2083 85.6961 27.4672 86.2563 27.6398 86.6657C27.8125 87.0752 27.9419 87.3337 27.9203 87.3337C27.8988 87.3337 27.7693 87.0967 27.5751 86.6873C27.3809 86.2779 27.1004 85.7176 26.8415 85.0712C26.5826 84.4248 26.3668 83.843 26.2373 83.412C26.0647 83.0026 26 82.744 26.0216 82.744Z" fill="#263238"/>
<path d="M24.7701 88.3033C24.7701 88.3033 24.727 88.3249 24.6407 88.3464C24.5328 88.368 24.4033 88.4111 24.2523 88.4326C24.0797 88.4757 23.8639 88.5188 23.6266 88.5619C23.3892 88.605 23.1087 88.6697 22.7851 88.6912C22.483 88.7343 22.1378 88.7774 21.7494 88.8205C21.3826 88.8636 20.9726 88.8851 20.5627 88.9067C19.7212 88.9282 18.8149 88.9282 17.844 88.8636C16.873 88.7774 15.9668 88.6481 15.1469 88.4973C14.7369 88.4111 14.3486 88.3249 13.9818 88.2387C13.615 88.1525 13.2913 88.0448 12.9892 87.9586C12.6872 87.8724 12.4067 87.7646 12.1693 87.7C11.932 87.6138 11.7378 87.5492 11.5652 87.4845C11.4141 87.4199 11.2847 87.3768 11.1984 87.3337C11.1121 87.2906 11.0689 87.269 11.0689 87.269C11.0689 87.269 11.1121 87.269 11.1984 87.3121C11.3063 87.3552 11.4141 87.3983 11.5868 87.4414C11.7594 87.5061 11.9536 87.5707 12.1909 87.6569C12.4282 87.7215 12.7087 87.8293 13.0108 87.9155C13.3129 88.0017 13.6365 88.0879 14.0033 88.1741C14.3701 88.2603 14.7585 88.3464 15.1469 88.4326C15.9668 88.5835 16.873 88.7128 17.8224 88.7989C18.7718 88.8636 19.6996 88.8851 20.5195 88.842C20.9295 88.8205 21.3394 88.7989 21.7062 88.7774C22.073 88.7559 22.4183 88.7128 22.7203 88.6697C23.044 88.6266 23.3245 88.5835 23.5618 88.5404C23.7992 88.4973 24.0149 88.4542 24.1875 88.4326C24.3602 88.4111 24.4896 88.368 24.5975 88.368C24.7054 88.3249 24.7701 88.3033 24.7701 88.3033Z" fill="#263238"/>
<path d="M23.9502 84.5755C23.9286 84.597 23.4755 84.3815 22.9361 84.0799C22.3751 83.7782 21.9436 83.5196 21.9651 83.4981C21.9867 83.4765 22.4398 83.692 22.9792 83.9937C23.5187 84.2738 23.9502 84.5324 23.9502 84.5755Z" fill="#263238"/>
<path d="M54.8481 64.1914C54.8481 64.1914 54.8265 64.1914 54.8049 64.213C54.7618 64.2345 54.7186 64.2345 54.6539 64.2561C54.5028 64.2992 54.3087 64.3422 54.0282 64.4069C53.4887 64.5362 52.6904 64.7301 51.6979 64.9887C49.7128 65.4627 46.9078 66.1523 43.6713 66.928L43.6066 66.9495V66.8849C43.3693 65.3981 43.0672 63.8035 42.7651 62.1444C42.5709 61.0454 42.3983 59.9465 42.2904 58.8906C42.1825 57.8348 42.1178 56.8005 42.0962 55.8308C42.0747 54.8612 42.1178 53.913 42.2473 53.0511C42.3767 52.1892 42.6141 51.4135 42.9593 50.7455C43.3045 50.0775 43.7145 49.5388 44.146 49.151C44.5776 48.7415 45.0091 48.483 45.3975 48.3106C45.7859 48.1382 46.0879 48.0736 46.3037 48.0305C46.4116 48.0089 46.4979 48.0089 46.541 48.0089C46.6058 48.0089 46.6273 48.0089 46.6273 48.0089C46.6273 48.0089 46.6058 48.0089 46.541 48.0305C46.4763 48.0305 46.39 48.052 46.3037 48.0736C46.0879 48.1167 45.7859 48.2028 45.4191 48.3752C45.0522 48.5476 44.6207 48.8277 44.1892 49.2371C43.7576 49.6466 43.3477 50.1637 43.024 50.8317C42.7004 51.4997 42.463 52.2754 42.3336 53.1158C42.2041 53.9777 42.161 54.9042 42.1825 55.8739C42.2041 56.8436 42.2473 57.8779 42.3767 58.9337C42.4846 59.9896 42.6572 61.067 42.8514 62.1875C43.1535 63.8466 43.4556 65.4412 43.6929 66.928L43.6282 66.8849C46.8647 66.1092 49.6697 65.4412 51.6547 64.9671C52.6472 64.7301 53.424 64.5577 53.985 64.4284C54.2439 64.3638 54.4597 64.3207 54.6107 64.2776C54.6755 64.2561 54.7402 64.2561 54.7618 64.2345C54.8265 64.1914 54.8265 64.1914 54.8481 64.1914Z" fill="#263238"/>
</g>
<defs>
<clipPath id="clip0">
<rect width="100.202" height="98" fill="white"/>
</clipPath>
</defs>
</svg>
