<svg width="30" height="29" viewBox="0 0 30 29" fill="none" xmlns="http://www.w3.org/2000/svg">
<path d="M20.804 2.98645H8.97971C5.71452 2.98645 3.06755 5.63342 3.06755 8.89861V20.7229C3.06755 23.9881 5.71452 26.6351 8.97971 26.6351H20.804C24.0692 26.6351 26.7162 23.9881 26.7162 20.7229V8.89861C26.7162 5.63342 24.0692 2.98645 20.804 2.98645Z" stroke="#828C9F" stroke-width="2.04167" stroke-linecap="round" stroke-linejoin="round"/>
<path d="M19.6219 14.0662C19.7678 15.0503 19.5997 16.0553 19.1415 16.9384C18.6833 17.8214 17.9583 18.5375 17.0697 18.9848C16.1811 19.432 15.1741 19.5877 14.1919 19.4297C13.2097 19.2716 12.3023 18.8079 11.5989 18.1044C10.8954 17.401 10.4317 16.4936 10.2736 15.5114C10.1156 14.5292 10.2713 13.5222 10.7185 12.6336C11.1658 11.7449 11.8819 11.02 12.7649 10.5618C13.6479 10.1036 14.653 9.93551 15.6371 10.0814C16.6408 10.2303 17.5702 10.698 18.2877 11.4156C19.0053 12.1331 19.473 13.0624 19.6219 14.0662Z" stroke="#828C9F" stroke-width="2.04167" stroke-linecap="round" stroke-linejoin="round"/>
<path d="M21.3953 8.30737H21.4067" stroke="#828C9F" stroke-width="2.04167" stroke-linecap="round" stroke-linejoin="round"/>
</svg>
