<svg width="165" height="100" viewBox="0 0 165 100" fill="none" xmlns="http://www.w3.org/2000/svg">
<g clip-path="url(#clip0)">
<path d="M149.612 5.53367C149.753 4.54474 148.34 3.72063 147.28 3.62644C146.786 3.57935 146.244 3.67353 145.773 3.48517C144.737 3.13198 144.314 1.78985 143.301 1.36602C142.548 1.03638 141.676 1.34248 140.947 1.69567C140.217 2.0724 139.487 2.51978 138.663 2.59042C137.956 2.63751 137.179 2.3785 136.543 2.70815C136.073 2.96715 135.837 3.50871 135.413 3.81481C134.989 4.12091 134.448 4.19155 133.93 4.21509C133.412 4.23864 132.87 4.23864 132.399 4.4741C131.928 4.68601 131.528 5.18048 131.622 5.69849L149.612 5.53367Z" fill="#F5F5F5"/>
<path d="M36.1902 23.311H16.2938V86.3909H36.1902V23.311Z" fill="#F5F5F5"/>
<path d="M36.1903 23.311H26.2303V86.2025H36.1903V23.311Z" fill="#EBEBEB"/>
<path d="M25.5709 17.1187H18.5542V23.3113H25.5709V17.1187Z" fill="#F5F5F5"/>
<path d="M25.571 17.1187H23.8992V23.3113H25.571V17.1187Z" fill="#EBEBEB"/>
<path d="M14.6221 23.3113V22.9581H36.7553V23.3113" fill="#E0E0E0"/>
<path d="M21.8978 26.019H20.2025V29.5745H21.8978V26.019Z" fill="#FAFAFA"/>
<path d="M26.2303 30.9638C26.2303 31.0109 23.9934 31.0345 21.2621 31.0345C18.5072 31.0345 16.2938 31.0109 16.2938 30.9638C16.2938 30.9167 18.5307 30.8932 21.2621 30.8932C24.0169 30.8932 26.2303 30.9167 26.2303 30.9638Z" fill="#E0E0E0"/>
<path d="M31.9518 26.0195H30.2565V29.575H31.9518V26.0195Z" fill="#E0E0E0"/>
<path d="M36.2608 30.9644C36.2608 31.0115 34.024 31.0351 31.2926 31.0351C28.5377 31.0351 26.3244 31.0115 26.3244 30.9644C26.3244 30.9173 28.5613 30.8938 31.2926 30.8938C34.0475 30.8938 36.2608 30.9173 36.2608 30.9644Z" fill="#E0E0E0"/>
<path d="M31.952 33.0597H30.2567V36.6151H31.952V33.0597Z" fill="#E0E0E0"/>
<path d="M36.2608 38.0045C36.2608 38.0516 34.024 38.0751 31.2926 38.0751C28.5377 38.0751 26.3244 38.0516 26.3244 38.0045C26.3244 37.9574 28.5613 37.9338 31.2926 37.9338C34.0475 37.9338 36.2608 37.9809 36.2608 38.0045Z" fill="#E0E0E0"/>
<path d="M31.9518 40.3356H30.2565V43.891H31.9518V40.3356Z" fill="#E0E0E0"/>
<path d="M36.2608 45.2802C36.2608 45.3273 34.024 45.3509 31.2926 45.3509C28.5377 45.3509 26.3244 45.3273 26.3244 45.2802C26.3244 45.2331 28.5613 45.2096 31.2926 45.2096C34.0475 45.2096 36.2608 45.2331 36.2608 45.2802Z" fill="#E0E0E0"/>
<path d="M31.9518 47.5874H30.2565V51.1429H31.9518V47.5874Z" fill="#E0E0E0"/>
<path d="M36.2608 52.5323C36.2608 52.5794 34.024 52.6029 31.2926 52.6029C28.5377 52.6029 26.3244 52.5794 26.3244 52.5323C26.3244 52.4852 28.5613 52.4617 31.2926 52.4617C34.0475 52.4617 36.2608 52.5088 36.2608 52.5323Z" fill="#E0E0E0"/>
<path d="M31.9518 54.6509H30.2565V58.2063H31.9518V54.6509Z" fill="#E0E0E0"/>
<path d="M36.2608 59.5958C36.2608 59.6429 34.024 59.6664 31.2926 59.6664C28.5377 59.6664 26.3244 59.6429 26.3244 59.5958C26.3244 59.5487 28.5613 59.5251 31.2926 59.5251C34.0475 59.5251 36.2608 59.5487 36.2608 59.5958Z" fill="#E0E0E0"/>
<path d="M31.9518 61.7385H30.2565V65.294H31.9518V61.7385Z" fill="#E0E0E0"/>
<path d="M31.9518 68.92H30.2565V72.4755H31.9518V68.92Z" fill="#E0E0E0"/>
<path d="M36.2608 66.6832C36.2608 66.7303 34.024 66.7538 31.2926 66.7538C28.5377 66.7538 26.3244 66.7303 26.3244 66.6832C26.3244 66.6361 28.5613 66.6125 31.2926 66.6125C34.0475 66.6125 36.2608 66.6361 36.2608 66.6832Z" fill="#E0E0E0"/>
<path d="M21.8978 33.1772H20.2025V36.7327H21.8978V33.1772Z" fill="#FAFAFA"/>
<path d="M26.2303 38.1219C26.2303 38.169 23.9934 38.1925 21.2621 38.1925C18.5072 38.1925 16.2938 38.169 16.2938 38.1219C16.2938 38.0748 18.5307 38.0513 21.2621 38.0513C24.0169 38.0513 26.2303 38.0748 26.2303 38.1219Z" fill="#E0E0E0"/>
<path d="M21.8978 40.3351H20.2025V43.8905H21.8978V40.3351Z" fill="#FAFAFA"/>
<path d="M26.2303 45.2796C26.2303 45.3267 23.9934 45.3503 21.2621 45.3503C18.5072 45.3503 16.2938 45.3267 16.2938 45.2796C16.2938 45.2325 18.5307 45.209 21.2621 45.209C24.0169 45.209 26.2303 45.2325 26.2303 45.2796Z" fill="#E0E0E0"/>
<path d="M21.8978 47.493H20.2025V51.0485H21.8978V47.493Z" fill="#FAFAFA"/>
<path d="M26.2303 52.4379C26.2303 52.485 23.9934 52.5086 21.2621 52.5086C18.5072 52.5086 16.2938 52.485 16.2938 52.4379C16.2938 52.3909 18.5307 52.3673 21.2621 52.3673C24.0169 52.3673 26.2303 52.3909 26.2303 52.4379Z" fill="#E0E0E0"/>
<path d="M21.8978 54.6514H20.2025V58.2068H21.8978V54.6514Z" fill="#FAFAFA"/>
<path d="M26.2303 59.5957C26.2303 59.6428 23.9934 59.6663 21.2621 59.6663C18.5072 59.6663 16.2938 59.6428 16.2938 59.5957C16.2938 59.5486 18.5307 59.525 21.2621 59.525C24.0169 59.525 26.2303 59.5486 26.2303 59.5957Z" fill="#E0E0E0"/>
<path d="M21.8978 61.8091H20.2025V65.3645H21.8978V61.8091Z" fill="#FAFAFA"/>
<path d="M26.2303 66.7539C26.2303 66.801 23.9934 66.8245 21.2621 66.8245C18.5072 66.8245 16.2938 66.801 16.2938 66.7539C16.2938 66.7068 18.5307 66.6832 21.2621 66.6832C24.0169 66.6832 26.2303 66.7068 26.2303 66.7539Z" fill="#E0E0E0"/>
<path d="M21.8978 68.9668H20.2025V72.5222H21.8978V68.9668Z" fill="#FAFAFA"/>
<path d="M114.693 8.92468H86.0135V99.8359H114.693V8.92468Z" fill="#F5F5F5"/>
<path d="M114.716 8.92468H100.377V99.5769H114.716V8.92468Z" fill="#EBEBEB"/>
<path d="M99.4348 0.000488281H89.31V8.92443H99.4348V0.000488281Z" fill="#F5F5F5"/>
<path d="M99.4348 0.000488281H97.0095V8.92443H99.4348V0.000488281Z" fill="#EBEBEB"/>
<path d="M83.6354 8.92475V8.40674H115.54V8.92475" fill="#E0E0E0"/>
<path d="M94.1134 12.8098H91.6881V17.9193H94.1134V12.8098Z" fill="#FAFAFA"/>
<path d="M100.377 19.944C100.377 19.9911 97.1744 20.0382 93.1951 20.0382C89.2394 20.0382 86.0135 19.9911 86.0135 19.944C86.0135 19.8969 89.2158 19.8499 93.1951 19.8499C97.1508 19.8499 100.377 19.8969 100.377 19.944Z" fill="#E0E0E0"/>
<path d="M108.57 12.8099H106.145V17.9194H108.57V12.8099Z" fill="#E0E0E0"/>
<path d="M114.834 19.9445C114.834 19.9916 111.631 20.0387 107.652 20.0387C103.696 20.0387 100.471 19.9916 100.471 19.9445C100.471 19.8974 103.673 19.8503 107.652 19.8503C111.631 19.8503 114.834 19.8974 114.834 19.9445Z" fill="#E0E0E0"/>
<path d="M108.57 22.9813H106.145V28.0908H108.57V22.9813Z" fill="#E0E0E0"/>
<path d="M114.834 30.1162C114.834 30.1632 111.631 30.2103 107.652 30.2103C103.696 30.2103 100.471 30.1632 100.471 30.1162C100.471 30.0691 103.673 30.022 107.652 30.022C111.631 30.022 114.834 30.0691 114.834 30.1162Z" fill="#E0E0E0"/>
<path d="M108.57 33.4594H106.145V38.5688H108.57V33.4594Z" fill="#E0E0E0"/>
<path d="M114.834 40.5937C114.834 40.6408 111.631 40.6879 107.652 40.6879C103.696 40.6879 100.471 40.6408 100.471 40.5937C100.471 40.5466 103.673 40.4995 107.652 40.4995C111.631 40.476 114.834 40.5231 114.834 40.5937Z" fill="#E0E0E0"/>
<path d="M108.57 43.9371H106.145V49.0466H108.57V43.9371Z" fill="#E0E0E0"/>
<path d="M114.834 51.0479C114.834 51.095 111.631 51.1421 107.652 51.1421C103.696 51.1421 100.471 51.095 100.471 51.0479C100.471 51.0008 103.673 50.9537 107.652 50.9537C111.631 50.9537 114.834 51.0008 114.834 51.0479Z" fill="#E0E0E0"/>
<path d="M108.57 54.109H106.145V59.2185H108.57V54.109Z" fill="#E0E0E0"/>
<path d="M114.834 61.2199C114.834 61.267 111.631 61.3141 107.652 61.3141C103.696 61.3141 100.471 61.267 100.471 61.2199C100.471 61.1728 103.673 61.1257 107.652 61.1257C111.631 61.1257 114.834 61.1728 114.834 61.2199Z" fill="#E0E0E0"/>
<path d="M108.57 64.3042H106.145V69.4137H108.57V64.3042Z" fill="#E0E0E0"/>
<path d="M108.57 74.6644H106.145V79.7739H108.57V74.6644Z" fill="#E0E0E0"/>
<path d="M114.834 71.4389C114.834 71.486 111.631 71.5331 107.652 71.5331C103.696 71.5331 100.471 71.486 100.471 71.4389C100.471 71.3918 103.673 71.3447 107.652 71.3447C111.631 71.3447 114.834 71.3918 114.834 71.4389Z" fill="#E0E0E0"/>
<path d="M94.1134 23.1464H91.6881V28.2559H94.1134V23.1464Z" fill="#FAFAFA"/>
<path d="M100.377 30.2573C100.377 30.3044 97.1744 30.3515 93.1951 30.3515C89.2394 30.3515 86.0135 30.3044 86.0135 30.2573C86.0135 30.2102 89.2158 30.1631 93.1951 30.1631C97.1508 30.1631 100.377 30.2102 100.377 30.2573Z" fill="#E0E0E0"/>
<path d="M94.1134 33.4592H91.6881V38.5687H94.1134V33.4592Z" fill="#FAFAFA"/>
<path d="M100.377 40.5939C100.377 40.641 97.1744 40.6881 93.1951 40.6881C89.2394 40.6881 86.0135 40.641 86.0135 40.5939C86.0135 40.5468 89.2158 40.4998 93.1951 40.4998C97.1508 40.4998 100.377 40.5233 100.377 40.5939Z" fill="#E0E0E0"/>
<path d="M94.1134 43.7726H91.6881V48.8821H94.1134V43.7726Z" fill="#FAFAFA"/>
<path d="M100.377 50.9068C100.377 50.9539 97.1744 51.001 93.1951 51.001C89.2394 51.001 86.0135 50.9539 86.0135 50.9068C86.0135 50.8597 89.2158 50.8126 93.1951 50.8126C97.1508 50.8126 100.377 50.8597 100.377 50.9068Z" fill="#E0E0E0"/>
<path d="M94.1134 54.1091H91.6881V59.2186H94.1134V54.1091Z" fill="#FAFAFA"/>
<path d="M100.377 61.22C100.377 61.2671 97.1744 61.3142 93.1951 61.3142C89.2394 61.3142 86.0135 61.2671 86.0135 61.22C86.0135 61.1729 89.2158 61.1259 93.1951 61.1259C97.1508 61.1259 100.377 61.1729 100.377 61.22Z" fill="#E0E0E0"/>
<path d="M94.1134 64.4225H91.6881V69.532H94.1134V64.4225Z" fill="#FAFAFA"/>
<path d="M100.377 71.557C100.377 71.604 97.1744 71.6511 93.1951 71.6511C89.2394 71.6511 86.0135 71.604 86.0135 71.557C86.0135 71.5099 89.2158 71.4628 93.1951 71.4628C97.1508 71.4628 100.377 71.4863 100.377 71.557Z" fill="#E0E0E0"/>
<path d="M94.1134 74.7358H91.6881V79.8453H94.1134V74.7358Z" fill="#FAFAFA"/>
<path d="M124.841 50.1769H109.159V99.8355H124.841V50.1769Z" fill="#F5F5F5"/>
<path d="M124.841 50.1769H117V99.7177H124.841V50.1769Z" fill="#EBEBEB"/>
<path d="M116.482 45.2792H110.949V50.1532H116.482V45.2792Z" fill="#F5F5F5"/>
<path d="M116.482 45.2792H115.164V50.1532H116.482V45.2792Z" fill="#EBEBEB"/>
<path d="M107.864 50.1768V49.8707H125.288V50.1768" fill="#E0E0E0"/>
<path d="M113.562 52.2959H112.244V55.0979H113.562V52.2959Z" fill="#FAFAFA"/>
<path d="M117 56.1811C117 56.2047 115.234 56.2282 113.092 56.2282C110.925 56.2282 109.183 56.2047 109.183 56.1811C109.183 56.1576 110.925 56.134 113.092 56.134C115.234 56.134 117 56.1576 117 56.1811Z" fill="#E0E0E0"/>
<path d="M121.474 52.2959H120.155V55.0979H121.474V52.2959Z" fill="#E0E0E0"/>
<path d="M124.912 56.1811C124.912 56.2047 123.146 56.2282 121.003 56.2282C118.837 56.2282 117.094 56.2047 117.094 56.1811C117.094 56.1576 118.837 56.134 121.003 56.134C123.146 56.134 124.912 56.1576 124.912 56.1811Z" fill="#E0E0E0"/>
<path d="M121.474 57.8531H120.155V60.6551H121.474V57.8531Z" fill="#E0E0E0"/>
<path d="M124.912 61.7386C124.912 61.7622 123.146 61.7857 121.003 61.7857C118.837 61.7857 117.094 61.7622 117.094 61.7386C117.094 61.7151 118.837 61.6915 121.003 61.6915C123.146 61.6915 124.912 61.7151 124.912 61.7386Z" fill="#E0E0E0"/>
<path d="M121.474 63.5747H120.155V66.3767H121.474V63.5747Z" fill="#E0E0E0"/>
<path d="M124.912 67.4598C124.912 67.4834 123.146 67.5069 121.003 67.5069C118.837 67.5069 117.094 67.4834 117.094 67.4598C117.094 67.4363 118.837 67.4127 121.003 67.4127C123.146 67.4127 124.912 67.4363 124.912 67.4598Z" fill="#E0E0E0"/>
<path d="M121.474 69.2961H120.155V72.0981H121.474V69.2961Z" fill="#E0E0E0"/>
<path d="M124.912 73.1811C124.912 73.2047 123.146 73.2282 121.003 73.2282C118.837 73.2282 117.094 73.2047 117.094 73.1811C117.094 73.1576 118.837 73.134 121.003 73.134C123.146 73.134 124.912 73.1576 124.912 73.1811Z" fill="#E0E0E0"/>
<path d="M121.474 74.853H120.155V77.655H121.474V74.853Z" fill="#E0E0E0"/>
<path d="M124.912 78.7382C124.912 78.7618 123.146 78.7853 121.003 78.7853C118.837 78.7853 117.094 78.7618 117.094 78.7382C117.094 78.7147 118.837 78.6912 121.003 78.6912C123.146 78.6912 124.912 78.7147 124.912 78.7382Z" fill="#E0E0E0"/>
<path d="M121.474 80.4336H120.155V83.2356H121.474V80.4336Z" fill="#E0E0E0"/>
<path d="M121.474 86.0845H120.155V88.8864H121.474V86.0845Z" fill="#E0E0E0"/>
<path d="M124.912 84.3186C124.912 84.3421 123.146 84.3657 121.003 84.3657C118.837 84.3657 117.094 84.3421 117.094 84.3186C117.094 84.295 118.837 84.2715 121.003 84.2715C123.146 84.2715 124.912 84.295 124.912 84.3186Z" fill="#E0E0E0"/>
<path d="M113.562 57.9236H112.244V60.7256H113.562V57.9236Z" fill="#FAFAFA"/>
<path d="M117 61.8318C117 61.8554 115.234 61.8789 113.092 61.8789C110.925 61.8789 109.183 61.8554 109.183 61.8318C109.183 61.8083 110.925 61.7847 113.092 61.7847C115.234 61.7612 117 61.7848 117 61.8318Z" fill="#E0E0E0"/>
<path d="M113.562 63.5745H112.244V66.3764H113.562V63.5745Z" fill="#FAFAFA"/>
<path d="M117 67.4596C117 67.4831 115.234 67.5067 113.092 67.5067C110.925 67.5067 109.183 67.4831 109.183 67.4596C109.183 67.436 110.925 67.4125 113.092 67.4125C115.234 67.4125 117 67.436 117 67.4596Z" fill="#E0E0E0"/>
<path d="M113.562 69.2019H112.244V72.0039H113.562V69.2019Z" fill="#FAFAFA"/>
<path d="M117 73.111C117 73.1346 115.234 73.1581 113.092 73.1581C110.925 73.1581 109.183 73.1346 109.183 73.111C109.183 73.0875 110.925 73.0639 113.092 73.0639C115.234 73.0404 117 73.0639 117 73.111Z" fill="#E0E0E0"/>
<path d="M113.562 74.853H112.244V77.655H113.562V74.853Z" fill="#FAFAFA"/>
<path d="M117 78.7382C117 78.7618 115.234 78.7853 113.092 78.7853C110.925 78.7853 109.183 78.7618 109.183 78.7382C109.183 78.7147 110.925 78.6912 113.092 78.6912C115.234 78.6912 117 78.7147 117 78.7382Z" fill="#E0E0E0"/>
<path d="M113.562 80.4805H112.244V83.2825H113.562V80.4805Z" fill="#FAFAFA"/>
<path d="M117 84.389C117 84.4125 115.234 84.4361 113.092 84.4361C110.925 84.4361 109.183 84.4125 109.183 84.389C109.183 84.3654 110.925 84.3419 113.092 84.3419C115.234 84.3183 117 84.3419 117 84.389Z" fill="#E0E0E0"/>
<path d="M113.562 86.1316H112.244V88.9336H113.562V86.1316Z" fill="#FAFAFA"/>
<path d="M46.2443 67.8123H29.3618V99.8349H46.2443V67.8123Z" fill="#E0E0E0"/>
<path d="M46.2444 67.8124H38.3329V99.835H46.2444V67.8124Z" fill="#EBEBEB"/>
<path d="M34.4007 70.8268H32.8938V74.5235H34.4007V70.8268Z" fill="#F5F5F5"/>
<path d="M34.4007 85.2606H32.8938V88.9573H34.4007V85.2606Z" fill="#F5F5F5"/>
<path d="M38.3329 75.96C38.3329 75.9836 36.3315 76.0071 33.8592 76.0071C31.3869 76.0071 29.3855 75.9836 29.3855 75.96C29.3855 75.9365 31.3869 75.9129 33.8592 75.9129C36.308 75.8894 38.3329 75.9365 38.3329 75.96Z" fill="#F5F5F5"/>
<path d="M34.4007 78.1023H32.8938V81.799H34.4007V78.1023Z" fill="#F5F5F5"/>
<path d="M38.3329 83.2353C38.3329 83.2588 36.3315 83.2824 33.8592 83.2824C31.3869 83.2824 29.3855 83.2588 29.3855 83.2353C29.3855 83.2117 31.3869 83.1882 33.8592 83.1882C36.308 83.1646 38.3329 83.1882 38.3329 83.2353Z" fill="#F5F5F5"/>
<path d="M41.5116 70.8262H40.0047V74.5229H41.5116V70.8262Z" fill="#E0E0E0"/>
<path d="M44.8082 70.8262H43.3012V74.5229H44.8082V70.8262Z" fill="#E0E0E0"/>
<path d="M41.5116 77.8196H40.0047V81.5163H41.5116V77.8196Z" fill="#E0E0E0"/>
<path d="M44.8082 77.8196H43.3012V81.5163H44.8082V77.8196Z" fill="#E0E0E0"/>
<path d="M41.5116 84.8127H40.0047V88.5095H41.5116V84.8127Z" fill="#E0E0E0"/>
<path d="M44.8082 84.8127H43.3012V88.5095H44.8082V84.8127Z" fill="#E0E0E0"/>
<path d="M47.4924 67.0356H28.0904V67.8362H47.4924V67.0356Z" fill="#E0E0E0"/>
<path d="M46.3621 67.9067C46.3621 67.9303 42.5948 67.9538 37.9326 67.9538C33.2705 67.9538 29.5032 67.9303 29.5032 67.9067C29.5032 67.8832 33.2705 67.8596 37.9326 67.8596C42.5712 67.8596 46.3621 67.8832 46.3621 67.9067Z" fill="#EBEBEB"/>
<path d="M29.5503 99.8112H2.37817L2.26044 56.8633H29.4326L29.5503 99.8112Z" fill="#EBEBEB"/>
<path d="M29.4325 56.8633H15.8465V99.8112H29.4325V56.8633Z" fill="#E0E0E0"/>
<path d="M14.9753 48.4102H5.36852V56.8632H14.9753V48.4102Z" fill="#EBEBEB"/>
<path d="M14.9517 48.4102H12.6677V56.8632H14.9517V48.4102Z" fill="#E0E0E0"/>
<path d="M30.2331 56.3689H-3.05176e-05V56.8634H30.2331V56.3689Z" fill="#E0E0E0"/>
<path d="M9.93637 60.5599H7.62886V65.4104H9.93637V60.5599Z" fill="white"/>
<path d="M15.8465 67.3177C15.8465 67.3648 12.809 67.4119 9.04168 67.4119C5.29786 67.4119 2.23688 67.3648 2.23688 67.3177C2.23688 67.2706 5.27432 67.2235 9.04168 67.2235C12.809 67.2235 15.8465 67.2471 15.8465 67.3177Z" fill="#E0E0E0"/>
<path d="M23.6402 60.5601H21.3327V65.4105H23.6402V60.5601Z" fill="#F5F5F5"/>
<path d="M29.5503 67.3177C29.5503 67.3648 26.5129 67.4119 22.7455 67.4119C19.0017 67.4119 15.9407 67.3648 15.9407 67.3177C15.9407 67.2706 18.9782 67.2235 22.7455 67.2235C26.5129 67.2235 29.5503 67.2471 29.5503 67.3177Z" fill="#EBEBEB"/>
<path d="M23.6402 70.1904H21.3327V75.0409H23.6402V70.1904Z" fill="#F5F5F5"/>
<path d="M29.5503 76.9248C29.5503 76.9718 26.5129 77.0189 22.7455 77.0189C19.0017 77.0189 15.9407 76.9718 15.9407 76.9248C15.9407 76.8777 18.9782 76.8306 22.7455 76.8306C26.5129 76.8541 29.5503 76.8777 29.5503 76.9248Z" fill="#EBEBEB"/>
<path d="M23.6402 80.1031H21.3327V84.9536H23.6402V80.1031Z" fill="#F5F5F5"/>
<path d="M29.5502 86.861C29.5502 86.9081 26.5128 86.9552 22.7454 86.9552C19.0016 86.9552 15.9406 86.9081 15.9406 86.861C15.9406 86.8139 18.9781 86.7668 22.7454 86.7668C26.5128 86.7668 29.5502 86.8139 29.5502 86.861Z" fill="#EBEBEB"/>
<path d="M23.6402 90.0164H21.3327V94.8668H23.6402V90.0164Z" fill="#F5F5F5"/>
<path d="M29.5503 96.7741C29.5503 96.8212 26.5129 96.8683 22.7455 96.8683C19.0017 96.8683 15.9407 96.8212 15.9407 96.7741C15.9407 96.727 18.9782 96.6799 22.7455 96.6799C26.5129 96.6799 29.5503 96.727 29.5503 96.7741Z" fill="#EBEBEB"/>
<path d="M9.93637 70.3318H7.62886V75.1823H9.93637V70.3318Z" fill="white"/>
<path d="M15.8465 77.0894C15.8465 77.1365 12.809 77.1836 9.04168 77.1836C5.29786 77.1836 2.23688 77.1365 2.23688 77.0894C2.23688 77.0423 5.27432 76.9952 9.04168 76.9952C12.809 76.9952 15.8465 77.0423 15.8465 77.0894Z" fill="#E0E0E0"/>
<path d="M9.93637 80.1031H7.62886V84.9536H9.93637V80.1031Z" fill="white"/>
<path d="M15.8465 86.8609C15.8465 86.908 12.809 86.9551 9.04168 86.9551C5.29786 86.9551 2.23688 86.908 2.23688 86.8609C2.23688 86.8138 5.27432 86.7667 9.04168 86.7667C12.809 86.7667 15.8465 86.8138 15.8465 86.8609Z" fill="#E0E0E0"/>
<path d="M9.93637 89.8749H7.62886V94.7254H9.93637V89.8749Z" fill="white"/>
<path d="M15.8465 96.6328C15.8465 96.6798 12.809 96.7269 9.04168 96.7269C5.29786 96.7269 2.23688 96.6798 2.23688 96.6328C2.23688 96.5857 5.27432 96.5386 9.04168 96.5386C12.809 96.5386 15.8465 96.5857 15.8465 96.6328Z" fill="#E0E0E0"/>
<path d="M158.37 33.3179C158.559 31.8816 156.557 30.7278 155.05 30.5865C154.321 30.5395 153.591 30.6336 152.884 30.3982C151.401 29.8802 150.812 27.9729 149.376 27.3607C148.293 26.9134 147.045 27.3136 146.009 27.8317C144.973 28.3497 143.937 29.0325 142.759 29.1031C141.747 29.1738 140.64 28.797 139.746 29.2915C139.086 29.6682 138.733 30.4217 138.121 30.8691C137.532 31.3165 136.732 31.4107 136.002 31.4342C135.248 31.4813 134.495 31.4813 133.812 31.7874C133.129 32.0935 132.588 32.8234 132.705 33.5533L158.37 33.3179Z" fill="#F5F5F5"/>
<path d="M164.375 84.131H142.524V99.8362H164.375V84.131Z" fill="#EBEBEB"/>
<path d="M148.387 84.13C148.411 84.13 148.387 87.45 148.387 87.45H146.762V84.13H148.387Z" fill="#F5F5F5"/>
<path d="M153.471 99.8221H164.397V84.1169H153.471V99.8221Z" fill="#E0E0E0"/>
<path d="M146.103 96.7505H143.183V98.8225H146.103V96.7505Z" fill="white"/>
<path d="M148.128 96.7505H146.668V98.8225H148.128V96.7505Z" fill="white"/>
<path d="M162.303 73.8876H148.081V84.1301H162.303V73.8876Z" fill="#EBEBEB"/>
<path d="M151.895 73.887C151.919 73.887 151.895 76.0532 151.895 76.0532H150.836V73.887H151.895Z" fill="#F5F5F5"/>
<path d="M155.203 84.1171H162.314V73.8745H155.203V84.1171Z" fill="#E0E0E0"/>
<path d="M150.412 82.1053H148.505V83.4475H150.412V82.1053Z" fill="white"/>
<path d="M151.707 82.1053H150.765V83.4475H151.707V82.1053Z" fill="white"/>
<path d="M16.8118 5.88638C16.9296 5.08582 15.7758 4.40298 14.9282 4.35589C14.5279 4.33234 14.1041 4.37944 13.7038 4.26171C12.8561 3.97915 12.5265 2.89604 11.7024 2.54285C11.0902 2.28384 10.3838 2.5193 9.79513 2.80185C9.20648 3.10795 8.61782 3.48469 7.95854 3.50823C7.39343 3.55532 6.75769 3.31986 6.26322 3.60242C5.88648 3.81433 5.69812 4.23816 5.34493 4.49717C5.01528 4.75617 4.56791 4.80326 4.14408 4.82681C3.72025 4.85036 3.29642 4.85036 2.89614 5.03872C2.5194 5.20355 2.18976 5.62738 2.28394 6.02766L16.8118 5.88638Z" fill="#EBEBEB"/>
<path d="M162.326 22.298C162.444 21.521 161.314 20.8617 160.49 20.7911C160.089 20.7676 159.666 20.8146 159.289 20.6969C158.465 20.4144 158.135 19.3548 157.335 19.0251C156.746 18.7661 156.04 19.0016 155.474 19.2842C154.886 19.5667 154.321 19.9434 153.685 19.9905C153.12 20.0376 152.508 19.8257 152.013 20.0847C151.636 20.2966 151.448 20.7205 151.118 20.9559C150.789 21.1914 150.365 21.262 149.941 21.262C149.541 21.2856 149.117 21.2856 148.74 21.4504C148.364 21.6152 148.057 22.0155 148.128 22.4158L162.326 22.298Z" fill="#EBEBEB"/>
<path d="M41.8648 10.8785C42.0767 9.39513 39.9811 8.19428 38.4271 8.05301C37.6736 7.98237 36.8966 8.1001 36.1902 7.86464C34.6597 7.32308 34.0475 5.34521 32.5406 4.70947C31.4339 4.23855 30.1389 4.66238 29.0558 5.20394C27.9726 5.7455 26.9131 6.42833 25.6887 6.52251C24.6291 6.59315 23.4989 6.19287 22.5806 6.71088C21.8978 7.08762 21.5446 7.88818 20.9088 8.3591C20.2966 8.80648 19.4725 8.90066 18.719 8.94776C17.942 8.99485 17.165 8.99485 16.4586 9.32449C15.7522 9.65414 15.1871 10.3841 15.3284 11.1375L41.8648 10.8785Z" fill="#F5F5F5"/>
<path d="M164.304 99.8356C164.304 99.8592 128.349 99.9063 84.0121 99.9063C39.6514 99.9063 3.69662 99.8827 3.69662 99.8356C3.69662 99.8121 39.6514 99.765 84.0121 99.765C128.349 99.765 164.304 99.8121 164.304 99.8356Z" fill="#263238"/>
<path d="M67.9538 89.9695C68.4482 90.0637 68.8956 90.4169 69.1546 90.8407C69.4372 91.2645 69.5549 91.7825 69.602 92.3005C69.6962 93.2895 69.3665 94.3726 68.9427 95.2673C67.9773 94.7493 67.5299 93.5485 67.318 92.9363C67.0355 91.9709 67.0826 90.0166 67.9538 89.9695Z" fill="#E8505B"/>
<path d="M70.2613 96.6567C70.0023 96.1387 70.0965 95.5029 70.4497 95.032C70.7794 94.5611 71.3445 94.2785 71.9096 94.2079C72.1686 94.1608 72.4747 94.1843 72.663 94.3727C72.8514 94.5375 72.8985 94.8201 72.8278 95.0555C72.7572 95.291 72.6159 95.5029 72.4276 95.6677C71.7918 96.2564 71.109 96.7273 70.2613 96.6567Z" fill="#E8505B"/>
<path d="M69.861 99.8351C69.861 99.8351 69.861 99.7645 69.8374 99.6232C69.8374 99.4819 69.8374 99.2936 69.8139 99.0581C69.8139 98.5872 69.7904 97.9279 69.9787 97.2215C70.1906 96.5387 70.5674 95.9736 70.9206 95.6439C71.0854 95.4791 71.2502 95.3849 71.3679 95.3143C71.415 95.2907 71.4621 95.2672 71.5092 95.2436C71.5328 95.2201 71.5563 95.2201 71.5563 95.2201C71.5563 95.2436 71.2973 95.3378 70.9441 95.6675C70.6145 95.9971 70.2377 96.5387 70.0494 97.2215C69.8374 97.9043 69.861 98.5636 69.861 99.0346C69.861 99.27 69.861 99.4584 69.861 99.5997C69.861 99.7645 69.861 99.8351 69.861 99.8351Z" fill="#263238"/>
<path d="M68.0479 91.4767C68.0479 91.4767 68.0715 91.5002 68.0715 91.5709C68.095 91.6415 68.1186 91.7121 68.1421 91.8063C68.2128 92.0182 68.2834 92.3243 68.3776 92.7011C68.566 93.4781 68.825 94.5377 69.084 95.715C69.343 96.8923 69.5313 97.9754 69.6726 98.7524C69.7433 99.1527 69.7904 99.4588 69.8374 99.6707C69.861 99.7649 69.861 99.8591 69.8845 99.9297C69.8845 99.9768 69.8845 100.024 69.8845 100.024C69.8845 100.024 69.8845 100 69.861 99.9297C69.8374 99.8591 69.8374 99.7884 69.8139 99.6707C69.7668 99.4352 69.7197 99.1291 69.6255 98.7524C69.4843 97.9754 69.2723 96.9158 69.0133 95.7385C68.7543 94.5612 68.5189 93.5016 68.3305 92.7246C68.2363 92.3479 68.1657 92.0418 68.1186 91.8063C68.095 91.7121 68.0715 91.618 68.0715 91.5473C68.0479 91.5002 68.0479 91.4767 68.0479 91.4767Z" fill="#263238"/>
<path d="M68.9898 97.5513C68.5424 96.4211 67.53 95.5499 66.3527 95.2673C66.0466 95.1967 65.6698 95.1967 65.505 95.4322C65.3166 95.6912 65.4579 96.0444 65.6227 96.2798C66.3291 97.3394 67.7419 97.9045 68.9898 97.622" fill="#E8505B"/>
<path d="M66.6823 96.162C66.6823 96.162 66.7529 96.162 66.8707 96.2091C66.9413 96.2326 67.012 96.2326 67.0826 96.2797C67.1768 96.3033 67.271 96.3268 67.3651 96.3739C67.4593 96.421 67.5771 96.4681 67.6948 96.5152C67.8125 96.5623 67.9302 96.6565 68.048 96.7271C68.2834 96.8919 68.5424 97.0803 68.7779 97.3393C69.0134 97.5983 69.2017 97.8573 69.343 98.1163C69.4136 98.2576 69.4843 98.3753 69.5314 98.493C69.5785 98.6108 69.6256 98.7285 69.6491 98.8227C69.6962 98.9169 69.6962 99.0346 69.7197 99.1052C69.7433 99.1994 69.7433 99.2701 69.7668 99.3172C69.7904 99.4349 69.7904 99.5055 69.7904 99.5055C69.7668 99.5055 69.7433 99.2465 69.602 98.8227C69.5549 98.7285 69.5314 98.6108 69.4607 98.493C69.4136 98.3753 69.343 98.2576 69.2724 98.1163C69.1311 97.8573 68.9427 97.5983 68.7073 97.3628C68.4718 97.1274 68.2363 96.9155 68.0009 96.7506C67.8832 96.68 67.7654 96.6094 67.6477 96.5387C67.53 96.4681 67.4358 96.421 67.3181 96.3739C66.9413 96.2326 66.6823 96.1855 66.6823 96.162Z" fill="#263238"/>
<path d="M142.924 97.3628C143.019 97.0096 142.783 96.68 142.524 96.421C142.265 96.162 141.959 95.9501 141.841 95.6204C141.629 95.0789 141.912 94.396 141.559 93.9487C141.347 93.6897 140.97 93.5955 140.758 93.3129C140.664 93.1716 140.617 92.9833 140.593 92.8185C140.381 91.9237 139.958 91.0996 139.322 90.4403C139.275 91.2409 139.463 92.0414 139.816 92.7243C139.958 93.0068 140.146 93.2894 140.193 93.5955C140.264 94.1135 139.981 94.6315 140.122 95.126C140.264 95.6911 140.899 96.0914 140.947 96.68C140.97 97.1745 140.546 97.6218 140.57 98.1163C140.593 98.3282 140.688 98.5166 140.782 98.705C141.158 99.3407 141.724 99.7881 142.595 99.7645L143.654 99.8116L142.924 97.3628Z" fill="#E8505B"/>
<g opacity="0.3">
<g opacity="0.3">
<g opacity="0.3">
<g opacity="0.3">
<g opacity="0.3">
<g opacity="0.3">
<path opacity="0.3" d="M142.924 97.3628C143.019 97.0096 142.783 96.68 142.524 96.421C142.265 96.162 141.959 95.9501 141.841 95.6204C141.629 95.0789 141.912 94.396 141.559 93.9487C141.347 93.6897 140.97 93.5955 140.758 93.3129C140.664 93.1716 140.617 92.9833 140.593 92.8185C140.381 91.9237 139.958 91.0996 139.322 90.4403C139.275 91.2409 139.463 92.0414 139.816 92.7243C139.958 93.0068 140.146 93.2894 140.193 93.5955C140.264 94.1135 139.981 94.6315 140.122 95.126C140.264 95.6911 140.899 96.0914 140.947 96.68C140.97 97.1745 140.546 97.6218 140.57 98.1163C140.593 98.3282 140.688 98.5166 140.782 98.705C141.158 99.3407 141.724 99.7881 142.595 99.7645L143.654 99.8116L142.924 97.3628Z" fill="black"/>
</g>
</g>
</g>
</g>
</g>
</g>
<path d="M143.866 99.8347C143.866 99.8347 143.96 99.8582 144.149 99.8347C144.243 99.8111 144.361 99.7876 144.502 99.7405C144.643 99.6934 144.784 99.6227 144.926 99.505C144.996 99.4344 145.067 99.3637 145.09 99.2696C145.138 99.1754 145.138 99.0576 145.138 98.9635C145.138 98.8457 145.138 98.728 145.161 98.6338C145.185 98.5161 145.232 98.3984 145.279 98.3042C145.397 98.0923 145.609 97.8803 145.679 97.5742C145.75 97.2917 145.703 96.962 145.656 96.6559C145.609 96.3498 145.561 95.9967 145.679 95.667C145.797 95.3374 146.032 95.0313 146.127 94.6781C146.244 94.3013 146.197 93.9011 146.221 93.5008C146.221 93.3124 146.268 93.1005 146.362 92.9121C146.456 92.7238 146.574 92.5589 146.668 92.347C146.856 91.9467 146.88 91.4994 146.927 91.052C146.951 90.8401 146.974 90.6046 146.998 90.3692C147.021 90.1337 147.045 89.9218 147.115 89.6863C147.186 89.4744 147.28 89.2625 147.374 89.027C147.422 88.9093 147.469 88.8151 147.492 88.6974C147.516 88.5797 147.516 88.4619 147.516 88.3442C147.539 88.1087 147.516 87.8497 147.492 87.6143C147.469 87.3788 147.422 87.1198 147.398 86.8843C147.398 86.8608 147.398 86.8608 147.398 86.8372V86.7902L147.351 86.8137C147.115 86.9314 146.927 87.0963 146.786 87.2846C146.645 87.473 146.527 87.7085 146.433 87.9204C146.268 88.3677 146.197 88.8387 146.103 89.286C146.009 89.7334 145.891 90.1808 145.679 90.5575C145.561 90.7459 145.42 90.9107 145.302 91.0991C145.185 91.2875 145.067 91.4758 145.043 91.6877C144.973 92.1351 145.232 92.5118 145.185 92.9121C145.161 93.1005 145.09 93.2889 144.996 93.4537C144.902 93.6185 144.784 93.7833 144.69 93.9246C144.572 94.0894 144.478 94.2307 144.408 94.4191C144.337 94.5839 144.29 94.7723 144.29 94.9371C144.266 95.2903 144.313 95.6199 144.29 95.9496C144.266 96.2792 144.149 96.5618 144.031 96.8208C143.913 97.0798 143.772 97.3152 143.654 97.5507C143.584 97.6684 143.536 97.7862 143.489 97.8803C143.442 97.9981 143.419 98.1158 143.395 98.21C143.372 98.4219 143.372 98.6338 143.395 98.7986C143.442 99.1518 143.584 99.4108 143.701 99.5757C143.725 99.6227 143.772 99.6463 143.795 99.6698C143.819 99.6934 143.843 99.7169 143.866 99.7169C143.843 99.8111 143.866 99.8347 143.866 99.8347C143.866 99.8347 143.772 99.7876 143.654 99.6227C143.536 99.4815 143.419 99.2225 143.372 98.8693C143.348 98.6809 143.348 98.4925 143.395 98.2806C143.419 98.1864 143.442 98.0687 143.489 97.951C143.536 97.8332 143.584 97.7391 143.654 97.6213C143.772 97.3859 143.913 97.174 144.054 96.915C144.172 96.6559 144.29 96.3734 144.313 96.0437C144.337 95.7141 144.29 95.3845 144.313 95.0313C144.337 94.8664 144.361 94.6781 144.431 94.5133C144.502 94.3484 144.596 94.1836 144.714 94.0423C144.831 93.8775 144.926 93.7362 145.043 93.5479C145.138 93.383 145.232 93.1947 145.255 92.9828C145.302 92.5589 145.067 92.1587 145.138 91.7584C145.161 91.5465 145.279 91.3581 145.397 91.1933C145.514 91.0049 145.656 90.8401 145.773 90.6517C146.009 90.275 146.127 89.8041 146.221 89.3567C146.315 88.9093 146.362 88.4384 146.55 87.991C146.645 87.7791 146.739 87.5672 146.88 87.3553C147.021 87.1669 147.21 87.0021 147.422 86.9079L147.374 86.8843C147.374 86.9079 147.374 86.9079 147.374 86.9314C147.398 87.1669 147.445 87.4259 147.469 87.6614C147.492 87.8968 147.516 88.1323 147.492 88.3677C147.492 88.4855 147.469 88.6032 147.469 88.7209C147.445 88.8387 147.398 88.9329 147.351 89.0506C147.257 89.2625 147.163 89.4744 147.092 89.7099C147.021 89.9453 146.998 90.1572 146.974 90.3927C146.951 90.6282 146.927 90.8401 146.904 91.0755C146.856 91.5229 146.809 91.9703 146.645 92.347C146.55 92.5354 146.433 92.7238 146.362 92.9121C146.268 93.1005 146.221 93.3124 146.221 93.5243C146.197 93.9246 146.244 94.3249 146.15 94.6781C146.032 95.0313 145.82 95.3374 145.703 95.667C145.585 96.0202 145.632 96.3734 145.679 96.6795C145.726 96.9856 145.773 97.3152 145.703 97.5742C145.632 97.8568 145.444 98.0687 145.326 98.2806C145.255 98.3984 145.208 98.5161 145.185 98.6338C145.161 98.7515 145.161 98.8693 145.161 98.987C145.161 99.1047 145.161 99.1989 145.114 99.2931C145.09 99.3873 145.02 99.4579 144.949 99.505C144.808 99.6227 144.667 99.6934 144.549 99.7405C144.431 99.7876 144.313 99.8111 144.219 99.8347C144.125 99.8582 144.054 99.8582 144.007 99.8582C143.89 99.8347 143.866 99.8347 143.866 99.8347Z" fill="#263238"/>
<path d="M147.186 87.449C147.186 87.449 147.186 87.449 147.186 87.4725C147.186 87.4961 147.163 87.5196 147.163 87.5667C147.139 87.6609 147.116 87.7786 147.068 87.9199C147.021 88.0847 146.927 88.2495 146.857 88.4615C146.762 88.6734 146.692 88.9324 146.598 89.2149C146.527 89.4975 146.456 89.8036 146.362 90.1332C146.291 90.4629 146.197 90.8161 146.032 91.1693C145.938 91.3341 145.844 91.5224 145.773 91.7108C145.703 91.8992 145.656 92.1111 145.632 92.323C145.585 92.7468 145.514 93.1707 145.397 93.5945C145.185 94.4657 144.996 95.2663 144.808 96.0197C144.62 96.7732 144.455 97.4325 144.314 97.9976C144.172 98.5627 144.055 99.0101 143.984 99.3397C143.937 99.5045 143.913 99.6223 143.89 99.6929C143.89 99.74 143.866 99.7635 143.866 99.7871C143.866 99.8106 143.866 99.8106 143.866 99.8106C143.866 99.8106 143.866 99.8106 143.866 99.7871C143.866 99.7635 143.89 99.74 143.89 99.6929C143.913 99.5987 143.937 99.481 143.984 99.3397C144.078 99.0101 144.196 98.5627 144.337 97.9976C144.478 97.4325 144.667 96.7732 144.855 96.0197C145.044 95.2663 145.232 94.4421 145.444 93.5945C145.538 93.1707 145.632 92.7233 145.679 92.323C145.703 92.1111 145.75 91.9227 145.821 91.7344C145.891 91.546 145.985 91.3812 146.08 91.2163C146.268 90.8631 146.339 90.51 146.409 90.1803C146.48 89.8507 146.55 89.5446 146.621 89.262C146.692 88.9795 146.786 88.744 146.857 88.5085C146.927 88.2966 147.021 88.1083 147.068 87.9434C147.116 87.7786 147.116 87.6609 147.139 87.5667C147.139 87.5196 147.163 87.4961 147.163 87.4725C147.186 87.449 147.186 87.449 147.186 87.449Z" fill="#263238"/>
<path d="M144.055 99.8351C144.737 99.4348 144.949 98.1868 144.643 97.4334C144.361 96.6799 143.866 95.9971 143.772 95.22C143.701 94.6079 143.913 93.9721 143.772 93.3835C143.584 92.5829 142.783 91.9472 142.807 91.123C142.807 90.6521 143.066 90.2283 143.066 89.7574C143.042 89.1923 142.595 88.7449 142.336 88.2269C141.912 87.4499 141.888 86.5551 141.747 85.6839C141.606 84.8127 141.276 83.8944 140.523 83.4706C140.405 84.2005 140.217 84.695 140.287 85.6839C140.311 86.0371 140.711 86.7199 140.782 87.497C140.805 87.9679 140.829 88.4388 140.876 88.8862C140.899 89.3335 140.923 89.8045 141.088 90.2283C141.206 90.5579 141.417 90.8405 141.512 91.1937C141.676 91.8294 141.465 92.5123 141.606 93.148C141.724 93.6896 142.1 94.1605 142.171 94.702C142.289 95.4791 141.771 96.2796 142.03 97.0096C142.147 97.3863 142.453 97.6688 142.548 98.0456C142.618 98.3281 142.548 98.6578 142.595 98.9403C142.689 99.4112 143.607 99.788 144.078 99.7644" fill="#E8505B"/>
<path d="M140.687 84.2C140.687 84.2 140.687 84.2235 140.687 84.247C140.687 84.2706 140.687 84.3177 140.711 84.3648C140.735 84.459 140.735 84.6238 140.782 84.8357C140.829 85.0476 140.923 85.2595 141.017 85.5421C141.111 85.8246 141.182 86.1307 141.276 86.4839C141.347 86.8371 141.417 87.2374 141.488 87.6377C141.559 88.0615 141.629 88.5089 141.841 88.9562C141.935 89.1682 142.053 89.4036 142.124 89.6391C142.218 89.8745 142.242 90.1335 142.265 90.3926C142.312 90.9106 142.359 91.4521 142.477 91.9937C142.689 93.0768 142.877 94.1128 143.066 95.0547C143.254 95.9965 143.442 96.8442 143.584 97.5505C143.725 98.2569 143.843 98.822 143.937 99.2223C143.984 99.4107 144.007 99.5755 144.031 99.6697C144.031 99.7168 144.055 99.7639 144.055 99.7874C144.055 99.811 144.055 99.8345 144.055 99.8345C144.055 99.8345 144.055 99.811 144.055 99.7874C144.055 99.7639 144.031 99.7168 144.031 99.6697C144.007 99.552 143.984 99.4107 143.937 99.2223C143.866 98.822 143.748 98.2569 143.607 97.5505C143.466 96.8442 143.301 95.9965 143.113 95.0547C142.924 94.1128 142.736 93.0768 142.524 91.9937C142.43 91.4521 142.359 90.9106 142.312 90.3926C142.289 90.1335 142.242 89.8745 142.171 89.6391C142.077 89.4036 141.982 89.1682 141.888 88.9562C141.676 88.5324 141.606 88.085 141.535 87.6612C141.464 87.2374 141.394 86.8606 141.323 86.5075C141.253 86.1543 141.158 85.8482 141.064 85.5656C140.97 85.2831 140.876 85.0712 140.829 84.8592C140.782 84.6709 140.758 84.506 140.758 84.4119C140.758 84.3648 140.735 84.3177 140.735 84.2941C140.687 84.2235 140.687 84.2 140.687 84.2Z" fill="#263238"/>
<path d="M123.993 68.7549H19.4255V79.2093H123.993V68.7549Z" fill="#E8505B"/>
<g opacity="0.4">
<g opacity="0.4">
<path opacity="0.4" d="M123.993 68.7549H19.4255V79.2093H123.993V68.7549Z" fill="black"/>
</g>
</g>
<path d="M101.342 80.5278H70.4733V90.2053H101.342V80.5278Z" fill="#455A64"/>
<path d="M48.9051 76.1482V88.9337H59.4537L63.6685 82.8117H140.617V76.1482H48.9051Z" fill="#263238"/>
<path d="M48.2458 35.6491C48.2223 35.2253 47.8691 34.8956 47.4217 34.9192C43.2541 35.084 23.4754 36.0023 19.4255 37.9566C16.3174 39.4635 12.9032 45.0439 10.5015 48.8113C8.78268 51.5191 4.96822 57.4998 4.1912 60.5608C3.53191 63.1509 3.15518 68.5429 3.20227 71.2036L4.28538 85.3548H22.2039L23.9934 80.6926C25.1707 77.6552 28.0904 75.6302 31.3633 75.6302H49.1641V52.1549L48.2458 35.6491Z" fill="#E8505B"/>
<path d="M17.3064 39.4872C14.834 41.8418 12.3617 45.8446 10.5016 48.7643C8.90044 51.2602 5.53336 56.5816 4.4267 59.7839C4.40315 59.8545 4.37961 59.9016 4.37961 59.9487C4.92117 59.8074 5.76882 59.4778 6.02783 58.9833C6.42811 58.2063 6.92258 55.522 13.1623 45.3737C15.0224 42.3127 16.8825 40.4997 17.3064 39.4872Z" fill="#455A64"/>
<path d="M39.0393 38.451C34.4478 38.71 24.535 39.3928 21.3562 40.476C17.2121 41.8887 12.5736 52.8376 12.3617 53.3085L9.23003 61.3142C9.15939 61.5497 9.32421 61.7851 9.55967 61.7851H17.636C17.9421 61.7851 18.2482 61.738 18.5307 61.6203L39.7928 53.6853C40.7582 53.3321 41.3939 52.4138 41.3939 51.3778V40.6643C41.3939 39.3928 40.3343 38.3804 39.0393 38.451Z" fill="#263238"/>
<path d="M10.1248 60.9844C10.1248 60.9844 13.1151 54.2738 14.1276 52.0605C15.6581 48.7405 19.2136 41.9357 21.5917 41.2058C23.805 40.5465 30.1389 39.7459 39.0629 39.2279C39.0864 39.2279 39.11 39.2279 39.157 39.2279C39.9576 39.2279 40.5934 39.8872 40.5934 40.6642V51.6131C40.5934 52.1547 40.2402 52.6491 39.7221 52.8611L24.0169 54.7918C22.7455 54.9567 21.5917 55.663 20.9089 56.7226L18.1775 60.8667C18.0127 60.9373 17.8479 60.9609 17.6831 60.9609H10.1248V60.9844Z" fill="#455A64"/>
<path d="M23.4753 54.9336L18.1304 60.8672L21.0972 41.112L21.8271 40.853L20.3672 55.4751C20.3437 55.8048 20.6498 56.0402 20.9559 55.9225L23.4753 54.9336Z" fill="#263238"/>
<path d="M2.84908 72.5693C2.82553 72.3103 2.91971 72.0984 3.03744 72.0984L5.91006 71.8394C6.14552 71.8158 6.35743 72.2632 6.40453 72.7812L6.52226 74.971C6.5458 75.3242 6.42807 75.6303 6.2868 75.6538L3.36709 76.1483C3.22581 76.1719 3.10808 75.9835 3.08454 75.7245L2.84908 72.5693Z" fill="#EBEBEB"/>
<path d="M23.4754 82.812H2.84906V91.0767H23.4754V82.812Z" fill="#263238"/>
<path d="M37.2604 99.7137C43.485 99.4743 48.337 94.2342 48.0976 88.0096C47.8582 81.785 42.6181 76.933 36.3935 77.1724C30.1689 77.4118 25.3169 82.6519 25.5563 88.8765C25.7957 95.1011 31.0358 99.9531 37.2604 99.7137Z" fill="#263238"/>
<path d="M25.5475 88.251V88.2745C25.4533 94.5142 30.445 99.6237 36.6612 99.7179C42.9009 99.8121 48.0104 94.8203 48.1046 88.6042V88.5806L25.5475 88.251Z" fill="#263238"/>
<path d="M28.891 88.3452C28.8203 92.7248 32.3287 96.3273 36.7083 96.3744C41.0878 96.445 44.6904 92.9367 44.7375 88.5571C44.8081 84.1775 41.2997 80.575 36.9202 80.5279C32.5642 80.4573 28.9616 83.9656 28.891 88.3452Z" fill="#FAFAFA"/>
<path d="M36.9437 80.5279C32.5641 80.4573 28.9616 83.9656 28.9145 88.3452L44.761 88.5806C44.8081 84.2011 41.3232 80.5985 36.9437 80.5279Z" fill="#E0E0E0"/>
<path d="M31.999 88.3923C31.9519 91.053 34.0946 93.2428 36.7553 93.2899C39.416 93.337 41.6058 91.1943 41.6529 88.5336C41.7 85.8729 39.5573 83.6831 36.8966 83.636C34.2359 83.5889 32.0461 85.7081 31.999 88.3923Z" fill="#263238"/>
<path d="M14.928 56.841H14.0097C12.9737 56.841 12.126 55.9933 12.126 54.9573V47.4932C12.126 46.4572 12.9737 45.6095 14.0097 45.6095H14.928C15.964 45.6095 16.8117 46.4572 16.8117 47.4932V54.9573C16.8117 56.0168 15.964 56.841 14.928 56.841Z" fill="#263238"/>
<path d="M10.1954 63.7872H9.9599V51.92C9.9599 50.7427 10.9253 49.7773 12.1026 49.7773H12.6677V50.0128H12.1026C11.043 50.0128 10.1954 50.8605 10.1954 51.92V63.7872Z" fill="#263238"/>
<path d="M11.7964 63.8109L11.1371 52.6971C11.1136 52.2969 11.2548 51.9437 11.5138 51.6611C11.7729 51.3786 12.1496 51.2137 12.5263 51.2137V51.4492C12.1967 51.4492 11.8906 51.5905 11.6787 51.8259C11.4668 52.0614 11.349 52.3675 11.3726 52.6971L12.0319 63.8109H11.7964Z" fill="#263238"/>
<path d="M12.5499 62.7275H9.37119V66.4007H12.5499V62.7275Z" fill="#263238"/>
<path d="M11.3726 55.7344H10.0776V55.9698H11.3726V55.7344Z" fill="#263238"/>
<path d="M22.1333 38.7573C22.1333 38.7573 22.2275 38.7337 22.4159 38.7102C22.6043 38.6866 22.8868 38.6631 23.24 38.616C23.9699 38.5218 25.053 38.4041 26.4423 38.2392C29.2442 37.9331 33.2942 37.4622 38.3801 36.8736C39.0158 36.8029 39.6751 36.7087 40.3344 36.6617C40.6641 36.6146 41.0173 36.6617 41.3469 36.7323C41.6765 36.8265 42.0297 36.9207 42.3358 37.109C42.948 37.4622 43.4896 37.9802 43.8192 38.6631C43.984 38.9927 44.1018 39.3459 44.1724 39.7226C44.2195 39.911 44.196 40.0994 44.2195 40.2877C44.2195 40.4761 44.2195 40.6645 44.2195 40.8528C44.2195 43.8903 44.2195 47.1632 44.2195 50.6245C44.2195 57.547 44.2195 65.2465 44.2195 73.4641V73.5347H44.1489C41.5117 73.5347 38.7804 73.5347 36.0019 73.5347C34.6127 73.5347 33.2235 73.5347 31.8108 73.5347C31.1044 73.5347 30.398 73.5112 29.6916 73.6289C28.9852 73.7231 28.3024 73.935 27.6431 74.194C25.5946 75.0652 23.9699 76.7841 23.1694 78.8091C23.0752 79.0681 22.9574 79.3035 22.9104 79.5861C22.8397 79.8451 22.7691 80.1041 22.722 80.3866L22.6513 80.7869L22.6278 80.9753V81.1872L22.6043 81.5875V81.7994V81.8229C22.6513 81.7758 22.5336 81.8936 22.5336 81.8936H22.5101H22.463H22.3688C21.2857 81.8936 20.2261 81.8936 19.1665 81.8936C14.9282 81.8936 10.8077 81.8936 6.87551 81.8936H6.82841V81.8465C6.82841 78.291 6.82841 74.8769 6.82841 71.604C6.82841 69.9793 6.82841 68.3782 6.82841 66.8241C6.82841 66.0471 6.82841 65.2701 6.82841 64.5166C6.82841 64.1399 6.82841 63.7631 6.82841 63.3864C6.82841 63.0097 6.87551 62.6329 6.89905 62.2797C7.08742 60.8199 7.55834 59.4307 8.24118 58.2298C8.90047 57.0054 9.51266 55.8281 10.1249 54.6979C11.3257 52.4375 12.4559 50.3419 13.4684 48.4347C14.4809 46.551 15.3756 44.8321 16.1762 43.3487C16.3646 42.972 16.5765 42.6188 16.7413 42.2656C16.8355 42.1008 16.9061 41.9124 17.0238 41.7711C17.118 41.6063 17.2358 41.465 17.3299 41.3238C17.7773 40.7587 18.2718 40.3348 18.7663 40.0052C19.7316 39.3459 20.6264 39.0869 21.215 38.9456C21.8272 38.7808 22.1333 38.7573 22.1333 38.7573C22.1333 38.7573 22.0627 38.7808 21.8979 38.8043C21.7566 38.8279 21.5211 38.875 21.215 38.9456C20.6264 39.0869 19.7552 39.3695 18.7898 40.0287C18.3189 40.3584 17.8244 40.7822 17.377 41.3473C17.2593 41.4886 17.1651 41.6299 17.0709 41.7947C16.9768 41.9595 16.8826 42.1243 16.7884 42.2892C16.6 42.6423 16.4116 42.9955 16.2233 43.3723C15.4463 44.8557 14.528 46.551 13.539 48.4582C12.5266 50.3654 11.4199 52.461 10.219 54.7215C9.60685 55.8517 8.99465 57.029 8.33536 58.2534C7.67607 59.4542 7.20515 60.8199 7.01678 62.2797C6.96969 62.6329 6.94615 63.0097 6.94615 63.3864C6.94615 63.7631 6.94615 64.1399 6.94615 64.5166C6.94615 65.2701 6.94615 66.0471 6.94615 66.8241C6.94615 68.3782 6.94615 69.9793 6.94615 71.604C6.94615 74.8769 6.94615 78.291 6.94615 81.8465L6.89905 81.7994C10.8312 81.7994 14.9282 81.7994 19.1901 81.7994C20.2497 81.7994 21.3328 81.7994 22.3923 81.7994H22.4865H22.5336H22.5572C22.5807 81.7758 22.4394 81.9171 22.4865 81.8465V81.8229V81.611L22.5101 81.2107V80.9988L22.5336 80.7869L22.6043 80.3866C22.6278 80.1041 22.722 79.8451 22.7926 79.5861C22.8397 79.3271 22.9574 79.0681 23.0516 78.8091C23.8522 76.7605 25.5004 75.0181 27.5725 74.1234C28.2318 73.8644 28.9381 73.6289 29.6445 73.5347C30.3509 73.417 31.0808 73.4406 31.7637 73.4406C33.1764 73.4406 34.5656 73.4406 35.9549 73.4406C38.7333 73.4406 41.4411 73.4406 44.1018 73.4406L44.0311 73.5112C44.0311 65.2936 44.0311 57.5941 44.0311 50.6715C44.0311 47.2103 44.0311 43.9374 44.0311 40.8999C44.0311 40.5232 44.0547 40.1465 43.984 39.7697C43.937 39.393 43.8192 39.0634 43.6544 38.7337C43.3248 38.0744 42.8067 37.5564 42.2181 37.2268C41.912 37.0619 41.5824 36.9442 41.2527 36.85C40.9231 36.8029 40.5934 36.7558 40.2638 36.7794C39.6045 36.8265 38.9452 36.9207 38.3095 36.9913C33.2235 37.5564 29.1736 38.0038 26.3716 38.3099C24.9824 38.4512 23.8993 38.5689 23.1694 38.6631C22.8162 38.7102 22.5336 38.7337 22.3452 38.7573C22.2275 38.7573 22.1333 38.7573 22.1333 38.7573Z" fill="#263238"/>
<path d="M40.4757 64.7979C40.4757 64.7979 40.5463 64.7979 40.6641 64.7744C40.7818 64.7508 40.9466 64.7037 41.1585 64.586C41.3469 64.4683 41.5588 64.2564 41.653 63.9503C41.7001 63.809 41.7236 63.6206 41.7236 63.4322C41.7236 63.2439 41.6766 63.0555 41.5824 62.8907C41.394 62.5375 40.9937 62.2549 40.5228 62.2549C40.0283 62.2549 39.5103 62.2549 38.9688 62.2549C37.8621 62.2549 36.6612 62.2549 35.4133 62.2549C35.1072 62.2549 34.8247 62.3727 34.6127 62.561C34.4008 62.7494 34.2595 63.032 34.236 63.3145C34.2125 63.5971 34.236 63.8796 34.3773 64.1386C34.5186 64.3741 34.7305 64.5625 34.9659 64.6566C35.2014 64.7744 35.4604 64.7508 35.743 64.7508C36.002 64.7508 36.261 64.7508 36.4964 64.7508C36.9909 64.7508 37.4383 64.7508 37.8621 64.7508C38.6862 64.7508 39.3455 64.7744 39.8164 64.7744C40.0283 64.7744 40.2167 64.7744 40.358 64.7744C40.4051 64.7744 40.4757 64.7744 40.4757 64.7979C40.4757 64.7979 40.4051 64.7979 40.2873 64.8215C40.1461 64.8215 39.9812 64.8215 39.7458 64.8215C39.2749 64.8215 38.592 64.8215 37.7915 64.845C37.3676 64.845 36.9203 64.845 36.4258 64.845C36.1903 64.845 35.9313 64.845 35.6723 64.845C35.531 64.845 35.4133 64.845 35.272 64.845C35.1308 64.845 34.9895 64.7979 34.8717 64.7508C34.6127 64.6331 34.3773 64.4447 34.236 64.1857C34.0947 63.9267 34.0476 63.5971 34.0712 63.3145C34.0947 63.0084 34.2596 62.7023 34.495 62.4904C34.7305 62.2785 35.0601 62.1372 35.3898 62.1372C36.6612 62.1372 37.8621 62.1372 38.9452 62.1372C39.4868 62.1372 40.0048 62.1372 40.4992 62.1372C41.0173 62.1372 41.4411 62.4669 41.6295 62.8436C41.7236 63.032 41.7707 63.2439 41.7707 63.4322C41.7707 63.6206 41.7472 63.809 41.7001 63.9738C41.5824 64.3034 41.3705 64.5154 41.1585 64.6331C40.9466 64.7508 40.7818 64.7979 40.6641 64.8215C40.5228 64.7979 40.4757 64.7979 40.4757 64.7979Z" fill="#263238"/>
<path d="M40.0283 61.8324C40.0283 61.8559 39.1335 61.903 38.0033 61.903C36.8967 61.903 35.9784 61.8795 35.9784 61.8324C35.9784 61.8088 36.8731 61.7617 38.0033 61.7617C39.1335 61.7617 40.0283 61.8088 40.0283 61.8324Z" fill="white"/>
<path d="M24.4173 91.1707L22.5336 91.0295C23.028 84.2953 23.7344 80.2454 24.7469 78.6913C26.6541 75.701 28.5378 75.1594 30.6334 74.8062C32.5877 74.4766 34.542 74.5472 36.4493 74.6414L36.9202 74.665C40.8524 74.8298 49.0699 74.6885 49.1641 74.6885L49.1877 76.5722C49.0935 76.5722 40.8288 76.7135 36.8496 76.5487L36.3786 76.5251C34.5656 76.4545 32.7055 76.3838 30.963 76.6664C29.0794 76.996 27.855 77.3492 26.348 79.7038C25.8771 80.4102 25.0294 82.859 24.4173 91.1707Z" fill="#263238"/>
<path d="M142.924 14.3165H50.1531V76.0778H142.924V14.3165Z" fill="#E8505B"/>
<path d="M141.818 74.853C141.818 74.4528 141.794 51.8015 141.771 15.7054L141.818 15.7525C116.953 15.7525 85.4015 15.7525 51.1656 15.776L51.2362 15.7054C51.2362 36.732 51.2362 56.7461 51.2362 74.853L51.1891 74.8059C104.497 74.8295 141.3 74.853 141.818 74.853C141.323 74.853 104.497 74.8766 51.1656 74.9001H51.1185V74.853C51.1185 56.7461 51.1185 36.732 51.1185 15.7054V15.6348H51.1891C85.425 15.6348 117 15.6348 141.841 15.6583H141.888V15.7054C141.841 51.8015 141.818 74.4528 141.818 74.853Z" fill="#263238"/>
<g opacity="0.5">
<g opacity="0.5">
<path opacity="0.5" d="M63.3152 47.4458L64.1864 65.1053L132.988 50.8129L131.763 32.3999L63.3152 47.4458Z" fill="black"/>
</g>
</g>
<path d="M68.5424 59.6889L69.0133 58.0407C69.8845 58.441 70.9441 58.5352 71.933 58.3232C72.9926 58.0878 73.5812 57.5933 73.4399 56.9811C73.1574 55.6625 69.2016 57.2401 68.6365 54.603C68.2598 52.9077 69.5313 51.4713 71.8153 50.9769C72.9219 50.7414 74.005 50.765 74.8291 51.0711L74.4289 52.6957C73.6989 52.4132 72.8513 52.3661 72.0507 52.5309C70.9441 52.7664 70.3789 53.3315 70.4967 53.9201C70.7792 55.2858 74.7585 53.6847 75.3001 56.2276C75.6768 57.9465 74.3818 59.3828 72.0743 59.8773C70.7086 60.1834 69.3429 60.0421 68.5424 59.6889Z" fill="white"/>
<path d="M84.177 48.4579L84.2947 57.0993L82.3639 57.4996L82.3169 53.9677L78.573 54.7682L78.6201 58.3001L76.6894 58.724L76.5716 50.0826L78.5024 49.6587L78.5495 53.0494L82.2933 52.2488L82.2462 48.8582L84.177 48.4579Z" fill="white"/>
<path d="M86.1548 48.0341L88.0856 47.6102L88.2034 56.2516L86.2726 56.6755L86.1548 48.0341Z" fill="white"/>
<path d="M97.1743 48.3637C97.6217 50.4829 96.3502 52.1311 93.8779 52.6491L92.0413 53.0494L92.0884 55.4275L90.1576 55.8514L90.0399 47.21L93.3834 46.4801C95.4554 46.0562 96.8447 46.7626 97.1743 48.3637ZM95.2671 48.9524C95.1023 48.1518 94.443 47.8928 93.4776 48.1047L91.9706 48.4344L92.0177 51.4483L93.6424 51.0951C94.9139 50.8125 95.5025 50.0591 95.2671 48.9524Z" fill="white"/>
<path d="M105.745 46.5503C106.192 48.6695 104.921 50.3177 102.449 50.8357L100.612 51.236L100.659 53.6142L98.7283 54.038L98.6106 45.3966L101.954 44.6667C104.003 44.2193 105.392 44.9257 105.745 46.5503ZM103.838 47.1155C103.673 46.3149 103.014 46.0559 102.048 46.2678L100.541 46.5974L100.588 49.6113L102.213 49.2581C103.461 48.9756 104.073 48.2221 103.838 47.1155Z" fill="white"/>
<path d="M107.134 43.5367L109.065 43.1129L109.183 51.7543L107.252 52.1781L107.134 43.5367Z" fill="white"/>
<path d="M118.625 41.0642L118.743 49.7056L117.165 50.0352L112.95 45.5144L113.021 50.93L111.137 51.3303L111.019 42.6889L112.597 42.3592L116.812 46.9036L116.718 41.488L118.625 41.0642Z" fill="white"/>
<path d="M126.254 43.6308L127.996 43.2541L128.043 46.8095C127.337 47.6336 126.277 48.2458 125.076 48.5048C122.557 49.0464 120.673 47.9162 120.202 45.7735C119.59 42.948 121.215 40.3579 124.346 39.6751C125.924 39.3454 127.196 39.6044 128.114 40.3815L126.984 41.7942C126.277 41.2527 125.547 41.1349 124.629 41.3468C122.675 41.7707 121.733 43.4189 122.133 45.2555C122.392 46.5034 123.405 47.1627 124.982 46.8331C125.477 46.7389 125.901 46.527 126.301 46.2444L126.254 43.6308Z" fill="white"/>
<path d="M77.019 31.1045V46.5272L116.247 37.9093L116.223 22.6515L77.019 31.1045Z" fill="#E8505B"/>
<g opacity="0.3">
<g opacity="0.3">
<path opacity="0.3" d="M77.019 31.1045V46.5272L116.247 37.9093L116.223 22.6515L77.019 31.1045Z" fill="black"/>
</g>
</g>
<path d="M120.72 31.1048L134.613 27.8555L134.071 26.3721L120.72 31.1048Z" fill="#FAFAFA"/>
<path d="M58.5589 41.4884L68.2127 39.2279L67.836 38.2155L58.5589 41.4884Z" fill="#FAFAFA"/>
<path d="M91.6175 64.7519L105.486 61.5026L104.945 60.0192L91.6175 64.7519Z" fill="#FAFAFA"/>
<path d="M110.007 23.7112C110.007 23.7347 102.59 25.5242 93.4305 27.6669C84.2711 29.8096 76.8306 31.5285 76.8306 31.5049C76.8306 31.4814 84.2476 29.6919 93.407 27.5492C102.566 25.4065 110.007 23.6876 110.007 23.7112Z" fill="#FAFAFA"/>
<path d="M76.9248 44.9731C76.9248 44.9966 73.7461 45.6794 69.8139 46.48C65.8817 47.2806 62.6794 47.8928 62.6794 47.8692C62.6794 47.8457 65.8582 47.1628 69.7903 46.3623C73.7225 45.5617 76.9248 44.9495 76.9248 44.9731Z" fill="#FAFAFA"/>
<path d="M77.0425 43.5836C77.0425 43.5836 77.0425 43.5365 77.0189 43.4658C77.0189 43.3716 77.0189 43.2539 77.0189 43.1126C77.0189 42.783 76.9954 42.3356 76.9954 41.7941C76.9954 40.6639 76.9718 39.1569 76.9718 37.4851C76.9483 35.8134 76.9483 34.2829 76.9247 33.1762C76.9247 32.6347 76.9012 32.1873 76.9012 31.8576C76.9012 31.7164 76.9012 31.5986 76.9012 31.5044C76.9012 31.4338 76.9012 31.3867 76.9012 31.3867C76.9012 31.3867 76.9012 31.4338 76.9247 31.5044C76.9247 31.5986 76.9483 31.7164 76.9483 31.8576C76.9718 32.1637 76.9954 32.6111 76.9954 33.1762C77.0425 34.2829 77.066 35.8134 77.066 37.5087C77.066 39.204 77.066 40.7345 77.066 41.8412C77.066 42.3827 77.0425 42.8301 77.0425 43.1597C77.0425 43.301 77.0425 43.4187 77.0425 43.5129C77.066 43.5365 77.0425 43.5836 77.0425 43.5836Z" fill="#FAFAFA"/>
<path d="M36.9672 43.5605C36.9672 43.5605 36.9437 43.5841 36.873 43.6312C36.8024 43.6783 36.7082 43.7489 36.614 43.8196C36.3786 43.9844 36.0489 44.1963 35.6486 44.4788C34.8245 45.0439 33.6708 45.7974 32.3993 46.6215C31.1278 47.4456 29.9505 48.152 29.1029 48.67C28.679 48.929 28.3258 49.141 28.0904 49.2822C27.9726 49.3529 27.8785 49.4 27.8078 49.4471C27.7372 49.4706 27.7136 49.4941 27.7136 49.4941C27.7136 49.4941 27.7372 49.4706 27.8078 49.4235C27.8785 49.3764 27.9726 49.3058 28.0668 49.2351C28.3258 49.0703 28.6555 48.8584 29.0558 48.5994C29.9034 48.0578 31.0572 47.3279 32.3287 46.5038C33.6001 45.6797 34.7304 44.9498 35.578 44.4082C35.9783 44.1492 36.3079 43.9373 36.5669 43.7725C36.6847 43.7018 36.7553 43.6547 36.8495 43.6076C36.9201 43.5841 36.9672 43.5605 36.9672 43.5605Z" fill="#FAFAFA"/>
<path d="M32.9409 44.62C32.9409 44.62 32.9173 44.6435 32.8467 44.6906C32.7761 44.7377 32.6819 44.8084 32.5877 44.879C32.3522 45.0438 32.0226 45.2557 31.6223 45.5383C30.7982 46.1034 29.6444 46.8569 28.373 47.681C27.1015 48.5051 25.9242 49.2115 25.0765 49.7295C24.6527 49.9885 24.2995 50.2004 24.064 50.3417C23.9463 50.4123 23.8521 50.4594 23.7815 50.5065C23.7108 50.53 23.6873 50.5536 23.6873 50.5536C23.6873 50.5536 23.7108 50.53 23.7815 50.483C23.8521 50.4359 23.9463 50.3652 24.0405 50.2946C24.2995 50.1298 24.6291 49.9179 25.0294 49.6588C25.8771 49.1173 27.0308 48.3874 28.3023 47.5632C29.5738 46.7391 30.704 46.0092 31.5517 45.4677C31.952 45.2086 32.2816 44.9967 32.5406 44.8319C32.6583 44.7613 32.729 44.7142 32.8232 44.6671C32.9173 44.6435 32.9409 44.62 32.9409 44.62Z" fill="#FAFAFA"/>
<path d="M13.1387 51.4955C13.1387 51.4955 13.1151 51.4248 13.068 51.2836C13.0209 51.1423 12.9739 50.9539 12.9268 50.6949C12.809 50.2004 12.6678 49.5176 12.6678 48.7406C12.6678 47.9636 12.8797 47.2807 13.1151 46.8334C13.2329 46.5979 13.3506 46.4331 13.4448 46.3389C13.539 46.2212 13.5861 46.1741 13.6096 46.1741C13.6331 46.1976 13.4212 46.4095 13.1858 46.8569C12.9739 47.3043 12.7855 47.9871 12.7855 48.7406C12.7855 49.4941 12.9032 50.1769 12.9974 50.6714C13.0916 51.1658 13.1387 51.4719 13.1387 51.4955Z" fill="#FAFAFA"/>
<path d="M3.55542 68.1661C3.55542 68.1661 3.53188 68.0719 3.53188 67.9071C3.53188 67.7423 3.53188 67.4833 3.55542 67.2007C3.57897 66.5885 3.62606 65.7644 3.6967 64.8461C3.76734 63.9278 3.86152 63.1037 3.93216 62.4915C3.97925 62.1854 4.0028 61.95 4.02634 61.7851C4.04989 61.6203 4.07343 61.5261 4.07343 61.5261C4.07343 61.5261 4.07343 61.6203 4.07343 61.7851C4.04989 61.9735 4.02634 62.209 4.0028 62.4915C3.9557 63.1273 3.88507 63.9514 3.81443 64.8461C3.74379 65.7409 3.6967 66.565 3.64961 67.2007C3.62606 67.4833 3.60251 67.7187 3.60251 67.9071C3.55542 68.0955 3.55542 68.1661 3.55542 68.1661Z" fill="#FAFAFA"/>
<path d="M29.3383 72.7577C29.3383 72.7813 28.891 72.8519 28.1846 73.0638C27.8314 73.1816 27.4311 73.3464 26.9837 73.5583C26.5363 73.7702 26.089 74.0528 25.6181 74.3824C25.1707 74.7121 24.7704 75.0888 24.4172 75.442C24.0876 75.7952 23.805 76.1484 23.5931 76.4545C23.1693 77.0667 22.9574 77.4669 22.9338 77.4669C22.9338 77.4669 22.9809 77.3492 23.0751 77.1608C23.1222 77.0667 23.1693 76.9489 23.2635 76.8312C23.3341 76.7135 23.4283 76.5486 23.5225 76.4074C23.7344 76.1013 23.9934 75.7481 24.3466 75.3713C24.6762 75.0182 25.1 74.6414 25.5474 74.3118C26.0183 73.9821 26.4893 73.6996 26.9366 73.4877C27.384 73.2757 27.8078 73.1109 28.161 73.0167C28.3494 72.9461 28.5142 72.9226 28.6555 72.899C28.7968 72.8519 28.9145 72.8519 29.0322 72.8284C29.2206 72.7577 29.3383 72.7342 29.3383 72.7577Z" fill="#FAFAFA"/>
<path d="M52.5312 58.5358C52.5312 58.5358 52.5312 58.5123 52.5312 58.4416C52.5312 58.371 52.5312 58.2768 52.5312 58.1355C52.5312 57.8765 52.5312 57.4762 52.5076 56.9818C52.4841 55.9928 52.4841 54.5565 52.437 52.7906C52.3663 49.2351 52.2957 44.3376 52.178 38.9455C52.0838 33.5299 51.9896 28.6323 51.966 25.0769C51.9425 23.3109 51.9425 21.8746 51.9425 20.8857C51.9425 20.3912 51.9425 20.0145 51.9425 19.7319C51.9425 19.6142 51.9425 19.4965 51.9425 19.4258C51.9425 19.3552 51.9425 19.3317 51.9425 19.3317C51.9425 19.3317 51.9425 19.3552 51.9425 19.4258C51.9425 19.4965 51.9425 19.5907 51.9425 19.7319C51.9425 19.991 51.9425 20.3912 51.966 20.8622C51.9896 21.8511 51.9896 23.2874 52.0367 25.0534C52.1073 28.6088 52.178 33.5064 52.2957 38.922C52.3899 44.3376 52.4841 49.2351 52.5076 52.7906C52.5312 54.5565 52.5312 55.9928 52.5312 56.9818C52.5312 57.4762 52.5312 57.853 52.5312 58.1355C52.5312 58.2533 52.5312 58.371 52.5312 58.4416C52.5312 58.4887 52.5312 58.5358 52.5312 58.5358Z" fill="#FAFAFA"/>
<path d="M120.652 99.7083C126.875 99.4599 131.72 94.213 131.471 87.989C131.223 81.765 125.976 76.9209 119.752 77.1693C113.528 77.4177 108.684 82.6646 108.932 88.8885C109.181 95.1125 114.428 99.9567 120.652 99.7083Z" fill="#263238"/>
<path d="M108.924 88.2507V88.2743C108.83 94.514 113.822 99.6235 120.038 99.7177C126.278 99.8118 131.387 94.8201 131.481 88.6039V88.5804L108.924 88.2507Z" fill="#263238"/>
<path d="M112.268 88.3451C112.197 92.7246 115.705 96.3272 120.085 96.3743C124.465 96.4449 128.067 92.9365 128.114 88.557C128.185 84.1774 124.677 80.5749 120.297 80.5278C115.941 80.4571 112.338 83.9655 112.268 88.3451Z" fill="#FAFAFA"/>
<path d="M120.32 80.5278C115.941 80.4571 112.338 83.9655 112.291 88.3451L128.138 88.5805C128.185 84.201 124.7 80.5984 120.32 80.5278Z" fill="#E0E0E0"/>
<path d="M115.376 88.3926C115.329 91.0533 117.471 93.243 120.132 93.2901C122.793 93.3372 124.983 91.1945 125.03 88.5338C125.077 85.8731 122.934 83.6834 120.273 83.6363C117.613 83.5892 115.423 85.7083 115.376 88.3926Z" fill="#263238"/>
<path d="M105.369 91.5474C105.369 91.5474 103.65 75.5361 120.25 75.5361C135.555 75.5361 135.225 89.3106 135.06 91.4297H132.658C132.658 91.4297 133.883 77.8672 120.226 77.8672C106.593 77.8672 107.77 91.7123 107.77 91.7123C107.77 91.7123 106.758 91.6652 105.369 91.5474Z" fill="#455A64"/>
<path d="M114.245 77.1843C114.245 77.1843 114.198 77.2079 114.104 77.2314C114.01 77.255 113.892 77.3021 113.727 77.3492C113.398 77.4433 112.927 77.6082 112.385 77.8672C111.279 78.3616 109.819 79.3035 108.618 80.7398C107.417 82.1761 106.758 83.7772 106.452 84.9545C106.287 85.5432 106.216 86.0376 106.169 86.3673C106.146 86.5321 106.122 86.6734 106.122 86.7676C106.122 86.8617 106.099 86.9088 106.099 86.9088C106.099 86.9088 106.099 86.8617 106.099 86.7676C106.099 86.6734 106.099 86.5321 106.122 86.3673C106.146 86.0141 106.216 85.5196 106.381 84.931C106.664 83.7301 107.323 82.129 108.547 80.6691C109.772 79.2093 111.255 78.291 112.362 77.7965C112.927 77.5375 113.398 77.3962 113.727 77.3021C113.892 77.255 114.034 77.2314 114.104 77.2079C114.198 77.1843 114.245 77.1843 114.245 77.1843Z" fill="#FAFAFA"/>
<path d="M79.0512 35.2176L86.0308 33.6769L86.3202 34.9881L82.6558 35.797L83.1948 38.266L85.8859 37.672L86.1753 38.9832L83.4842 39.5772L84.2387 42.9955L80.9293 43.726L79.0512 35.2176ZM90.3182 34.9823L88.8595 33.0526L92.3464 32.2829L98.3941 39.8768L94.6552 40.7022L93.7246 39.4785L90.3693 40.2191L90.046 41.7196L88.5974 42.0393L90.3182 34.9823ZM92.8339 38.3L91.2419 36.2015L90.6868 38.7739L92.8339 38.3ZM99.3043 37.6884C99.7544 37.8052 100.212 37.8663 100.678 37.8716C101.143 37.8769 101.567 37.8374 101.949 37.7532C102.388 37.6563 102.694 37.5225 102.869 37.3519C103.047 37.1804 103.112 36.9859 103.064 36.7684C103.049 36.6996 103.02 36.632 102.977 36.5653C102.938 36.4979 102.875 36.4378 102.788 36.3851C102.703 36.3277 102.59 36.2786 102.449 36.2377C102.311 36.1921 102.135 36.1569 101.921 36.132L100.819 36.009C100.031 35.9188 99.404 35.7009 98.9393 35.3551C98.4739 35.0055 98.1758 34.5348 98.0452 33.9432C97.961 33.5615 97.9602 33.1773 98.043 32.7908C98.125 32.4004 98.2987 32.0358 98.5642 31.697C98.8288 31.3543 99.1896 31.0485 99.6467 30.7795C100.108 30.5096 100.67 30.3014 101.334 30.1548C101.662 30.0823 101.982 30.0319 102.292 30.0035C102.602 29.9751 102.895 29.9624 103.172 29.9653C103.453 29.9674 103.712 29.9841 103.951 30.0154C104.19 30.0429 104.401 30.0763 104.586 30.1155L104.214 31.3685C104.075 31.3192 103.931 31.281 103.781 31.2541C103.634 31.2263 103.488 31.2085 103.342 31.2007C103.2 31.192 103.062 31.1924 102.928 31.202C102.794 31.2116 102.674 31.2281 102.567 31.2517C102.384 31.2922 102.229 31.3524 102.103 31.4323C101.975 31.5085 101.873 31.5971 101.795 31.6984C101.72 31.7949 101.669 31.8983 101.641 32.0085C101.617 32.114 101.615 32.2145 101.636 32.31C101.654 32.3939 101.692 32.4718 101.747 32.5435C101.806 32.6106 101.892 32.6718 102.004 32.7271C102.119 32.7777 102.264 32.8239 102.437 32.8657C102.613 32.9028 102.829 32.9353 103.083 32.9633L103.821 33.0406C104.62 33.1244 105.264 33.3405 105.753 33.6889C106.242 34.0373 106.555 34.5206 106.692 35.139C106.784 35.5589 106.774 35.9674 106.662 36.3645C106.553 36.7608 106.341 37.13 106.024 37.4721C105.706 37.8104 105.285 38.1136 104.759 38.3817C104.237 38.6451 103.61 38.8577 102.877 39.0195C102.525 39.097 102.182 39.1529 101.845 39.1872C101.513 39.2245 101.182 39.2414 100.853 39.2379C100.528 39.2337 100.202 39.2095 99.8765 39.1653C99.5505 39.1212 99.2203 39.058 98.8859 38.9757L99.3043 37.6884ZM108.844 30.0102L106.417 30.5461L106.127 29.2349L114.292 27.4326L114.581 28.7438L112.154 29.2797L113.744 36.4826L110.434 37.2131L108.844 30.0102Z" fill="white"/>
<path d="M155.004 93.4777L157.005 96.4916L157.9 99.3407C157.97 99.5526 158.182 99.6468 158.394 99.5761C158.512 99.529 158.583 99.4349 158.63 99.3171C158.818 98.5637 159.477 95.8323 159.312 95.6204C159.124 95.3849 157.405 92.3004 157.405 92.3004L155.004 93.4777Z" fill="#455A64"/>
<g opacity="0.6">
<g opacity="0.6">
<g opacity="0.6">
<g opacity="0.6">
<path opacity="0.6" d="M158.394 99.5761L159.171 95.4084L159.242 95.5497C159.313 95.6674 159.336 95.7852 159.313 95.9265C159.265 96.2796 159.101 97.245 158.606 99.3171C158.606 99.4348 158.512 99.529 158.394 99.5761Z" fill="white"/>
</g>
</g>
</g>
</g>
<g opacity="0.6">
<g opacity="0.6">
<g opacity="0.6">
<g opacity="0.6">
<g opacity="0.6">
<path opacity="0.6" d="M157.923 94.82C157.876 94.9142 157.923 95.0554 158.018 95.1025C158.112 95.1496 158.253 95.1025 158.3 95.0083C158.347 94.9142 158.3 94.7493 158.182 94.7023C158.088 94.6787 157.947 94.7493 157.923 94.82Z" fill="white"/>
</g>
</g>
</g>
</g>
</g>
<path d="M158.253 97.7865C158.229 97.81 158.065 97.6923 157.829 97.7158C157.594 97.7394 157.452 97.8807 157.429 97.8807C157.429 97.8807 157.452 97.8336 157.5 97.7629C157.57 97.7158 157.664 97.6452 157.806 97.6452C157.947 97.6217 158.065 97.6688 158.135 97.6923C158.229 97.7394 158.253 97.7865 158.253 97.7865Z" fill="#263238"/>
<path d="M158.3 98.3519C158.3 98.3754 158.135 98.3283 157.947 98.399C157.759 98.4461 157.641 98.5638 157.617 98.5402C157.594 98.5402 157.712 98.3754 157.923 98.3048C158.135 98.2577 158.3 98.3283 158.3 98.3519Z" fill="#263238"/>
<path d="M158.324 97.0096C158.324 97.0331 158.065 96.986 157.782 97.0331C157.476 97.0802 157.264 97.245 157.264 97.2215C157.241 97.1979 157.452 97.0331 157.782 96.9625C158.088 96.8918 158.324 96.986 158.324 97.0096Z" fill="#263238"/>
<path d="M157.782 96.0445C157.782 96.0681 157.57 96.1152 157.335 96.2329C157.099 96.3506 156.958 96.539 156.958 96.5154C156.934 96.5154 157.052 96.3035 157.311 96.1622C157.547 96.021 157.782 96.021 157.782 96.0445Z" fill="#263238"/>
<path d="M157.217 95.1494C157.217 95.1729 156.981 95.1729 156.77 95.3378C156.534 95.479 156.44 95.7145 156.416 95.691C156.416 95.691 156.416 95.6203 156.463 95.5497C156.511 95.4555 156.581 95.3613 156.722 95.2671C156.84 95.1729 156.981 95.1494 157.076 95.1259C157.17 95.1259 157.217 95.1259 157.217 95.1494Z" fill="#263238"/>
<path d="M156.652 95.1494C156.652 95.1494 156.605 95.1259 156.581 95.0317C156.534 94.9611 156.487 94.8198 156.487 94.6785C156.487 94.6079 156.463 94.5137 156.534 94.4195C156.558 94.3724 156.628 94.3489 156.699 94.3489C156.77 94.3724 156.793 94.4195 156.84 94.4666C156.958 94.655 156.911 94.9611 156.722 95.1259C156.511 95.2907 156.252 95.2907 156.04 95.173C155.993 95.1494 155.945 95.1023 155.945 95.0317C155.945 94.9611 155.993 94.914 156.04 94.8904C156.134 94.8433 156.228 94.8669 156.299 94.8669C156.463 94.8904 156.581 94.9375 156.652 94.9611C156.722 95.0082 156.77 95.0317 156.77 95.0317C156.77 95.0553 156.605 94.9375 156.299 94.914C156.228 94.914 156.134 94.914 156.063 94.9375C156.04 94.9611 156.016 94.9846 156.016 95.0082C156.016 95.0317 156.04 95.0788 156.087 95.1023C156.252 95.1965 156.511 95.1965 156.675 95.0553C156.84 94.914 156.887 94.655 156.793 94.4901C156.77 94.4431 156.746 94.4195 156.699 94.4195C156.675 94.4195 156.628 94.4195 156.605 94.4431C156.558 94.5137 156.558 94.5843 156.558 94.6785C156.558 94.9846 156.675 95.1494 156.652 95.1494Z" fill="#263238"/>
<path d="M153.096 95.2204L152.861 98.2578C152.861 98.2578 155.875 99.2939 155.875 99.859L149.988 99.8354L150.153 95.1027L153.096 95.2204Z" fill="#455A64"/>
<g opacity="0.6">
<g opacity="0.6">
<g opacity="0.6">
<g opacity="0.6">
<g opacity="0.6">
<g opacity="0.6">
<g opacity="0.6">
<path opacity="0.6" d="M151.048 97.9045C150.93 97.928 150.859 98.0458 150.859 98.1635C150.883 98.2812 151.001 98.3754 151.118 98.3519C151.236 98.3283 151.33 98.187 151.307 98.0693C151.283 97.9516 151.142 97.8574 151.048 97.9045Z" fill="white"/>
</g>
</g>
</g>
</g>
</g>
</g>
</g>
<g opacity="0.6">
<g opacity="0.6">
<g opacity="0.6">
<g opacity="0.6">
<g opacity="0.6">
<g opacity="0.6">
<path opacity="0.6" d="M149.988 99.8119L150.012 99.3409L155.71 99.5529C155.71 99.5529 155.898 99.647 155.922 99.8825L149.988 99.8119Z" fill="white"/>
</g>
</g>
</g>
</g>
</g>
</g>
<path d="M152.955 98.2108C152.955 98.2343 152.814 98.2579 152.673 98.3285C152.531 98.4227 152.437 98.5404 152.414 98.5169C152.39 98.5169 152.437 98.3285 152.625 98.2343C152.79 98.1401 152.955 98.1872 152.955 98.2108Z" fill="#263238"/>
<path d="M153.567 98.4931C153.567 98.5167 153.45 98.5638 153.355 98.6815C153.238 98.7992 153.214 98.917 153.191 98.917C153.167 98.917 153.143 98.7521 153.285 98.6108C153.402 98.4696 153.567 98.4696 153.567 98.4931Z" fill="#263238"/>
<path d="M153.897 99.2469C153.873 99.2469 153.826 99.1056 153.921 98.9408C153.991 98.7759 154.132 98.7288 154.156 98.7524C154.18 98.7759 154.085 98.8466 154.015 98.9878C153.921 99.1291 153.921 99.2469 153.897 99.2469Z" fill="#263238"/>
<path d="M152.932 97.5279C152.908 97.5515 152.79 97.5044 152.625 97.5044C152.461 97.5044 152.343 97.5515 152.319 97.5279C152.296 97.5044 152.437 97.4102 152.625 97.4102C152.814 97.3867 152.955 97.5044 152.932 97.5279Z" fill="#263238"/>
<g opacity="0.3">
<g opacity="0.3">
<g opacity="0.3">
<g opacity="0.3">
<g opacity="0.3">
<g opacity="0.3">
<path opacity="0.3" d="M153.049 95.809L153.002 96.3506L150.106 96.2093L150.13 95.7148L153.049 95.809Z" fill="black"/>
</g>
</g>
</g>
</g>
</g>
</g>
<path d="M152.979 96.9156C152.979 96.9391 152.861 96.9391 152.673 96.892C152.578 96.8685 152.484 96.8449 152.366 96.7743C152.319 96.7508 152.249 96.7037 152.202 96.6801C152.178 96.6566 152.155 96.633 152.107 96.6095C152.084 96.5859 152.06 96.4918 152.107 96.4447C152.131 96.3976 152.202 96.374 152.225 96.374C152.272 96.374 152.296 96.374 152.343 96.3976C152.414 96.4211 152.461 96.4447 152.531 96.4682C152.649 96.5153 152.72 96.5859 152.79 96.6566C152.932 96.8214 152.979 96.9156 152.979 96.9156C152.955 96.9391 152.884 96.8449 152.767 96.7508C152.696 96.7037 152.602 96.633 152.508 96.5859C152.461 96.5624 152.39 96.5388 152.343 96.5153C152.272 96.4918 152.225 96.4918 152.202 96.5153V96.5388C152.225 96.5624 152.249 96.5624 152.272 96.5859C152.319 96.633 152.366 96.6566 152.414 96.6801C152.508 96.7272 152.602 96.7743 152.696 96.7979C152.861 96.8685 152.979 96.892 152.979 96.9156Z" fill="#263238"/>
<path d="M152.932 96.9393C152.932 96.9393 152.861 96.8451 152.861 96.6567C152.861 96.5626 152.884 96.4448 152.908 96.3271C152.932 96.28 152.955 96.2094 152.979 96.1623C153.026 96.1152 153.049 96.021 153.167 96.021C153.214 96.021 153.261 96.0681 153.285 96.1152C153.308 96.1623 153.308 96.1858 153.308 96.2329C153.308 96.3036 153.308 96.3742 153.308 96.4213C153.285 96.539 153.238 96.6567 153.167 96.7274C153.049 96.8687 152.932 96.9157 152.932 96.8922C152.932 96.8687 153.026 96.8216 153.12 96.6803C153.167 96.6097 153.214 96.5155 153.214 96.3977C153.214 96.3506 153.214 96.28 153.214 96.2329C153.214 96.1623 153.191 96.1152 153.167 96.1152C153.143 96.1152 153.096 96.1623 153.049 96.2094C153.026 96.2565 153.002 96.3035 152.979 96.3742C152.932 96.4684 152.908 96.5861 152.908 96.6567C152.932 96.8216 152.955 96.9393 152.932 96.9393Z" fill="#263238"/>
<path d="M155.239 70.2614C155.239 70.2614 156.322 72.4747 156.605 74.0523C156.675 74.4996 153.52 97.2216 153.52 97.2216L149.776 97.0803L151.542 75.9359L150.906 71.6977L155.239 70.2614Z" fill="#263238"/>
<path d="M146.127 71.6505C146.127 71.6505 146.056 73.7697 146.362 76.242C146.645 78.4789 147.28 80.9983 147.492 82.4111C147.94 85.5427 148.858 86.1313 148.858 86.1313L156.063 95.3378L158.889 92.7949L152.531 82.6465C152.531 82.6465 150.836 71.368 150.906 71.6741C150.954 72.0037 146.127 71.6505 146.127 71.6505Z" fill="#263238"/>
<path d="M148.999 86.2726C148.999 86.2726 149.023 86.2961 149.07 86.3668C149.117 86.4374 149.188 86.5316 149.282 86.6258C149.47 86.8612 149.729 87.1909 150.035 87.5912C150.671 88.4153 151.542 89.569 152.508 90.817C153.473 92.0885 154.344 93.2187 155.004 94.0428C155.333 94.4431 155.592 94.7727 155.781 95.0082C155.875 95.1259 155.945 95.1965 155.992 95.2672C156.04 95.3143 156.063 95.3614 156.063 95.3614C156.063 95.3614 156.04 95.3378 155.992 95.2672C155.945 95.1965 155.875 95.1023 155.781 95.0082C155.592 94.7727 155.333 94.4431 155.027 94.0428C154.391 93.2187 153.52 92.0649 152.555 90.817C151.589 89.5455 150.718 88.4153 150.059 87.5912C149.729 87.1909 149.47 86.8612 149.282 86.6258C149.188 86.508 149.117 86.4374 149.07 86.3668C149.023 86.3197 148.999 86.2726 148.999 86.2726Z" fill="#455A64"/>
<path d="M148.199 73.3696C148.222 73.3696 148.199 73.5109 148.104 73.7228C148.01 73.9347 147.845 74.2173 147.586 74.4527C147.327 74.6882 147.045 74.853 146.833 74.9237C146.621 74.9943 146.48 75.0178 146.48 74.9943C146.456 74.9472 147.021 74.8295 147.516 74.3586C147.987 73.9112 148.151 73.3696 148.199 73.3696Z" fill="#455A64"/>
<path d="M155.969 72.0976C155.969 72.1212 155.733 72.2153 155.427 72.1683C155.121 72.1212 154.909 71.9563 154.933 71.9328C154.956 71.9092 155.168 72.0034 155.451 72.0505C155.71 72.0976 155.945 72.0505 155.969 72.0976Z" fill="#455A64"/>
<path d="M151.895 75.2291C151.895 75.2291 151.919 75.2762 151.919 75.3704C151.943 75.4881 151.943 75.6294 151.966 75.7942C152.013 76.1945 152.06 76.7361 152.154 77.4189C152.296 78.8081 152.508 80.7154 152.743 82.9051V82.8816C153.073 83.4231 153.426 83.9883 153.779 84.5534C155.192 86.8373 156.463 88.8858 157.405 90.3928C157.853 91.1227 158.229 91.7349 158.488 92.1587C158.606 92.3706 158.7 92.5355 158.771 92.6532C158.841 92.7709 158.865 92.818 158.865 92.818C158.865 92.818 158.818 92.7709 158.747 92.6532C158.677 92.5355 158.559 92.3706 158.441 92.1823C158.182 91.7584 157.782 91.1698 157.311 90.4399C156.369 88.9329 155.074 86.8844 153.661 84.624C153.308 84.0589 152.955 83.4938 152.625 82.9522V82.9287V82.9051C152.413 80.7154 152.225 78.7846 152.084 77.3954C152.013 76.7125 151.966 76.171 151.943 75.7707C151.919 75.5823 151.919 75.441 151.919 75.3469C151.895 75.2762 151.895 75.2291 151.895 75.2291Z" fill="#455A64"/>
<path d="M150.812 55.4274L153.073 56.1574L153.238 60.9137C153.238 60.9137 154.438 66.4941 154.697 67.2004C155.215 68.5897 155.38 69.814 155.38 69.814C155.38 69.814 154.956 72.9692 151.801 73.346C148.646 73.7227 145.703 71.9096 145.703 71.9096C145.703 71.9096 144.643 67.2004 143.678 62.9857C142.76 58.9593 143.513 56.5576 143.513 56.5576L146.974 55.3097L150.812 55.4274Z" fill="#2DAE1F"/>
<path d="M152.472 58.0927L150.415 58.3416L150.48 58.8792L152.537 58.6304L152.472 58.0927Z" fill="#FAFAFA"/>
<path d="M152.979 52.3662C152.932 52.1307 152.72 51.9659 152.484 51.9659C152.72 51.8246 152.673 51.4244 152.437 51.3066C152.673 50.977 152.578 50.4825 152.272 50.2235L149.894 53.4964C150.247 53.8025 150.742 53.8967 151.213 53.8496C151.684 53.8025 152.107 53.6141 152.508 53.3787C152.602 53.3316 152.72 53.2609 152.767 53.1432C152.814 53.0255 152.743 52.8607 152.625 52.8607C152.837 52.8371 153.002 52.6017 152.979 52.3662Z" fill="#263238"/>
<path d="M147.092 50.6004C146.998 50.5769 146.904 50.6004 146.833 50.6946C146.786 50.7652 146.786 50.883 146.833 50.9536C146.692 50.9301 146.551 51.0007 146.456 51.1184C146.362 51.2362 146.362 51.401 146.433 51.5187C146.268 51.5187 146.08 51.5423 145.962 51.6364C145.821 51.7306 145.726 51.919 145.774 52.0838C145.821 52.2486 145.985 52.3899 146.15 52.3193C146.08 52.4605 146.08 52.6489 146.174 52.7902C146.268 52.9079 146.503 52.9315 146.598 52.7902C146.503 52.9079 146.527 53.0963 146.621 53.214C146.715 53.3318 146.904 53.3553 147.021 53.3082C146.974 53.4495 147.045 53.6379 147.186 53.7085C147.328 53.7791 147.492 53.7791 147.61 53.6849L147.092 50.6004Z" fill="#263238"/>
<path d="M147.234 49.9648L147.14 55.7571C147.116 56.6989 147.846 57.4995 148.788 57.5937C149.824 57.6879 150.719 56.8873 150.742 55.8513C150.766 55.3097 150.766 54.8388 150.766 54.8388C150.766 54.8388 152.178 54.7446 152.32 53.3554C152.39 52.5548 152.414 50.7182 152.437 49.3055C152.437 48.3636 151.707 47.5631 150.766 47.4689L149.918 47.3982C148.435 47.3512 147.234 48.5049 147.234 49.9648Z" fill="#FFBE9D"/>
<path d="M150.742 54.8388C150.742 54.8388 149.871 54.8153 148.976 54.1324C148.976 54.1324 149.329 55.192 150.742 55.192V54.8388Z" fill="#EB996E"/>
<path d="M152.013 50.7178C151.99 50.7413 151.849 50.6236 151.637 50.6C151.425 50.5765 151.26 50.6707 151.236 50.6471C151.236 50.6236 151.26 50.6 151.331 50.5529C151.401 50.5058 151.519 50.4823 151.66 50.4823C151.801 50.5058 151.896 50.5529 151.966 50.6C152.013 50.6471 152.037 50.6942 152.013 50.7178Z" fill="#263238"/>
<path d="M149.752 50.8113C149.752 50.9052 149.658 50.9992 149.54 50.9992C149.423 50.9992 149.352 50.9052 149.352 50.8113C149.352 50.7173 149.446 50.6234 149.564 50.6234C149.681 50.5999 149.752 50.6938 149.752 50.8113Z" fill="#263238"/>
<path d="M151.824 51C151.824 51.094 151.73 51.1879 151.613 51.1879C151.495 51.1879 151.425 51.094 151.425 51C151.425 50.9061 151.519 50.8121 151.636 50.8121C151.754 50.7886 151.848 50.8826 151.824 51Z" fill="#263238"/>
<path d="M149.941 50.5299C149.918 50.5534 149.777 50.4357 149.565 50.4122C149.353 50.3886 149.188 50.4828 149.164 50.4593C149.164 50.4357 149.188 50.4122 149.259 50.3651C149.329 50.318 149.447 50.2944 149.588 50.2944C149.73 50.318 149.824 50.3651 149.894 50.4122C149.941 50.4593 149.965 50.5063 149.941 50.5299Z" fill="#263238"/>
<path d="M150.577 52.178C150.577 52.1545 150.718 52.1545 150.93 52.1545C150.977 52.1545 151.048 52.1545 151.048 52.1074C151.072 52.0603 151.048 52.0132 151.024 51.9426C150.977 51.8013 150.954 51.66 150.907 51.5188C150.742 50.9066 150.624 50.4121 150.648 50.3885C150.671 50.3885 150.836 50.883 151.001 51.4952C151.048 51.6365 151.072 51.8013 151.119 51.919C151.142 51.9897 151.166 52.0603 151.119 52.131C151.095 52.178 151.048 52.2016 151.024 52.2016C150.977 52.2016 150.954 52.2016 150.93 52.2016C150.718 52.2016 150.577 52.2016 150.577 52.178Z" fill="#263238"/>
<path d="M149.941 52.2722C149.965 52.2722 149.965 52.5077 150.13 52.696C150.318 52.8844 150.554 52.8844 150.554 52.908C150.554 52.9315 150.483 52.9551 150.389 52.9315C150.295 52.9315 150.13 52.8844 150.036 52.7667C149.918 52.649 149.894 52.5077 149.894 52.4135C149.894 52.3193 149.918 52.2722 149.941 52.2722Z" fill="#263238"/>
<path d="M150.059 49.8467C150.036 49.8938 149.824 49.8467 149.565 49.8702C149.306 49.8702 149.094 49.9173 149.07 49.8702C149.047 49.8467 149.094 49.7996 149.188 49.7525C149.282 49.7054 149.4 49.6583 149.565 49.6583C149.706 49.6583 149.847 49.6819 149.941 49.729C150.036 49.7525 150.059 49.7996 150.059 49.8467Z" fill="#263238"/>
<path d="M152.061 50.1059C152.014 50.153 151.872 50.0823 151.707 50.0588C151.543 50.0353 151.378 50.0588 151.354 50.0117C151.331 49.9882 151.378 49.9411 151.448 49.894C151.519 49.8469 151.637 49.8233 151.755 49.8469C151.872 49.8704 151.966 49.9175 152.037 49.9646C152.061 50.0117 152.061 50.0823 152.061 50.1059Z" fill="#263238"/>
<path d="M147.61 51.0479C147.587 51.0243 146.669 50.6712 146.621 51.6365C146.574 52.6019 147.54 52.4371 147.54 52.4136L147.61 51.0479Z" fill="#FFBE9D"/>
<path d="M147.28 52.0598C147.28 52.0598 147.257 52.0597 147.233 52.0833C147.209 52.0833 147.162 52.1068 147.115 52.0833C147.021 52.0362 146.95 51.8714 146.95 51.7066C146.95 51.6124 146.974 51.5417 147.021 51.4711C147.045 51.4005 147.092 51.3534 147.162 51.3534C147.209 51.3534 147.257 51.3769 147.257 51.4005C147.257 51.424 147.257 51.4476 147.257 51.4476C147.257 51.4476 147.28 51.424 147.28 51.4005C147.28 51.3769 147.257 51.3534 147.257 51.3298C147.233 51.3063 147.209 51.3063 147.162 51.3063C147.092 51.3063 147.021 51.3769 146.974 51.4476C146.927 51.5182 146.903 51.6124 146.903 51.7066C146.903 51.8949 146.998 52.0833 147.115 52.1304C147.186 52.1539 147.233 52.1304 147.28 52.1068C147.28 52.0833 147.28 52.0598 147.28 52.0598Z" fill="#EB996E"/>
<path d="M147.091 50.9758C147.233 50.9522 147.468 51.1171 147.539 51.2583C147.586 51.3996 147.586 51.5644 147.633 51.7057C147.68 51.847 147.821 51.9883 147.963 51.9647C148.057 51.9412 148.151 51.8705 148.174 51.7764C148.198 51.6822 148.198 51.5644 148.198 51.4703C148.174 51.0229 148.127 50.5755 148.151 50.1281C148.174 49.6808 148.269 49.2098 148.551 48.8566C148.81 48.5035 149.281 48.2445 149.729 48.3386C150.011 48.3857 150.27 48.5741 150.576 48.6447C150.929 48.7154 151.306 48.6447 151.565 48.4093C151.589 48.3857 151.753 48.2915 151.753 48.2915C151.753 48.268 151.753 48.0561 151.683 47.9854C151.141 47.3968 150.105 47.1613 149.328 47.2791C148.551 47.3968 147.774 47.8913 147.374 48.5741C146.95 49.2098 146.974 50.2223 147.091 50.9758Z" fill="#263238"/>
<path d="M152.579 49.0692C152.437 49.3517 152.084 49.493 151.778 49.493C151.472 49.493 151.166 49.3988 150.86 49.2811C150.554 49.1634 149.753 48.9515 149.447 48.9515C149.4 48.9515 149.353 48.9515 149.329 48.9044C149.306 48.8573 149.353 48.7866 149.423 48.7631C149.871 48.4805 150.883 48.3628 151.425 48.3864C151.943 48.4099 152.484 48.6925 152.743 49.1634" fill="#263238"/>
<path d="M152.436 49.0929C152.436 49.0929 152.06 48.5513 151.33 48.4571C150.247 48.3159 148.175 48.7397 147.044 50.5998C147.044 50.5998 146.88 49.7993 146.927 49.3754C146.95 49.0929 147.28 47.4211 149.046 47.0444C149.046 47.0444 151.73 46.2673 152.436 49.0929Z" fill="#455A64"/>
<path d="M147.234 50.2466C147.846 49.4696 148.646 48.8574 149.541 48.3865C150.436 47.9391 151.872 47.5388 152.838 47.374C153.12 47.3269 153.426 47.2798 153.732 47.3505C154.015 47.4211 154.297 47.6566 154.344 47.9391C154.415 48.3159 153.709 48.8103 153.403 48.9987C153.073 49.1871 152.437 49.4696 152.437 49.4696C152.437 49.4696 152.508 48.8103 151.448 48.5749C149.988 48.2688 147.234 50.2466 147.234 50.2466Z" fill="#455A64"/>
<path d="M153.896 47.4205C153.896 47.4441 153.802 47.3735 153.59 47.3735C153.402 47.3735 153.096 47.3735 152.742 47.4205C152.036 47.5383 151.071 47.7737 150.058 48.174C149.046 48.5743 148.222 49.1394 147.704 49.6339C147.445 49.8693 147.28 50.1048 147.162 50.2696C147.068 50.4344 147.021 50.5522 146.997 50.5286C146.997 50.5286 146.997 50.5051 147.021 50.458C147.044 50.4109 147.068 50.3403 147.115 50.2461C147.209 50.0577 147.374 49.8222 147.633 49.5632C148.127 49.0452 148.975 48.4566 150.011 48.0563C151.024 47.6325 152.012 47.4206 152.719 47.3264C153.072 47.2793 153.378 47.2793 153.567 47.3028C153.661 47.3264 153.755 47.3264 153.802 47.3499C153.873 47.397 153.896 47.4205 153.896 47.4205Z" fill="#263238"/>
<path d="M150.459 47.7744C150.459 47.7744 151.001 47.5389 151.542 47.5154C151.448 47.4212 151.378 47.3741 151.26 47.327C150.977 47.3506 150.695 47.3977 150.412 47.5389L150.459 47.7744Z" fill="#FAFAFA"/>
<path d="M152.602 49.564C152.696 49.4463 152.696 49.2815 152.649 49.1402C152.578 48.9989 152.437 48.9047 152.296 48.9047C152.508 48.8341 152.602 48.5751 152.508 48.3867C152.414 48.1984 152.155 48.1042 151.943 48.1748C151.731 48.2219 151.566 48.4103 151.495 48.6222C151.401 48.4809 151.26 48.4103 151.095 48.4103C150.93 48.4103 150.789 48.5045 150.718 48.6457C150.695 48.528 150.53 48.4574 150.412 48.4809C150.294 48.5045 150.2 48.5986 150.082 48.6693C149.988 48.7399 149.871 48.8106 149.753 48.8106L149.659 48.8577C149.776 49.0696 150.106 49.1638 150.318 49.046C150.318 49.2108 150.436 49.3521 150.577 49.3992C150.718 49.4463 150.907 49.3757 151.001 49.2344C151.048 49.4934 151.401 49.6111 151.589 49.4463C151.684 49.7289 152.084 49.8466 152.319 49.6582C152.437 49.8466 152.484 50.082 152.414 50.294C152.578 50.2704 152.696 50.1291 152.743 49.9879C152.79 49.823 152.72 49.6582 152.602 49.564Z" fill="#263238"/>
<path d="M148.623 49.3285C148.293 49.4933 147.963 49.6346 147.681 49.8465C147.398 50.0584 147.139 50.3174 146.974 50.6471L147.445 51.0944C147.563 51.1415 147.681 51.1886 147.775 51.0944C147.869 51.0003 147.94 50.859 147.916 50.7413C148.034 50.7883 148.199 50.7413 148.269 50.6235C148.364 50.5293 148.364 50.3645 148.316 50.2468C148.411 50.2232 148.481 50.1526 148.505 50.0584C148.528 49.9642 148.505 49.87 148.434 49.7994C148.552 49.7994 148.646 49.7288 148.693 49.611C148.74 49.5169 148.717 49.3991 148.623 49.3285Z" fill="#263238"/>
<path d="M153.073 56.1571C153.073 56.1571 154.462 56.9812 154.886 57.7347C155.31 58.4882 157.523 63.9038 157.429 64.7985C157.335 65.6697 155.239 66.2348 155.239 66.2348L153.049 63.4093L154.038 62.8206L153.049 60.9134V56.1571H153.073Z" fill="#2DAE1F"/>
<path d="M155.239 66.2353C155.239 66.2353 150.177 67.2478 148.34 65.058L148.882 63.1979C148.882 63.1979 152.225 63.9984 153.261 63.6452L155.239 66.2353Z" fill="#FFBE9D"/>
<path d="M155.757 61.7378C155.781 61.7849 155.168 62.0204 154.533 62.5148C153.897 63.0093 153.497 63.5273 153.45 63.5038C153.426 63.5038 153.52 63.3625 153.685 63.1506C153.85 62.9387 154.109 62.6797 154.439 62.4207C154.768 62.1616 155.098 61.9968 155.333 61.8791C155.592 61.7614 155.757 61.7143 155.757 61.7378Z" fill="#263238"/>
<path d="M154.156 62.7263C154.132 62.7499 153.944 62.326 153.709 61.8316C153.473 61.3371 153.261 60.9368 153.285 60.9133C153.308 60.8897 153.567 61.2665 153.803 61.7845C154.038 62.2789 154.18 62.7263 154.156 62.7263Z" fill="#263238"/>
<path d="M153.238 60.4665C153.261 60.4665 153.214 60.1133 153.12 59.6895C153.026 59.2657 152.932 58.9125 152.908 58.9125C152.885 58.9125 152.932 59.2657 153.026 59.6895C153.12 60.1133 153.214 60.4665 153.238 60.4665Z" fill="#263238"/>
<path d="M144.149 56.8402C144.243 56.9343 145.632 57.8526 146.103 59.4302C146.574 61.0078 147.069 62.6325 147.069 62.6325L148.882 62.8679L147.869 67.0356C147.869 67.0356 145.679 66.8001 144.479 64.7987C143.278 62.7973 142.524 60.3485 142.524 60.3485C142.524 60.3485 142.666 55.3097 144.149 56.8402Z" fill="#2DAE1F"/>
<path d="M148.27 62.7978C148.27 62.7978 147.493 61.0789 147.399 61.0553C147.304 61.0318 145.821 60.5138 145.821 60.5138C145.821 60.5138 145.75 60.7257 145.821 60.8905L145.279 60.9612C145.279 60.9612 145.35 61.2908 145.538 61.3379L145.35 61.5027C145.35 61.5027 145.515 61.7146 145.703 61.8088C145.915 61.903 146.056 61.8088 146.056 61.8088C146.056 61.8088 145.986 61.9266 146.292 62.1149C146.598 62.3033 147.116 62.5858 147.116 62.5858L148.27 62.7978Z" fill="#FFBE9D"/>
<path d="M147.116 62.6093C147.116 62.6093 146.598 62.3267 146.292 62.1383C146.033 61.9735 146.033 61.8558 146.056 61.8323C146.009 61.8558 145.891 61.9029 145.703 61.8323C145.491 61.7381 145.35 61.5261 145.35 61.5261L145.538 61.3613C145.373 61.3142 145.279 61.0081 145.279 60.9846L145.821 60.914C145.75 60.7491 145.821 60.5372 145.821 60.5372C145.844 60.5372 147.304 61.0552 147.398 61.0788C147.492 61.1023 148.246 62.7505 148.269 62.8212L147.116 62.6093ZM145.797 60.8904L145.256 60.961C145.256 61.0081 145.35 61.2907 145.515 61.3378L145.326 61.5026C145.35 61.5262 145.491 61.7145 145.679 61.8087C145.868 61.9029 146.033 61.8087 146.033 61.8087H146.056V61.8323C146.056 61.8323 145.985 61.95 146.292 62.1383C146.598 62.3267 147.092 62.6093 147.116 62.6093L148.246 62.7976C147.987 62.209 147.469 61.0788 147.375 61.0552C147.28 61.0317 145.868 60.5372 145.797 60.5137C145.797 60.5608 145.726 60.7491 145.797 60.8904Z" fill="#EB996E"/>
<path d="M145.844 60.89C145.844 60.9136 146.268 61.0784 146.81 61.2668C146.951 61.3138 147.069 61.3609 147.186 61.408C147.304 61.4551 147.351 61.5493 147.398 61.6199C147.492 61.7848 147.516 61.9025 147.54 61.8789C147.54 61.8789 147.54 61.7612 147.445 61.5728C147.398 61.4787 147.328 61.3845 147.21 61.3138C147.092 61.2432 146.951 61.2197 146.833 61.1726C146.315 61.0077 145.868 60.89 145.844 60.89Z" fill="#EB996E"/>
<path d="M145.515 61.3378C145.515 61.3378 145.609 61.3849 145.774 61.432C145.938 61.479 146.174 61.5261 146.433 61.5968C146.692 61.6674 146.904 61.7616 147.045 61.8793C147.186 61.9735 147.233 62.0677 147.257 62.0677C147.257 62.0677 147.21 61.95 147.092 61.8322C146.951 61.7145 146.739 61.5968 146.48 61.5261C146.221 61.4555 145.985 61.432 145.797 61.3849C145.609 61.3613 145.515 61.3378 145.515 61.3378Z" fill="#EB996E"/>
<path d="M146.857 62.1145C146.88 62.091 146.739 61.9497 146.504 61.8791C146.268 61.7849 146.08 61.8084 146.08 61.832C146.08 61.8555 146.268 61.8791 146.48 61.9497C146.692 62.0203 146.857 62.1381 146.857 62.1145Z" fill="#EB996E"/>
<path d="M148.717 63.3391L153.285 61.0316L154.132 62.7269C154.132 62.7269 149.918 66.8946 147.963 66.8475" fill="#FFBE9D"/>
<path d="M145.962 58.5122C145.962 58.5122 145.985 58.6535 146.033 58.8419C146.08 59.0538 146.15 59.3363 146.244 59.6424C146.339 59.9485 146.409 60.2311 146.48 60.443C146.551 60.6549 146.598 60.7726 146.598 60.7726C146.598 60.7726 146.574 60.6314 146.527 60.443C146.48 60.2311 146.409 59.9485 146.315 59.6424C146.221 59.3363 146.15 59.0538 146.08 58.8419C146.009 58.6299 145.962 58.5122 145.962 58.5122Z" fill="#263238"/>
<path d="M146.15 64.1632C146.174 64.1632 146.197 63.9513 146.315 63.6217C146.362 63.4569 146.456 63.2685 146.598 63.1037C146.739 62.9388 146.927 62.774 147.186 62.7269C147.445 62.6798 147.681 62.774 147.916 62.8211C148.128 62.8682 148.34 62.9153 148.505 62.9388C148.599 62.9624 148.67 62.9624 148.717 62.9859C148.787 63.0095 148.811 63.0566 148.835 63.1037C148.858 63.1978 148.811 63.2449 148.835 63.2449C148.835 63.2449 148.905 63.1978 148.882 63.1037C148.858 63.0566 148.835 62.9859 148.764 62.9624C148.693 62.9153 148.623 62.9153 148.528 62.8917C148.364 62.8447 148.152 62.7976 147.94 62.7505C147.728 62.7034 147.469 62.6327 147.186 62.6563C146.904 62.7034 146.692 62.8682 146.551 63.0566C146.409 63.2449 146.339 63.4569 146.292 63.6217C146.244 63.7865 146.221 63.9278 146.197 64.022C146.15 64.1161 146.15 64.1632 146.15 64.1632Z" fill="#263238"/>
<path d="M145.538 63.2684C145.562 63.292 145.679 62.9388 146.033 62.7033C146.386 62.4679 146.739 62.4208 146.739 62.3972C146.739 62.3972 146.645 62.3737 146.503 62.4208C146.362 62.4443 146.174 62.515 145.985 62.6327C145.797 62.7504 145.679 62.9153 145.609 63.0565C145.538 63.1743 145.515 63.2449 145.538 63.2684Z" fill="#263238"/>
<path d="M142.524 60.3724C142.524 60.3724 142.524 60.396 142.548 60.4666C142.571 60.5373 142.595 60.6079 142.642 60.7256C142.713 60.9611 142.83 61.2672 142.948 61.6439C143.089 62.0207 143.231 62.4916 143.466 62.986C143.701 63.4805 143.96 64.0221 144.29 64.5636C144.62 65.1052 145.02 65.5761 145.42 65.9058C145.844 66.2589 146.268 66.518 146.645 66.6592C147.021 66.8241 147.351 66.8947 147.587 66.9182C147.704 66.9418 147.798 66.9418 147.846 66.9418C147.916 66.9418 147.94 66.9418 147.94 66.9418C147.94 66.9418 147.822 66.9182 147.587 66.8947C147.351 66.8476 147.045 66.777 146.668 66.6121C145.938 66.2825 144.973 65.5761 144.361 64.5165C144.031 63.975 143.772 63.4334 143.537 62.9625C143.301 62.468 143.136 62.0207 142.995 61.6204C142.854 61.2436 142.736 60.914 142.665 60.7021C142.618 60.6079 142.595 60.5137 142.571 60.4666C142.548 60.396 142.524 60.3724 142.524 60.3724Z" fill="#263238"/>
<path d="M143.843 56.9582C143.843 56.9818 144.196 57.0995 144.596 57.335C144.997 57.5704 145.279 57.8294 145.303 57.8059C145.326 57.7823 145.044 57.4998 144.643 57.2643C144.22 57.0289 143.843 56.9347 143.843 56.9582Z" fill="#263238"/>
<path d="M147.304 68.0482C147.304 68.0482 147.375 68.0953 147.539 68.1659C147.61 68.213 147.704 68.2366 147.822 68.2837C147.94 68.3308 148.057 68.3779 148.199 68.425C148.481 68.5191 148.834 68.6369 149.211 68.7311C149.612 68.8252 150.035 68.8959 150.483 68.943C150.954 68.9901 151.377 68.9901 151.778 68.9665C152.178 68.943 152.531 68.8959 152.837 68.8488C152.979 68.8252 153.12 68.8017 153.238 68.7781C153.355 68.7546 153.449 68.731 153.544 68.7075C153.709 68.6604 153.803 68.6369 153.803 68.6369C153.803 68.6369 153.709 68.6369 153.544 68.684C153.473 68.7075 153.355 68.7311 153.238 68.7311C153.12 68.7546 152.979 68.7781 152.837 68.8017C152.531 68.8488 152.178 68.8723 151.778 68.8959C151.377 68.9194 150.954 68.8959 150.483 68.8723C150.035 68.8252 149.588 68.7546 149.211 68.684C148.834 68.5898 148.481 68.4956 148.199 68.4014C148.057 68.3543 147.94 68.3072 147.822 68.2601C147.704 68.213 147.61 68.1895 147.539 68.1424C147.375 68.0718 147.304 68.0482 147.304 68.0482Z" fill="#263238"/>
<path d="M151.001 70.4265C151.001 70.4501 151.425 70.3559 151.919 70.1911C152.414 70.0263 152.814 69.8379 152.79 69.8143C152.79 69.7908 152.39 69.9321 151.896 70.0969C151.401 70.2853 151.001 70.403 151.001 70.4265Z" fill="#263238"/>
<g opacity="0.3">
<g opacity="0.3">
<path opacity="0.3" d="M154.486 66.3528C153.402 66.5176 152.39 66.6118 151.33 66.3999C150.954 66.3293 150.553 66.188 150.153 66.2586C149.823 66.3057 149.541 66.4705 149.235 66.6118C148.152 67.0592 146.857 66.9415 145.891 66.2586C146.197 66.9179 146.904 67.3418 147.61 67.4595C148.34 67.5772 149.07 67.4595 149.776 67.2711C150.2 67.1534 150.624 67.0357 151.071 67.0121C151.636 66.9886 152.178 67.1769 152.72 67.1769C153.332 67.1769 154.038 67.0121 154.533 66.6354L154.486 66.3528Z" fill="black"/>
</g>
</g>
<g opacity="0.3">
<g opacity="0.3">
<g opacity="0.3">
<g opacity="0.3">
<path opacity="0.3" d="M152.673 69.9788C152.202 70.7558 151.354 71.2973 150.459 71.3915C150.271 71.4151 150.059 71.4151 149.871 71.3444C149.682 71.2738 149.517 71.1561 149.423 70.9677C149.635 70.8264 149.871 70.7558 150.106 70.6851C150.954 70.4497 151.801 70.2142 152.649 69.9788" fill="black"/>
</g>
</g>
</g>
</g>
<path d="M154.062 62.7976C154.062 62.7976 153.991 62.8682 153.85 63.0095C153.709 63.1508 153.52 63.3392 153.285 63.5746C153.049 63.8101 152.767 64.1162 152.437 64.3987C152.107 64.7048 151.707 64.9874 151.307 65.317C150.907 65.6231 150.483 65.9057 150.106 66.1411C149.729 66.3766 149.353 66.5414 149.023 66.6356C148.693 66.7533 148.434 66.8004 148.246 66.824C148.058 66.8475 147.963 66.8475 147.963 66.8475C147.963 66.824 148.387 66.8004 148.999 66.565C149.305 66.4472 149.682 66.2824 150.059 66.047C150.436 65.8115 150.836 65.5289 151.236 65.2228C151.637 64.9167 152.037 64.6107 152.366 64.3281C152.696 64.0455 152.979 63.763 153.238 63.5275C153.473 63.2921 153.685 63.1037 153.826 62.986C153.968 62.8682 154.062 62.7976 154.062 62.7976Z" fill="#EB996E"/>
</g>
<defs>
<clipPath id="clip0">
<rect width="164.398" height="100" fill="white"/>
</clipPath>
</defs>
</svg>
