<svg width="24" height="24" viewBox="0 0 24 24" fill="none" xmlns="http://www.w3.org/2000/svg">
<g clip-path="url(#clip0)">
<path d="M17.5238 14.4512C17.4561 14.2253 17.1774 14.1196 16.8912 14.1196C16.6125 14.1196 16.3338 14.2253 16.2661 14.4512L14.8124 19.1885C14.8049 19.2187 14.7974 19.2488 14.7974 19.2638C14.7974 19.5049 15.1513 19.6705 15.415 19.6705C15.5807 19.6705 15.7087 19.6179 15.7464 19.4747L16.0324 18.473H17.7573L18.0436 19.4747C18.0812 19.6179 18.2092 19.6705 18.3749 19.6705C18.6385 19.6705 18.9925 19.4974 18.9925 19.2638C18.9925 19.2413 18.985 19.2186 18.9775 19.1885L17.5238 14.4512ZM16.2358 17.7046L16.891 15.3926L17.5465 17.7046H16.2358Z" fill="white"/>
<path d="M21.4142 9.79065H14.2092V6.71338L16.5507 5.04089C16.7355 4.90887 16.8452 4.69592 16.8452 4.46887C16.8452 4.24164 16.7355 4.02869 16.5507 3.89667L14.181 2.20404C13.9959 0.958557 12.9194 0 11.6234 0H2.586C1.15997 0 0 1.15997 0 2.586V11.6235C0 13.0494 1.15997 14.2094 2.586 14.2094H9.79083V17.2866L7.44928 18.9591C7.26453 19.0911 7.15485 19.3043 7.15485 19.5313C7.15485 19.7584 7.26453 19.9715 7.44928 20.1033L9.81903 21.796C10.0042 23.0414 11.0806 24 12.3766 24H21.4142C22.84 24 24 22.8398 24 21.414V12.3766C24 10.9506 22.84 9.79065 21.4142 9.79065ZM2.586 12.8031C1.93542 12.8031 1.40625 12.2739 1.40625 11.6234V2.58582C1.40625 1.93542 1.93542 1.40625 2.586 1.40625H11.6234C12.2737 1.40625 12.8029 1.93542 12.8029 2.58582C12.8029 2.81305 12.9126 3.02618 13.0974 3.15802L14.9323 4.46869L13.0974 5.77936C12.9126 5.91138 12.8029 6.12451 12.8029 6.35156V9.79065H12.3766C10.9508 9.79065 9.79083 10.9506 9.79083 12.3765V12.8031H2.586ZM22.5938 21.414C22.5938 22.0646 22.0646 22.5938 21.4142 22.5938H12.3766C11.7263 22.5938 11.1971 22.0646 11.1971 21.414C11.1971 21.187 11.0874 20.9738 10.9026 20.842L9.06775 19.5313L10.9026 18.2206C11.0874 18.0886 11.1971 17.8755 11.1971 17.6484V12.3766C11.1971 11.7261 11.7263 11.1969 12.3766 11.1969H13.5042H13.506H13.5079H21.4142C22.0646 11.1969 22.5938 11.7261 22.5938 12.3766V21.414Z" fill="white"/>
<path d="M9.2655 6.48169C9.48431 6.48169 9.66193 6.30408 9.66193 6.08508C9.66193 5.86609 9.48431 5.68848 9.2655 5.68848H7.50165V4.72571C7.50165 4.50671 7.32404 4.3291 7.10504 4.3291C6.88623 4.3291 6.70862 4.50671 6.70862 4.72571V5.68848H4.94476C4.72595 5.68848 4.54834 5.86609 4.54834 6.08508C4.54834 6.30408 4.72595 6.48169 4.94476 6.48169H5.49133C5.57867 7.31903 5.93976 8.07581 6.48285 8.66193C6.03259 8.93146 5.50671 9.0871 4.94476 9.0871C4.72595 9.0871 4.54834 9.26453 4.54834 9.48352C4.54834 9.70252 4.72595 9.88013 4.94476 9.88013C5.74713 9.88013 6.49146 9.62927 7.10504 9.20264C7.71881 9.62927 8.46313 9.88013 9.2655 9.88013C9.48431 9.88013 9.66193 9.70252 9.66193 9.48352C9.66193 9.26453 9.48431 9.0871 9.2655 9.0871C8.70355 9.0871 8.17767 8.93182 7.72742 8.66193C8.27051 8.07581 8.63159 7.31903 8.71893 6.48169H9.2655ZM7.10504 8.16644C6.67126 7.71619 6.37665 7.13153 6.29041 6.48169H7.91986C7.83362 7.13153 7.539 7.71619 7.10504 8.16644Z" fill="white"/>
</g>
<defs>
<clipPath id="clip0">
<rect width="24" height="24" fill="white"/>
</clipPath>
</defs>
</svg>
