<svg width="30" height="30" viewBox="0 0 30 30" fill="none" xmlns="http://www.w3.org/2000/svg">
<path d="M28.7502 3.74969C27.5532 4.59404 26.2278 5.23983 24.8252 5.66219C24.0723 4.79658 23.0718 4.18306 21.959 3.9046C20.8461 3.62614 19.6745 3.69619 18.6028 4.10526C17.531 4.51433 16.6107 5.24269 15.9664 6.19184C15.3221 7.14098 14.9848 8.26511 15.0002 9.41219V10.6622C12.8035 10.7192 10.6268 10.232 8.66393 9.244C6.7011 8.25604 5.01306 6.79799 3.75017 4.99969C3.75017 4.99969 -1.24983 16.2497 10.0002 21.2497C7.42583 22.9971 4.35911 23.8734 1.25017 23.7497C12.5002 29.9997 26.2502 23.7497 26.2502 9.37469C26.249 9.02651 26.2155 8.67918 26.1502 8.33719C27.4259 7.07906 28.3262 5.49058 28.7502 3.74969Z" fill="#828C9F" stroke="#828C9F" stroke-width="2.15833" stroke-linecap="round" stroke-linejoin="round"/>
</svg>
